<ttFont>
    <TTGlyph name=".notdef" xMin="68" yMin="0" xMax="612" yMax="1365">
      <contour>
        <pt x="68" y="0" on="1"/>
        <pt x="68" y="1365" on="1"/>
        <pt x="612" y="1365" on="1"/>
        <pt x="612" y="0" on="1"/>
      </contour>
      <contour>
        <pt x="136" y="68" on="1"/>
        <pt x="544" y="68" on="1"/>
        <pt x="544" y="1297" on="1"/>
        <pt x="136" y="1297" on="1"/>
      </contour>
    </TTGlyph>
    <TTGlyph name="A" xMin="-70" yMin="0" xMax="1390" yMax="1551">
      <contour>
        <pt x="-70" y="0" on="1"/>
        <pt x="53" y="24" on="0"/>
        <pt x="117" y="140" on="1"/>
        <pt x="120" y="148" on="1"/>
        <pt x="655" y="1551" on="1"/>
        <pt x="1200" y="148" on="1"/>
        <pt x="1201" y="145" on="1"/>
        <pt x="1204" y="136" on="1"/>
        <pt x="1268" y="24" on="0"/>
        <pt x="1390" y="0" on="1"/>
        <pt x="812" y="0" on="1"/>
        <pt x="1003" y="56" on="0"/>
        <pt x="1003" y="124" on="1"/>
        <pt x="1003" y="131" on="0"/>
        <pt x="1001" y="139" on="1"/>
        <pt x="998" y="148" on="1"/>
        <pt x="845" y="540" on="1"/>
        <pt x="384" y="540" on="1"/>
        <pt x="237" y="148" on="1"/>
        <pt x="234" y="138" on="1"/>
        <pt x="232" y="132" on="0"/>
        <pt x="232" y="125" on="1"/>
        <pt x="232" y="64" on="0"/>
        <pt x="423" y="0" on="1"/>
      </contour>
      <contour>
        <pt x="422" y="642" on="1"/>
        <pt x="806" y="642" on="1"/>
        <pt x="612" y="1170" on="1"/>
      </contour>
    </TTGlyph>
    <TTGlyph name="AE" xMin="-70" yMin="0" xMax="1944" yMax="1511">
      <contour>
        <pt x="-70" y="0" on="1"/>
        <pt x="53" y="24" on="0"/>
        <pt x="117" y="140" on="1"/>
        <pt x="120" y="148" on="1"/>
        <pt x="812" y="1511" on="1"/>
        <pt x="1628" y="1511" on="1"/>
        <pt x="1814" y="1189" on="1"/>
        <pt x="1608" y="1401" on="0"/>
        <pt x="1537" y="1408" on="1"/>
        <pt x="1523" y="1409" on="1"/>
        <pt x="1070" y="1409" on="1"/>
        <pt x="1070" y="642" on="1"/>
        <pt x="1383" y="642" on="1"/>
        <pt x="1397" y="643" on="1"/>
        <pt x="1468" y="650" on="0"/>
        <pt x="1674" y="862" on="1"/>
        <pt x="1385" y="361" on="1"/>
        <pt x="1394" y="394" on="0"/>
        <pt x="1394" y="422" on="1"/>
        <pt x="1394" y="496" on="0"/>
        <pt x="1334" y="537" on="1"/>
        <pt x="1327" y="540" on="1"/>
        <pt x="1070" y="540" on="1"/>
        <pt x="1070" y="102" on="1"/>
        <pt x="1653" y="102" on="1"/>
        <pt x="1667" y="103" on="1"/>
        <pt x="1738" y="110" on="0"/>
        <pt x="1944" y="322" on="1"/>
        <pt x="1758" y="0" on="1"/>
        <pt x="682" y="0" on="1"/>
        <pt x="806" y="24" on="0"/>
        <pt x="870" y="140" on="1"/>
        <pt x="872" y="148" on="1"/>
        <pt x="872" y="540" on="1"/>
        <pt x="456" y="540" on="1"/>
        <pt x="248" y="148" on="1"/>
        <pt x="245" y="138" on="1"/>
        <pt x="243" y="132" on="0"/>
        <pt x="243" y="125" on="1"/>
        <pt x="243" y="64" on="0"/>
        <pt x="434" y="0" on="1"/>
      </contour>
      <contour>
        <pt x="872" y="1364" on="1"/>
        <pt x="494" y="642" on="1"/>
        <pt x="872" y="642" on="1"/>
        <pt x="872" y="1363" on="1"/>
      </contour>
    </TTGlyph>
    <TTGlyph name="Aacute" xMin="-70" yMin="0" xMax="1390" yMax="1950">
      <contour>
        <pt x="673" y="1583" on="1"/>
        <pt x="861" y="1893" on="1"/>
        <pt x="864" y="1898" on="0"/>
        <pt x="875" y="1910" on="1"/>
        <pt x="901" y="1939" on="0"/>
        <pt x="939" y="1947" on="1"/>
        <pt x="954" y="1950" on="0"/>
        <pt x="968" y="1950" on="1"/>
        <pt x="1012" y="1950" on="0"/>
        <pt x="1044" y="1918" on="1"/>
        <pt x="1073" y="1889" on="0"/>
        <pt x="1073" y="1845" on="1"/>
        <pt x="1073" y="1837" on="0"/>
        <pt x="1072" y="1827" on="1"/>
        <pt x="1068" y="1782" on="0"/>
        <pt x="1037" y="1759" on="1"/>
        <pt x="1020" y="1745" on="1"/>
        <pt x="693" y="1562" on="1"/>
      </contour>
      <contour>
        <pt x="-70" y="0" on="1"/>
        <pt x="53" y="24" on="0"/>
        <pt x="117" y="140" on="1"/>
        <pt x="120" y="148" on="1"/>
        <pt x="655" y="1551" on="1"/>
        <pt x="1200" y="148" on="1"/>
        <pt x="1201" y="145" on="1"/>
        <pt x="1204" y="136" on="1"/>
        <pt x="1268" y="24" on="0"/>
        <pt x="1390" y="0" on="1"/>
        <pt x="812" y="0" on="1"/>
        <pt x="1003" y="56" on="0"/>
        <pt x="1003" y="124" on="1"/>
        <pt x="1003" y="131" on="0"/>
        <pt x="1001" y="139" on="1"/>
        <pt x="998" y="148" on="1"/>
        <pt x="845" y="540" on="1"/>
        <pt x="384" y="540" on="1"/>
        <pt x="237" y="148" on="1"/>
        <pt x="234" y="138" on="1"/>
        <pt x="232" y="132" on="0"/>
        <pt x="232" y="125" on="1"/>
        <pt x="232" y="64" on="0"/>
        <pt x="423" y="0" on="1"/>
      </contour>
      <contour>
        <pt x="422" y="642" on="1"/>
        <pt x="806" y="642" on="1"/>
        <pt x="612" y="1170" on="1"/>
      </contour>
    </TTGlyph>
    <TTGlyph name="Abreve" xMin="-70" yMin="0" xMax="1390" yMax="1950">
      <contour>
        <pt x="328" y="1833" on="1"/>
        <pt x="442" y="1950" on="1"/>
        <pt x="476" y="1921" on="0"/>
        <pt x="482" y="1915" on="1"/>
        <pt x="561" y="1854" on="0"/>
        <pt x="673" y="1854" on="1"/>
        <pt x="765" y="1854" on="0"/>
        <pt x="832" y="1914" on="1"/>
        <pt x="865" y="1947" on="1"/>
        <pt x="998" y="1845" on="1"/>
        <pt x="941" y="1785" on="0"/>
        <pt x="871" y="1743" on="1"/>
        <pt x="771" y="1683" on="0"/>
        <pt x="545" y="1683" on="0"/>
        <pt x="441" y="1746" on="1"/>
        <pt x="373" y="1787" on="0"/>
      </contour>
      <contour>
        <pt x="-70" y="0" on="1"/>
        <pt x="53" y="24" on="0"/>
        <pt x="117" y="140" on="1"/>
        <pt x="120" y="148" on="1"/>
        <pt x="655" y="1551" on="1"/>
        <pt x="1200" y="148" on="1"/>
        <pt x="1201" y="145" on="1"/>
        <pt x="1204" y="136" on="1"/>
        <pt x="1268" y="24" on="0"/>
        <pt x="1390" y="0" on="1"/>
        <pt x="812" y="0" on="1"/>
        <pt x="1003" y="56" on="0"/>
        <pt x="1003" y="124" on="1"/>
        <pt x="1003" y="131" on="0"/>
        <pt x="1001" y="139" on="1"/>
        <pt x="998" y="148" on="1"/>
        <pt x="845" y="540" on="1"/>
        <pt x="384" y="540" on="1"/>
        <pt x="237" y="148" on="1"/>
        <pt x="234" y="138" on="1"/>
        <pt x="232" y="132" on="0"/>
        <pt x="232" y="125" on="1"/>
        <pt x="232" y="64" on="0"/>
        <pt x="423" y="0" on="1"/>
      </contour>
      <contour>
        <pt x="422" y="642" on="1"/>
        <pt x="806" y="642" on="1"/>
        <pt x="612" y="1170" on="1"/>
      </contour>
    </TTGlyph>
    <TTGlyph name="Acircumflex" xMin="-70" yMin="0" xMax="1390" yMax="1950">
      <contour>
        <pt x="367" y="1583" on="1"/>
        <pt x="555" y="1893" on="1"/>
        <pt x="557" y="1896" on="0"/>
        <pt x="569" y="1910" on="1"/>
        <pt x="587" y="1933" on="0"/>
        <pt x="619" y="1943" on="1"/>
        <pt x="641" y="1950" on="0"/>
        <pt x="657" y="1950" on="1"/>
        <pt x="660" y="1950" on="1"/>
        <pt x="662" y="1950" on="1"/>
        <pt x="676" y="1950" on="0"/>
        <pt x="700" y="1943" on="1"/>
        <pt x="727" y="1935" on="0"/>
        <pt x="750" y="1910" on="1"/>
        <pt x="761" y="1898" on="0"/>
        <pt x="764" y="1893" on="1"/>
        <pt x="952" y="1583" on="1"/>
        <pt x="932" y="1562" on="1"/>
        <pt x="662" y="1742" on="1"/>
        <pt x="387" y="1562" on="1"/>
      </contour>
      <contour>
        <pt x="-70" y="0" on="1"/>
        <pt x="53" y="24" on="0"/>
        <pt x="117" y="140" on="1"/>
        <pt x="120" y="148" on="1"/>
        <pt x="655" y="1551" on="1"/>
        <pt x="1200" y="148" on="1"/>
        <pt x="1201" y="145" on="1"/>
        <pt x="1204" y="136" on="1"/>
        <pt x="1268" y="24" on="0"/>
        <pt x="1390" y="0" on="1"/>
        <pt x="812" y="0" on="1"/>
        <pt x="1003" y="56" on="0"/>
        <pt x="1003" y="124" on="1"/>
        <pt x="1003" y="131" on="0"/>
        <pt x="1001" y="139" on="1"/>
        <pt x="998" y="148" on="1"/>
        <pt x="845" y="540" on="1"/>
        <pt x="384" y="540" on="1"/>
        <pt x="237" y="148" on="1"/>
        <pt x="234" y="138" on="1"/>
        <pt x="232" y="132" on="0"/>
        <pt x="232" y="125" on="1"/>
        <pt x="232" y="64" on="0"/>
        <pt x="423" y="0" on="1"/>
      </contour>
      <contour>
        <pt x="422" y="642" on="1"/>
        <pt x="806" y="642" on="1"/>
        <pt x="612" y="1170" on="1"/>
      </contour>
    </TTGlyph>
    <TTGlyph name="Adieresis" xMin="-70" yMin="0" xMax="1390" yMax="1936">
      <contour>
        <pt x="688" y="1749" on="0"/>
        <pt x="688" y="1859" on="0"/>
        <pt x="764" y="1936" on="0"/>
        <pt x="872" y="1936" on="0"/>
        <pt x="948" y="1859" on="0"/>
        <pt x="948" y="1749" on="0"/>
        <pt x="872" y="1672" on="0"/>
        <pt x="764" y="1672" on="0"/>
      </contour>
      <contour>
        <pt x="351" y="1749" on="0"/>
        <pt x="351" y="1859" on="0"/>
        <pt x="427" y="1936" on="0"/>
        <pt x="535" y="1936" on="0"/>
        <pt x="611" y="1859" on="0"/>
        <pt x="611" y="1749" on="0"/>
        <pt x="535" y="1672" on="0"/>
        <pt x="427" y="1672" on="0"/>
      </contour>
      <contour>
        <pt x="-70" y="0" on="1"/>
        <pt x="53" y="24" on="0"/>
        <pt x="117" y="140" on="1"/>
        <pt x="120" y="148" on="1"/>
        <pt x="655" y="1551" on="1"/>
        <pt x="1200" y="148" on="1"/>
        <pt x="1201" y="145" on="1"/>
        <pt x="1204" y="136" on="1"/>
        <pt x="1268" y="24" on="0"/>
        <pt x="1390" y="0" on="1"/>
        <pt x="812" y="0" on="1"/>
        <pt x="1003" y="56" on="0"/>
        <pt x="1003" y="124" on="1"/>
        <pt x="1003" y="131" on="0"/>
        <pt x="1001" y="139" on="1"/>
        <pt x="998" y="148" on="1"/>
        <pt x="845" y="540" on="1"/>
        <pt x="384" y="540" on="1"/>
        <pt x="237" y="148" on="1"/>
        <pt x="234" y="138" on="1"/>
        <pt x="232" y="132" on="0"/>
        <pt x="232" y="125" on="1"/>
        <pt x="232" y="64" on="0"/>
        <pt x="423" y="0" on="1"/>
      </contour>
      <contour>
        <pt x="422" y="642" on="1"/>
        <pt x="806" y="642" on="1"/>
        <pt x="612" y="1170" on="1"/>
      </contour>
    </TTGlyph>
    <TTGlyph name="Agrave" xMin="-70" yMin="0" xMax="1390" yMax="1950">
      <contour>
        <pt x="611" y="1583" on="1"/>
        <pt x="591" y="1562" on="1"/>
        <pt x="264" y="1745" on="1"/>
        <pt x="247" y="1759" on="1"/>
        <pt x="216" y="1782" on="0"/>
        <pt x="212" y="1827" on="1"/>
        <pt x="211" y="1837" on="0"/>
        <pt x="211" y="1845" on="1"/>
        <pt x="211" y="1889" on="0"/>
        <pt x="240" y="1918" on="1"/>
        <pt x="272" y="1950" on="0"/>
        <pt x="316" y="1950" on="1"/>
        <pt x="330" y="1950" on="0"/>
        <pt x="345" y="1947" on="1"/>
        <pt x="383" y="1939" on="0"/>
        <pt x="409" y="1910" on="1"/>
        <pt x="420" y="1898" on="0"/>
        <pt x="423" y="1893" on="1"/>
      </contour>
      <contour>
        <pt x="-70" y="0" on="1"/>
        <pt x="53" y="24" on="0"/>
        <pt x="117" y="140" on="1"/>
        <pt x="120" y="148" on="1"/>
        <pt x="655" y="1551" on="1"/>
        <pt x="1200" y="148" on="1"/>
        <pt x="1201" y="145" on="1"/>
        <pt x="1204" y="136" on="1"/>
        <pt x="1268" y="24" on="0"/>
        <pt x="1390" y="0" on="1"/>
        <pt x="812" y="0" on="1"/>
        <pt x="1003" y="56" on="0"/>
        <pt x="1003" y="124" on="1"/>
        <pt x="1003" y="131" on="0"/>
        <pt x="1001" y="139" on="1"/>
        <pt x="998" y="148" on="1"/>
        <pt x="845" y="540" on="1"/>
        <pt x="384" y="540" on="1"/>
        <pt x="237" y="148" on="1"/>
        <pt x="234" y="138" on="1"/>
        <pt x="232" y="132" on="0"/>
        <pt x="232" y="125" on="1"/>
        <pt x="232" y="64" on="0"/>
        <pt x="423" y="0" on="1"/>
      </contour>
      <contour>
        <pt x="422" y="642" on="1"/>
        <pt x="806" y="642" on="1"/>
        <pt x="612" y="1170" on="1"/>
      </contour>
    </TTGlyph>
    <TTGlyph name="Amacron" xMin="-70" yMin="0" xMax="1390" yMax="1950">
      <contour>
        <pt x="351" y="1950" on="1"/>
        <pt x="934" y="1950" on="1"/>
        <pt x="934" y="1773" on="1"/>
        <pt x="351" y="1773" on="1"/>
      </contour>
      <contour>
        <pt x="-70" y="0" on="1"/>
        <pt x="53" y="24" on="0"/>
        <pt x="117" y="140" on="1"/>
        <pt x="120" y="148" on="1"/>
        <pt x="655" y="1551" on="1"/>
        <pt x="1200" y="148" on="1"/>
        <pt x="1201" y="145" on="1"/>
        <pt x="1204" y="136" on="1"/>
        <pt x="1268" y="24" on="0"/>
        <pt x="1390" y="0" on="1"/>
        <pt x="812" y="0" on="1"/>
        <pt x="1003" y="56" on="0"/>
        <pt x="1003" y="124" on="1"/>
        <pt x="1003" y="131" on="0"/>
        <pt x="1001" y="139" on="1"/>
        <pt x="998" y="148" on="1"/>
        <pt x="845" y="540" on="1"/>
        <pt x="384" y="540" on="1"/>
        <pt x="237" y="148" on="1"/>
        <pt x="234" y="138" on="1"/>
        <pt x="232" y="132" on="0"/>
        <pt x="232" y="125" on="1"/>
        <pt x="232" y="64" on="0"/>
        <pt x="423" y="0" on="1"/>
      </contour>
      <contour>
        <pt x="422" y="642" on="1"/>
        <pt x="806" y="642" on="1"/>
        <pt x="612" y="1170" on="1"/>
      </contour>
    </TTGlyph>
    <TTGlyph name="Aogonek" xMin="-70" yMin="-433" xMax="1390" yMax="1551">
      <contour>
        <pt x="422" y="642" on="1"/>
        <pt x="806" y="642" on="1"/>
        <pt x="612" y="1170" on="1"/>
      </contour>
      <contour>
        <pt x="-70" y="0" on="1"/>
        <pt x="53" y="24" on="0"/>
        <pt x="117" y="140" on="1"/>
        <pt x="120" y="148" on="1"/>
        <pt x="655" y="1551" on="1"/>
        <pt x="1200" y="148" on="1"/>
        <pt x="1201" y="145" on="1"/>
        <pt x="1204" y="136" on="1"/>
        <pt x="1268" y="24" on="0"/>
        <pt x="1390" y="0" on="1"/>
        <pt x="1126" y="0" on="1"/>
        <pt x="1115" y="-23" on="0"/>
        <pt x="1107" y="-51" on="1"/>
        <pt x="1094" y="-96" on="0"/>
        <pt x="1094" y="-137" on="1"/>
        <pt x="1094" y="-150" on="1"/>
        <pt x="1095" y="-176" on="1"/>
        <pt x="1122" y="-167" on="0"/>
        <pt x="1146" y="-167" on="1"/>
        <pt x="1179" y="-167" on="0"/>
        <pt x="1206" y="-183" on="1"/>
        <pt x="1254" y="-212" on="0"/>
        <pt x="1270" y="-268" on="1"/>
        <pt x="1275" y="-286" on="0"/>
        <pt x="1275" y="-304" on="1"/>
        <pt x="1275" y="-337" on="0"/>
        <pt x="1258" y="-368" on="1"/>
        <pt x="1232" y="-416" on="0"/>
        <pt x="1179" y="-429" on="1"/>
        <pt x="1163" y="-433" on="0"/>
        <pt x="1146" y="-433" on="1"/>
        <pt x="1115" y="-433" on="0"/>
        <pt x="1081" y="-418" on="1"/>
        <pt x="1029" y="-395" on="0"/>
        <pt x="1004" y="-333" on="1"/>
        <pt x="995" y="-311" on="0"/>
        <pt x="989" y="-290" on="1"/>
        <pt x="978" y="-252" on="0"/>
        <pt x="978" y="-219" on="1"/>
        <pt x="978" y="-166" on="0"/>
        <pt x="986" y="-129" on="1"/>
        <pt x="1003" y="-51" on="0"/>
        <pt x="1034" y="0" on="1"/>
        <pt x="812" y="0" on="1"/>
        <pt x="1003" y="56" on="0"/>
        <pt x="1003" y="124" on="1"/>
        <pt x="1003" y="131" on="0"/>
        <pt x="1001" y="139" on="1"/>
        <pt x="998" y="148" on="1"/>
        <pt x="845" y="540" on="1"/>
        <pt x="384" y="540" on="1"/>
        <pt x="237" y="148" on="1"/>
        <pt x="234" y="138" on="1"/>
        <pt x="232" y="132" on="0"/>
        <pt x="232" y="125" on="1"/>
        <pt x="232" y="64" on="0"/>
        <pt x="423" y="0" on="1"/>
      </contour>
    </TTGlyph>
    <TTGlyph name="Aring" xMin="-70" yMin="0" xMax="1390" yMax="1950">
      <contour>
        <pt x="594" y="1752" on="1"/>
        <pt x="594" y="1699" on="0"/>
        <pt x="626" y="1639" on="0"/>
        <pt x="655" y="1639" on="1"/>
        <pt x="674" y="1639" on="0"/>
        <pt x="692" y="1667" on="1"/>
        <pt x="712" y="1699" on="0"/>
        <pt x="712" y="1762" on="1"/>
        <pt x="712" y="1821" on="0"/>
        <pt x="692" y="1850" on="1"/>
        <pt x="674" y="1876" on="0"/>
        <pt x="652" y="1876" on="1"/>
        <pt x="629" y="1876" on="0"/>
        <pt x="594" y="1825" on="0"/>
      </contour>
      <contour>
        <pt x="487" y="1765" on="1"/>
        <pt x="487" y="1810" on="0"/>
        <pt x="510" y="1856" on="1"/>
        <pt x="531" y="1899" on="0"/>
        <pt x="569" y="1924" on="1"/>
        <pt x="607" y="1950" on="0"/>
        <pt x="654" y="1950" on="1"/>
        <pt x="702" y="1950" on="0"/>
        <pt x="739" y="1925" on="1"/>
        <pt x="775" y="1901" on="0"/>
        <pt x="798" y="1856" on="1"/>
        <pt x="820" y="1813" on="0"/>
        <pt x="821" y="1758" on="1"/>
        <pt x="820" y="1712" on="0"/>
        <pt x="798" y="1669" on="1"/>
        <pt x="775" y="1624" on="0"/>
        <pt x="739" y="1600" on="1"/>
        <pt x="702" y="1575" on="0"/>
        <pt x="654" y="1575" on="1"/>
        <pt x="611" y="1575" on="0"/>
        <pt x="569" y="1600" on="1"/>
        <pt x="523" y="1628" on="0"/>
        <pt x="506" y="1668" on="1"/>
        <pt x="487" y="1713" on="0"/>
        <pt x="487" y="1748" on="1"/>
        <pt x="487" y="1749" on="0"/>
        <pt x="487" y="1751" on="1"/>
        <pt x="487" y="1751" on="0"/>
      </contour>
      <contour>
        <pt x="-70" y="0" on="1"/>
        <pt x="53" y="24" on="0"/>
        <pt x="117" y="140" on="1"/>
        <pt x="120" y="148" on="1"/>
        <pt x="655" y="1551" on="1"/>
        <pt x="1200" y="148" on="1"/>
        <pt x="1201" y="145" on="1"/>
        <pt x="1204" y="136" on="1"/>
        <pt x="1268" y="24" on="0"/>
        <pt x="1390" y="0" on="1"/>
        <pt x="812" y="0" on="1"/>
        <pt x="1003" y="56" on="0"/>
        <pt x="1003" y="124" on="1"/>
        <pt x="1003" y="131" on="0"/>
        <pt x="1001" y="139" on="1"/>
        <pt x="998" y="148" on="1"/>
        <pt x="845" y="540" on="1"/>
        <pt x="384" y="540" on="1"/>
        <pt x="237" y="148" on="1"/>
        <pt x="234" y="138" on="1"/>
        <pt x="232" y="132" on="0"/>
        <pt x="232" y="125" on="1"/>
        <pt x="232" y="64" on="0"/>
        <pt x="423" y="0" on="1"/>
      </contour>
      <contour>
        <pt x="422" y="642" on="1"/>
        <pt x="806" y="642" on="1"/>
        <pt x="612" y="1170" on="1"/>
      </contour>
    </TTGlyph>
    <TTGlyph name="Atilde" xMin="-70" yMin="0" xMax="1390" yMax="1950">
      <contour>
        <pt x="391" y="1700" on="1"/>
        <pt x="450" y="1950" on="0"/>
        <pt x="576" y="1950" on="1"/>
        <pt x="589" y="1950" on="0"/>
        <pt x="606" y="1946" on="1"/>
        <pt x="644" y="1937" on="0"/>
        <pt x="736" y="1875" on="1"/>
        <pt x="823" y="1814" on="1"/>
        <pt x="849" y="1792" on="0"/>
        <pt x="881" y="1792" on="1"/>
        <pt x="883" y="1792" on="0"/>
        <pt x="884" y="1792" on="1"/>
        <pt x="945" y="1792" on="0"/>
        <pt x="1029" y="1902" on="1"/>
        <pt x="975" y="1645" on="0"/>
        <pt x="847" y="1633" on="1"/>
        <pt x="835" y="1632" on="0"/>
        <pt x="823" y="1635" on="1"/>
        <pt x="783" y="1645" on="0"/>
        <pt x="692" y="1709" on="1"/>
        <pt x="606" y="1767" on="1"/>
        <pt x="578" y="1787" on="0"/>
        <pt x="544" y="1788" on="1"/>
        <pt x="543" y="1788" on="1"/>
        <pt x="479" y="1788" on="0"/>
      </contour>
      <contour>
        <pt x="-70" y="0" on="1"/>
        <pt x="53" y="24" on="0"/>
        <pt x="117" y="140" on="1"/>
        <pt x="120" y="148" on="1"/>
        <pt x="655" y="1551" on="1"/>
        <pt x="1200" y="148" on="1"/>
        <pt x="1201" y="145" on="1"/>
        <pt x="1204" y="136" on="1"/>
        <pt x="1268" y="24" on="0"/>
        <pt x="1390" y="0" on="1"/>
        <pt x="812" y="0" on="1"/>
        <pt x="1003" y="56" on="0"/>
        <pt x="1003" y="124" on="1"/>
        <pt x="1003" y="131" on="0"/>
        <pt x="1001" y="139" on="1"/>
        <pt x="998" y="148" on="1"/>
        <pt x="845" y="540" on="1"/>
        <pt x="384" y="540" on="1"/>
        <pt x="237" y="148" on="1"/>
        <pt x="234" y="138" on="1"/>
        <pt x="232" y="132" on="0"/>
        <pt x="232" y="125" on="1"/>
        <pt x="232" y="64" on="0"/>
        <pt x="423" y="0" on="1"/>
      </contour>
      <contour>
        <pt x="422" y="642" on="1"/>
        <pt x="806" y="642" on="1"/>
        <pt x="612" y="1170" on="1"/>
      </contour>
    </TTGlyph>
    <TTGlyph name="B" xMin="60" yMin="-25" xMax="1384" yMax="1536">
      <contour>
        <pt x="549" y="1419" on="1"/>
        <pt x="499" y="1401" on="0"/>
        <pt x="476" y="1373" on="1"/>
        <pt x="450" y="1341" on="0"/>
        <pt x="448" y="1281" on="1"/>
        <pt x="448" y="230" on="1"/>
        <pt x="448" y="186" on="0"/>
        <pt x="462" y="163" on="1"/>
        <pt x="481" y="132" on="0"/>
        <pt x="510" y="115" on="1"/>
        <pt x="585" y="77" on="0"/>
        <pt x="685" y="77" on="1"/>
        <pt x="701" y="77" on="0"/>
        <pt x="717" y="78" on="1"/>
        <pt x="926" y="91" on="0"/>
        <pt x="1006" y="158" on="1"/>
        <pt x="1087" y="213" on="0"/>
        <pt x="1132" y="302" on="1"/>
        <pt x="1163" y="363" on="0"/>
        <pt x="1163" y="461" on="1"/>
        <pt x="1163" y="480" on="0"/>
        <pt x="1162" y="500" on="1"/>
        <pt x="1155" y="640" on="0"/>
        <pt x="990" y="710" on="1"/>
        <pt x="896" y="750" on="0"/>
        <pt x="782" y="788" on="1"/>
        <pt x="629" y="839" on="0"/>
        <pt x="612" y="846" on="1"/>
        <pt x="783" y="901" on="0"/>
        <pt x="803" y="908" on="1"/>
        <pt x="864" y="930" on="0"/>
        <pt x="910" y="956" on="1"/>
        <pt x="950" y="978" on="0"/>
        <pt x="974" y="1002" on="1"/>
        <pt x="1028" y="1058" on="0"/>
        <pt x="1028" y="1156" on="1"/>
        <pt x="1028" y="1160" on="0"/>
        <pt x="1028" y="1166" on="1"/>
        <pt x="1028" y="1287" on="0"/>
        <pt x="924" y="1368" on="1"/>
        <pt x="858" y="1419" on="0"/>
        <pt x="714" y="1440" on="1"/>
        <pt x="700" y="1442" on="0"/>
        <pt x="674" y="1442" on="1"/>
        <pt x="623" y="1441" on="0"/>
      </contour>
      <contour>
        <pt x="60" y="148" on="1"/>
        <pt x="77" y="149" on="0"/>
        <pt x="176" y="170" on="1"/>
        <pt x="217" y="179" on="0"/>
        <pt x="237" y="195" on="1"/>
        <pt x="250" y="205" on="0"/>
        <pt x="250" y="230" on="1"/>
        <pt x="250" y="1281" on="1"/>
        <pt x="250" y="1304" on="0"/>
        <pt x="234" y="1319" on="1"/>
        <pt x="212" y="1339" on="0"/>
        <pt x="182" y="1344" on="1"/>
        <pt x="92" y="1359" on="0"/>
        <pt x="60" y="1363" on="1"/>
        <pt x="404" y="1494" on="1"/>
        <pt x="514" y="1536" on="0"/>
        <pt x="710" y="1536" on="1"/>
        <pt x="845" y="1536" on="0"/>
        <pt x="956" y="1492" on="1"/>
        <pt x="1070" y="1447" on="0"/>
        <pt x="1134" y="1382" on="1"/>
        <pt x="1218" y="1297" on="0"/>
        <pt x="1230" y="1179" on="1"/>
        <pt x="1231" y="1169" on="0"/>
        <pt x="1231" y="1159" on="1"/>
        <pt x="1231" y="1107" on="0"/>
        <pt x="1208" y="1056" on="1"/>
        <pt x="1181" y="996" on="0"/>
        <pt x="1121" y="952" on="1"/>
        <pt x="1088" y="928" on="0"/>
        <pt x="997" y="894" on="1"/>
        <pt x="989" y="891" on="0"/>
        <pt x="820" y="846" on="1"/>
        <pt x="919" y="838" on="0"/>
        <pt x="975" y="831" on="1"/>
        <pt x="1122" y="812" on="0"/>
        <pt x="1186" y="782" on="1"/>
        <pt x="1338" y="711" on="0"/>
        <pt x="1373" y="554" on="1"/>
        <pt x="1384" y="505" on="0"/>
        <pt x="1384" y="457" on="1"/>
        <pt x="1384" y="376" on="0"/>
        <pt x="1354" y="294" on="1"/>
        <pt x="1311" y="176" on="0"/>
        <pt x="1188" y="94" on="1"/>
        <pt x="1128" y="54" on="0"/>
        <pt x="972" y="8" on="1"/>
        <pt x="859" y="-25" on="0"/>
        <pt x="710" y="-25" on="1"/>
        <pt x="697" y="-25" on="0"/>
        <pt x="661" y="-24" on="1"/>
        <pt x="514" y="-18" on="0"/>
        <pt x="380" y="32" on="1"/>
        <pt x="130" y="125" on="0"/>
      </contour>
    </TTGlyph>
    <TTGlyph name="C" xMin="130" yMin="-25" xMax="1266" yMax="1537">
      <contour>
        <pt x="130" y="580" on="0"/>
        <pt x="130" y="908" on="0"/>
        <pt x="174" y="1060" on="1"/>
        <pt x="219" y="1216" on="0"/>
        <pt x="294" y="1314" on="1"/>
        <pt x="372" y="1417" on="0"/>
        <pt x="474" y="1476" on="1"/>
        <pt x="577" y="1536" on="0"/>
        <pt x="682" y="1536" on="1"/>
        <pt x="687" y="1536" on="0"/>
        <pt x="692" y="1536" on="1"/>
        <pt x="808" y="1536" on="0"/>
        <pt x="907" y="1484" on="1"/>
        <pt x="975" y="1448" on="0"/>
        <pt x="1015" y="1411" on="1"/>
        <pt x="1023" y="1410" on="1"/>
        <pt x="1123" y="1418" on="0"/>
        <pt x="1155" y="1537" on="1"/>
        <pt x="1155" y="959" on="1"/>
        <pt x="1103" y="1163" on="0"/>
        <pt x="1033" y="1279" on="1"/>
        <pt x="999" y="1332" on="0"/>
        <pt x="946" y="1371" on="1"/>
        <pt x="864" y="1431" on="0"/>
        <pt x="752" y="1431" on="1"/>
        <pt x="623" y="1431" on="0"/>
        <pt x="514" y="1345" on="1"/>
        <pt x="435" y="1254" on="0"/>
        <pt x="388" y="1084" on="1"/>
        <pt x="342" y="917" on="0"/>
        <pt x="342" y="759" on="1"/>
        <pt x="342" y="753" on="0"/>
        <pt x="342" y="746" on="1"/>
        <pt x="342" y="590" on="0"/>
        <pt x="374" y="462" on="1"/>
        <pt x="448" y="242" on="0"/>
        <pt x="552" y="156" on="1"/>
        <pt x="637" y="86" on="0"/>
        <pt x="771" y="86" on="1"/>
        <pt x="794" y="86" on="0"/>
        <pt x="818" y="88" on="1"/>
        <pt x="892" y="94" on="0"/>
        <pt x="984" y="152" on="1"/>
        <pt x="1035" y="183" on="0"/>
        <pt x="1098" y="262" on="1"/>
        <pt x="1138" y="312" on="0"/>
        <pt x="1164" y="394" on="1"/>
        <pt x="1266" y="354" on="1"/>
        <pt x="1228" y="267" on="0"/>
        <pt x="1178" y="200" on="1"/>
        <pt x="1101" y="98" on="0"/>
        <pt x="998" y="39" on="1"/>
        <pt x="885" y="-25" on="0"/>
        <pt x="739" y="-25" on="1"/>
        <pt x="736" y="-25" on="0"/>
        <pt x="734" y="-25" on="1"/>
        <pt x="581" y="-25" on="0"/>
        <pt x="476" y="35" on="1"/>
        <pt x="370" y="96" on="0"/>
        <pt x="294" y="197" on="1"/>
        <pt x="219" y="297" on="0"/>
        <pt x="174" y="440" on="1"/>
      </contour>
    </TTGlyph>
    <TTGlyph name="Cacute" xMin="130" yMin="-25" xMax="1266" yMax="1950">
      <contour>
        <pt x="673" y="1583" on="1"/>
        <pt x="861" y="1893" on="1"/>
        <pt x="864" y="1898" on="0"/>
        <pt x="875" y="1910" on="1"/>
        <pt x="901" y="1939" on="0"/>
        <pt x="939" y="1947" on="1"/>
        <pt x="954" y="1950" on="0"/>
        <pt x="968" y="1950" on="1"/>
        <pt x="1012" y="1950" on="0"/>
        <pt x="1044" y="1918" on="1"/>
        <pt x="1073" y="1889" on="0"/>
        <pt x="1073" y="1845" on="1"/>
        <pt x="1073" y="1837" on="0"/>
        <pt x="1072" y="1827" on="1"/>
        <pt x="1068" y="1782" on="0"/>
        <pt x="1037" y="1759" on="1"/>
        <pt x="1020" y="1745" on="1"/>
        <pt x="693" y="1562" on="1"/>
      </contour>
      <contour>
        <pt x="130" y="580" on="0"/>
        <pt x="130" y="908" on="0"/>
        <pt x="174" y="1060" on="1"/>
        <pt x="219" y="1216" on="0"/>
        <pt x="294" y="1314" on="1"/>
        <pt x="372" y="1417" on="0"/>
        <pt x="474" y="1476" on="1"/>
        <pt x="577" y="1536" on="0"/>
        <pt x="682" y="1536" on="1"/>
        <pt x="687" y="1536" on="0"/>
        <pt x="692" y="1536" on="1"/>
        <pt x="808" y="1536" on="0"/>
        <pt x="907" y="1484" on="1"/>
        <pt x="975" y="1448" on="0"/>
        <pt x="1015" y="1411" on="1"/>
        <pt x="1023" y="1410" on="1"/>
        <pt x="1123" y="1418" on="0"/>
        <pt x="1155" y="1537" on="1"/>
        <pt x="1155" y="959" on="1"/>
        <pt x="1103" y="1163" on="0"/>
        <pt x="1033" y="1279" on="1"/>
        <pt x="999" y="1332" on="0"/>
        <pt x="946" y="1371" on="1"/>
        <pt x="864" y="1431" on="0"/>
        <pt x="752" y="1431" on="1"/>
        <pt x="623" y="1431" on="0"/>
        <pt x="514" y="1345" on="1"/>
        <pt x="435" y="1254" on="0"/>
        <pt x="388" y="1084" on="1"/>
        <pt x="342" y="917" on="0"/>
        <pt x="342" y="759" on="1"/>
        <pt x="342" y="753" on="0"/>
        <pt x="342" y="746" on="1"/>
        <pt x="342" y="590" on="0"/>
        <pt x="374" y="462" on="1"/>
        <pt x="448" y="242" on="0"/>
        <pt x="552" y="156" on="1"/>
        <pt x="637" y="86" on="0"/>
        <pt x="771" y="86" on="1"/>
        <pt x="794" y="86" on="0"/>
        <pt x="818" y="88" on="1"/>
        <pt x="892" y="94" on="0"/>
        <pt x="984" y="152" on="1"/>
        <pt x="1035" y="183" on="0"/>
        <pt x="1098" y="262" on="1"/>
        <pt x="1138" y="312" on="0"/>
        <pt x="1164" y="394" on="1"/>
        <pt x="1266" y="354" on="1"/>
        <pt x="1228" y="267" on="0"/>
        <pt x="1178" y="200" on="1"/>
        <pt x="1101" y="98" on="0"/>
        <pt x="998" y="39" on="1"/>
        <pt x="885" y="-25" on="0"/>
        <pt x="739" y="-25" on="1"/>
        <pt x="736" y="-25" on="0"/>
        <pt x="734" y="-25" on="1"/>
        <pt x="581" y="-25" on="0"/>
        <pt x="476" y="35" on="1"/>
        <pt x="370" y="96" on="0"/>
        <pt x="294" y="197" on="1"/>
        <pt x="219" y="297" on="0"/>
        <pt x="174" y="440" on="1"/>
      </contour>
    </TTGlyph>
    <TTGlyph name="Ccaron" xMin="130" yMin="-25" xMax="1266" yMax="1950">
      <contour>
        <pt x="397" y="1929" on="1"/>
        <pt x="417" y="1950" on="1"/>
        <pt x="692" y="1770" on="1"/>
        <pt x="962" y="1950" on="1"/>
        <pt x="982" y="1929" on="1"/>
        <pt x="794" y="1619" on="1"/>
        <pt x="791" y="1614" on="0"/>
        <pt x="780" y="1602" on="1"/>
        <pt x="757" y="1577" on="0"/>
        <pt x="730" y="1569" on="1"/>
        <pt x="706" y="1562" on="0"/>
        <pt x="692" y="1562" on="1"/>
        <pt x="690" y="1562" on="1"/>
        <pt x="687" y="1562" on="1"/>
        <pt x="671" y="1562" on="0"/>
        <pt x="649" y="1569" on="1"/>
        <pt x="617" y="1579" on="0"/>
        <pt x="599" y="1602" on="1"/>
        <pt x="587" y="1616" on="0"/>
        <pt x="585" y="1619" on="1"/>
      </contour>
      <contour>
        <pt x="130" y="580" on="0"/>
        <pt x="130" y="908" on="0"/>
        <pt x="174" y="1060" on="1"/>
        <pt x="219" y="1216" on="0"/>
        <pt x="294" y="1314" on="1"/>
        <pt x="372" y="1417" on="0"/>
        <pt x="474" y="1476" on="1"/>
        <pt x="577" y="1536" on="0"/>
        <pt x="682" y="1536" on="1"/>
        <pt x="687" y="1536" on="0"/>
        <pt x="692" y="1536" on="1"/>
        <pt x="808" y="1536" on="0"/>
        <pt x="907" y="1484" on="1"/>
        <pt x="975" y="1448" on="0"/>
        <pt x="1015" y="1411" on="1"/>
        <pt x="1023" y="1410" on="1"/>
        <pt x="1123" y="1418" on="0"/>
        <pt x="1155" y="1537" on="1"/>
        <pt x="1155" y="959" on="1"/>
        <pt x="1103" y="1163" on="0"/>
        <pt x="1033" y="1279" on="1"/>
        <pt x="999" y="1332" on="0"/>
        <pt x="946" y="1371" on="1"/>
        <pt x="864" y="1431" on="0"/>
        <pt x="752" y="1431" on="1"/>
        <pt x="623" y="1431" on="0"/>
        <pt x="514" y="1345" on="1"/>
        <pt x="435" y="1254" on="0"/>
        <pt x="388" y="1084" on="1"/>
        <pt x="342" y="917" on="0"/>
        <pt x="342" y="759" on="1"/>
        <pt x="342" y="753" on="0"/>
        <pt x="342" y="746" on="1"/>
        <pt x="342" y="590" on="0"/>
        <pt x="374" y="462" on="1"/>
        <pt x="448" y="242" on="0"/>
        <pt x="552" y="156" on="1"/>
        <pt x="637" y="86" on="0"/>
        <pt x="771" y="86" on="1"/>
        <pt x="794" y="86" on="0"/>
        <pt x="818" y="88" on="1"/>
        <pt x="892" y="94" on="0"/>
        <pt x="984" y="152" on="1"/>
        <pt x="1035" y="183" on="0"/>
        <pt x="1098" y="262" on="1"/>
        <pt x="1138" y="312" on="0"/>
        <pt x="1164" y="394" on="1"/>
        <pt x="1266" y="354" on="1"/>
        <pt x="1228" y="267" on="0"/>
        <pt x="1178" y="200" on="1"/>
        <pt x="1101" y="98" on="0"/>
        <pt x="998" y="39" on="1"/>
        <pt x="885" y="-25" on="0"/>
        <pt x="739" y="-25" on="1"/>
        <pt x="736" y="-25" on="0"/>
        <pt x="734" y="-25" on="1"/>
        <pt x="581" y="-25" on="0"/>
        <pt x="476" y="35" on="1"/>
        <pt x="370" y="96" on="0"/>
        <pt x="294" y="197" on="1"/>
        <pt x="219" y="297" on="0"/>
        <pt x="174" y="440" on="1"/>
      </contour>
    </TTGlyph>
    <TTGlyph name="Ccedilla" xMin="130" yMin="-433" xMax="1266" yMax="1537">
      <contour>
        <pt x="130" y="580" on="0"/>
        <pt x="130" y="908" on="0"/>
        <pt x="174" y="1060" on="1"/>
        <pt x="219" y="1215" on="0"/>
        <pt x="294" y="1314" on="1"/>
        <pt x="372" y="1417" on="0"/>
        <pt x="474" y="1476" on="1"/>
        <pt x="577" y="1536" on="0"/>
        <pt x="682" y="1536" on="1"/>
        <pt x="692" y="1536" on="1"/>
        <pt x="808" y="1536" on="0"/>
        <pt x="907" y="1484" on="1"/>
        <pt x="975" y="1448" on="0"/>
        <pt x="1015" y="1411" on="1"/>
        <pt x="1023" y="1410" on="1"/>
        <pt x="1123" y="1418" on="0"/>
        <pt x="1155" y="1537" on="1"/>
        <pt x="1155" y="959" on="1"/>
        <pt x="1103" y="1163" on="0"/>
        <pt x="1033" y="1279" on="1"/>
        <pt x="999" y="1332" on="0"/>
        <pt x="946" y="1371" on="1"/>
        <pt x="864" y="1431" on="0"/>
        <pt x="752" y="1431" on="1"/>
        <pt x="623" y="1431" on="0"/>
        <pt x="514" y="1345" on="1"/>
        <pt x="435" y="1254" on="0"/>
        <pt x="388" y="1084" on="1"/>
        <pt x="342" y="917" on="0"/>
        <pt x="342" y="759" on="1"/>
        <pt x="342" y="746" on="1"/>
        <pt x="342" y="590" on="0"/>
        <pt x="374" y="462" on="1"/>
        <pt x="448" y="242" on="0"/>
        <pt x="552" y="156" on="1"/>
        <pt x="637" y="86" on="0"/>
        <pt x="771" y="86" on="1"/>
        <pt x="794" y="86" on="0"/>
        <pt x="818" y="88" on="1"/>
        <pt x="892" y="94" on="0"/>
        <pt x="984" y="152" on="1"/>
        <pt x="1035" y="183" on="0"/>
        <pt x="1098" y="262" on="1"/>
        <pt x="1138" y="312" on="0"/>
        <pt x="1164" y="394" on="1"/>
        <pt x="1266" y="354" on="1"/>
        <pt x="1227" y="265" on="0"/>
        <pt x="1178" y="200" on="1"/>
        <pt x="1100" y="96" on="0"/>
        <pt x="998" y="39" on="1"/>
        <pt x="909" y="-11" on="0"/>
        <pt x="799" y="-22" on="1"/>
        <pt x="821" y="-67" on="0"/>
        <pt x="835" y="-129" on="1"/>
        <pt x="843" y="-164" on="0"/>
        <pt x="843" y="-219" on="1"/>
        <pt x="843" y="-252" on="0"/>
        <pt x="832" y="-290" on="1"/>
        <pt x="826" y="-311" on="0"/>
        <pt x="817" y="-333" on="1"/>
        <pt x="791" y="-395" on="0"/>
        <pt x="740" y="-418" on="1"/>
        <pt x="706" y="-433" on="0"/>
        <pt x="675" y="-433" on="1"/>
        <pt x="658" y="-433" on="0"/>
        <pt x="642" y="-429" on="1"/>
        <pt x="589" y="-416" on="0"/>
        <pt x="563" y="-368" on="1"/>
        <pt x="546" y="-337" on="0"/>
        <pt x="546" y="-304" on="1"/>
        <pt x="546" y="-286" on="0"/>
        <pt x="551" y="-268" on="1"/>
        <pt x="567" y="-212" on="0"/>
        <pt x="615" y="-183" on="1"/>
        <pt x="642" y="-167" on="0"/>
        <pt x="675" y="-167" on="1"/>
        <pt x="699" y="-167" on="0"/>
        <pt x="726" y="-176" on="1"/>
        <pt x="727" y="-150" on="1"/>
        <pt x="727" y="-137" on="1"/>
        <pt x="727" y="-96" on="0"/>
        <pt x="714" y="-51" on="1"/>
        <pt x="710" y="-37" on="0"/>
        <pt x="705" y="-24" on="1"/>
        <pt x="571" y="-19" on="0"/>
        <pt x="476" y="35" on="1"/>
        <pt x="371" y="95" on="0"/>
        <pt x="294" y="197" on="1"/>
        <pt x="219" y="297" on="0"/>
        <pt x="174" y="440" on="1"/>
      </contour>
    </TTGlyph>
    <TTGlyph name="Ccircumflex" xMin="130" yMin="-25" xMax="1266" yMax="1950">
      <contour>
        <pt x="407" y="1583" on="1"/>
        <pt x="595" y="1893" on="1"/>
        <pt x="597" y="1896" on="0"/>
        <pt x="609" y="1910" on="1"/>
        <pt x="627" y="1933" on="0"/>
        <pt x="659" y="1943" on="1"/>
        <pt x="681" y="1950" on="0"/>
        <pt x="697" y="1950" on="1"/>
        <pt x="700" y="1950" on="1"/>
        <pt x="702" y="1950" on="1"/>
        <pt x="716" y="1950" on="0"/>
        <pt x="740" y="1943" on="1"/>
        <pt x="767" y="1935" on="0"/>
        <pt x="790" y="1910" on="1"/>
        <pt x="801" y="1898" on="0"/>
        <pt x="804" y="1893" on="1"/>
        <pt x="992" y="1583" on="1"/>
        <pt x="972" y="1562" on="1"/>
        <pt x="702" y="1742" on="1"/>
        <pt x="427" y="1562" on="1"/>
      </contour>
      <contour>
        <pt x="130" y="580" on="0"/>
        <pt x="130" y="908" on="0"/>
        <pt x="174" y="1060" on="1"/>
        <pt x="219" y="1216" on="0"/>
        <pt x="294" y="1314" on="1"/>
        <pt x="372" y="1417" on="0"/>
        <pt x="474" y="1476" on="1"/>
        <pt x="577" y="1536" on="0"/>
        <pt x="682" y="1536" on="1"/>
        <pt x="687" y="1536" on="0"/>
        <pt x="692" y="1536" on="1"/>
        <pt x="808" y="1536" on="0"/>
        <pt x="907" y="1484" on="1"/>
        <pt x="975" y="1448" on="0"/>
        <pt x="1015" y="1411" on="1"/>
        <pt x="1023" y="1410" on="1"/>
        <pt x="1123" y="1418" on="0"/>
        <pt x="1155" y="1537" on="1"/>
        <pt x="1155" y="959" on="1"/>
        <pt x="1103" y="1163" on="0"/>
        <pt x="1033" y="1279" on="1"/>
        <pt x="999" y="1332" on="0"/>
        <pt x="946" y="1371" on="1"/>
        <pt x="864" y="1431" on="0"/>
        <pt x="752" y="1431" on="1"/>
        <pt x="623" y="1431" on="0"/>
        <pt x="514" y="1345" on="1"/>
        <pt x="435" y="1254" on="0"/>
        <pt x="388" y="1084" on="1"/>
        <pt x="342" y="917" on="0"/>
        <pt x="342" y="759" on="1"/>
        <pt x="342" y="753" on="0"/>
        <pt x="342" y="746" on="1"/>
        <pt x="342" y="590" on="0"/>
        <pt x="374" y="462" on="1"/>
        <pt x="448" y="242" on="0"/>
        <pt x="552" y="156" on="1"/>
        <pt x="637" y="86" on="0"/>
        <pt x="771" y="86" on="1"/>
        <pt x="794" y="86" on="0"/>
        <pt x="818" y="88" on="1"/>
        <pt x="892" y="94" on="0"/>
        <pt x="984" y="152" on="1"/>
        <pt x="1035" y="183" on="0"/>
        <pt x="1098" y="262" on="1"/>
        <pt x="1138" y="312" on="0"/>
        <pt x="1164" y="394" on="1"/>
        <pt x="1266" y="354" on="1"/>
        <pt x="1228" y="267" on="0"/>
        <pt x="1178" y="200" on="1"/>
        <pt x="1101" y="98" on="0"/>
        <pt x="998" y="39" on="1"/>
        <pt x="885" y="-25" on="0"/>
        <pt x="739" y="-25" on="1"/>
        <pt x="736" y="-25" on="0"/>
        <pt x="734" y="-25" on="1"/>
        <pt x="581" y="-25" on="0"/>
        <pt x="476" y="35" on="1"/>
        <pt x="370" y="96" on="0"/>
        <pt x="294" y="197" on="1"/>
        <pt x="219" y="297" on="0"/>
        <pt x="174" y="440" on="1"/>
      </contour>
    </TTGlyph>
    <TTGlyph name="Cdotaccent" xMin="130" yMin="-25" xMax="1266" yMax="1936">
      <contour>
        <pt x="560" y="1749" on="0"/>
        <pt x="560" y="1859" on="0"/>
        <pt x="636" y="1936" on="0"/>
        <pt x="744" y="1936" on="0"/>
        <pt x="820" y="1859" on="0"/>
        <pt x="820" y="1749" on="0"/>
        <pt x="744" y="1672" on="0"/>
        <pt x="636" y="1672" on="0"/>
      </contour>
      <contour>
        <pt x="130" y="580" on="0"/>
        <pt x="130" y="908" on="0"/>
        <pt x="174" y="1060" on="1"/>
        <pt x="219" y="1216" on="0"/>
        <pt x="294" y="1314" on="1"/>
        <pt x="372" y="1417" on="0"/>
        <pt x="474" y="1476" on="1"/>
        <pt x="577" y="1536" on="0"/>
        <pt x="682" y="1536" on="1"/>
        <pt x="687" y="1536" on="0"/>
        <pt x="692" y="1536" on="1"/>
        <pt x="808" y="1536" on="0"/>
        <pt x="907" y="1484" on="1"/>
        <pt x="975" y="1448" on="0"/>
        <pt x="1015" y="1411" on="1"/>
        <pt x="1023" y="1410" on="1"/>
        <pt x="1123" y="1418" on="0"/>
        <pt x="1155" y="1537" on="1"/>
        <pt x="1155" y="959" on="1"/>
        <pt x="1103" y="1163" on="0"/>
        <pt x="1033" y="1279" on="1"/>
        <pt x="999" y="1332" on="0"/>
        <pt x="946" y="1371" on="1"/>
        <pt x="864" y="1431" on="0"/>
        <pt x="752" y="1431" on="1"/>
        <pt x="623" y="1431" on="0"/>
        <pt x="514" y="1345" on="1"/>
        <pt x="435" y="1254" on="0"/>
        <pt x="388" y="1084" on="1"/>
        <pt x="342" y="917" on="0"/>
        <pt x="342" y="759" on="1"/>
        <pt x="342" y="753" on="0"/>
        <pt x="342" y="746" on="1"/>
        <pt x="342" y="590" on="0"/>
        <pt x="374" y="462" on="1"/>
        <pt x="448" y="242" on="0"/>
        <pt x="552" y="156" on="1"/>
        <pt x="637" y="86" on="0"/>
        <pt x="771" y="86" on="1"/>
        <pt x="794" y="86" on="0"/>
        <pt x="818" y="88" on="1"/>
        <pt x="892" y="94" on="0"/>
        <pt x="984" y="152" on="1"/>
        <pt x="1035" y="183" on="0"/>
        <pt x="1098" y="262" on="1"/>
        <pt x="1138" y="312" on="0"/>
        <pt x="1164" y="394" on="1"/>
        <pt x="1266" y="354" on="1"/>
        <pt x="1228" y="267" on="0"/>
        <pt x="1178" y="200" on="1"/>
        <pt x="1101" y="98" on="0"/>
        <pt x="998" y="39" on="1"/>
        <pt x="885" y="-25" on="0"/>
        <pt x="739" y="-25" on="1"/>
        <pt x="736" y="-25" on="0"/>
        <pt x="734" y="-25" on="1"/>
        <pt x="581" y="-25" on="0"/>
        <pt x="476" y="35" on="1"/>
        <pt x="370" y="96" on="0"/>
        <pt x="294" y="197" on="1"/>
        <pt x="219" y="297" on="0"/>
        <pt x="174" y="440" on="1"/>
      </contour>
    </TTGlyph>
    <TTGlyph name="D" xMin="60" yMin="-25" xMax="1374" yMax="1536">
      <contour>
        <pt x="549" y="1419" on="1"/>
        <pt x="500" y="1401" on="0"/>
        <pt x="476" y="1373" on="1"/>
        <pt x="450" y="1343" on="0"/>
        <pt x="448" y="1281" on="1"/>
        <pt x="448" y="230" on="1"/>
        <pt x="448" y="186" on="0"/>
        <pt x="462" y="163" on="1"/>
        <pt x="481" y="132" on="0"/>
        <pt x="510" y="115" on="1"/>
        <pt x="584" y="78" on="0"/>
        <pt x="709" y="78" on="1"/>
        <pt x="713" y="78" on="0"/>
        <pt x="716" y="78" on="1"/>
        <pt x="832" y="78" on="0"/>
        <pt x="948" y="184" on="1"/>
        <pt x="1052" y="296" on="0"/>
        <pt x="1104" y="430" on="1"/>
        <pt x="1154" y="559" on="0"/>
        <pt x="1154" y="730" on="1"/>
        <pt x="1154" y="742" on="0"/>
        <pt x="1154" y="756" on="1"/>
        <pt x="1154" y="946" on="0"/>
        <pt x="1115" y="1067" on="1"/>
        <pt x="1050" y="1243" on="0"/>
        <pt x="942" y="1334" on="1"/>
        <pt x="846" y="1415" on="0"/>
        <pt x="711" y="1431" on="1"/>
        <pt x="685" y="1434" on="0"/>
        <pt x="656" y="1434" on="1"/>
        <pt x="601" y="1433" on="0"/>
      </contour>
      <contour>
        <pt x="60" y="148" on="1"/>
        <pt x="76" y="149" on="0"/>
        <pt x="176" y="170" on="1"/>
        <pt x="217" y="179" on="0"/>
        <pt x="237" y="195" on="1"/>
        <pt x="250" y="205" on="0"/>
        <pt x="250" y="230" on="1"/>
        <pt x="250" y="1281" on="1"/>
        <pt x="250" y="1304" on="0"/>
        <pt x="234" y="1319" on="1"/>
        <pt x="213" y="1339" on="0"/>
        <pt x="184" y="1344" on="1"/>
        <pt x="80" y="1361" on="0"/>
        <pt x="60" y="1363" on="1"/>
        <pt x="404" y="1494" on="1"/>
        <pt x="525" y="1536" on="0"/>
        <pt x="682" y="1536" on="1"/>
        <pt x="695" y="1536" on="0"/>
        <pt x="710" y="1536" on="1"/>
        <pt x="825" y="1536" on="0"/>
        <pt x="956" y="1473" on="1"/>
        <pt x="1079" y="1413" on="0"/>
        <pt x="1179" y="1302" on="1"/>
        <pt x="1264" y="1208" on="0"/>
        <pt x="1374" y="908" on="0"/>
        <pt x="1374" y="580" on="0"/>
        <pt x="1318" y="438" on="1"/>
        <pt x="1263" y="297" on="0"/>
        <pt x="1179" y="201" on="1"/>
        <pt x="1094" y="103" on="0"/>
        <pt x="959" y="38" on="1"/>
        <pt x="828" y="-25" on="0"/>
        <pt x="688" y="-25" on="1"/>
        <pt x="533" y="-25" on="0"/>
        <pt x="380" y="32" on="1"/>
        <pt x="142" y="121" on="0"/>
      </contour>
    </TTGlyph>
    <TTGlyph name="Dcaron" xMin="60" yMin="-25" xMax="1374" yMax="1950">
      <contour>
        <pt x="397" y="1929" on="1"/>
        <pt x="417" y="1950" on="1"/>
        <pt x="692" y="1770" on="1"/>
        <pt x="962" y="1950" on="1"/>
        <pt x="982" y="1929" on="1"/>
        <pt x="794" y="1619" on="1"/>
        <pt x="791" y="1614" on="0"/>
        <pt x="780" y="1602" on="1"/>
        <pt x="757" y="1577" on="0"/>
        <pt x="730" y="1569" on="1"/>
        <pt x="706" y="1562" on="0"/>
        <pt x="692" y="1562" on="1"/>
        <pt x="690" y="1562" on="1"/>
        <pt x="687" y="1562" on="1"/>
        <pt x="671" y="1562" on="0"/>
        <pt x="649" y="1569" on="1"/>
        <pt x="617" y="1579" on="0"/>
        <pt x="599" y="1602" on="1"/>
        <pt x="587" y="1616" on="0"/>
        <pt x="585" y="1619" on="1"/>
      </contour>
      <contour>
        <pt x="549" y="1419" on="1"/>
        <pt x="500" y="1401" on="0"/>
        <pt x="476" y="1373" on="1"/>
        <pt x="450" y="1343" on="0"/>
        <pt x="448" y="1281" on="1"/>
        <pt x="448" y="230" on="1"/>
        <pt x="448" y="186" on="0"/>
        <pt x="462" y="163" on="1"/>
        <pt x="481" y="132" on="0"/>
        <pt x="510" y="115" on="1"/>
        <pt x="584" y="78" on="0"/>
        <pt x="709" y="78" on="1"/>
        <pt x="713" y="78" on="0"/>
        <pt x="716" y="78" on="1"/>
        <pt x="832" y="78" on="0"/>
        <pt x="948" y="184" on="1"/>
        <pt x="1052" y="296" on="0"/>
        <pt x="1104" y="430" on="1"/>
        <pt x="1154" y="559" on="0"/>
        <pt x="1154" y="730" on="1"/>
        <pt x="1154" y="742" on="0"/>
        <pt x="1154" y="756" on="1"/>
        <pt x="1154" y="946" on="0"/>
        <pt x="1115" y="1067" on="1"/>
        <pt x="1050" y="1243" on="0"/>
        <pt x="942" y="1334" on="1"/>
        <pt x="846" y="1415" on="0"/>
        <pt x="711" y="1431" on="1"/>
        <pt x="685" y="1434" on="0"/>
        <pt x="656" y="1434" on="1"/>
        <pt x="601" y="1433" on="0"/>
      </contour>
      <contour>
        <pt x="60" y="148" on="1"/>
        <pt x="76" y="149" on="0"/>
        <pt x="176" y="170" on="1"/>
        <pt x="217" y="179" on="0"/>
        <pt x="237" y="195" on="1"/>
        <pt x="250" y="205" on="0"/>
        <pt x="250" y="230" on="1"/>
        <pt x="250" y="1281" on="1"/>
        <pt x="250" y="1304" on="0"/>
        <pt x="234" y="1319" on="1"/>
        <pt x="213" y="1339" on="0"/>
        <pt x="184" y="1344" on="1"/>
        <pt x="80" y="1361" on="0"/>
        <pt x="60" y="1363" on="1"/>
        <pt x="404" y="1494" on="1"/>
        <pt x="525" y="1536" on="0"/>
        <pt x="682" y="1536" on="1"/>
        <pt x="695" y="1536" on="0"/>
        <pt x="710" y="1536" on="1"/>
        <pt x="825" y="1536" on="0"/>
        <pt x="956" y="1473" on="1"/>
        <pt x="1079" y="1413" on="0"/>
        <pt x="1179" y="1302" on="1"/>
        <pt x="1264" y="1208" on="0"/>
        <pt x="1374" y="908" on="0"/>
        <pt x="1374" y="580" on="0"/>
        <pt x="1318" y="438" on="1"/>
        <pt x="1263" y="297" on="0"/>
        <pt x="1179" y="201" on="1"/>
        <pt x="1094" y="103" on="0"/>
        <pt x="959" y="38" on="1"/>
        <pt x="828" y="-25" on="0"/>
        <pt x="688" y="-25" on="1"/>
        <pt x="533" y="-25" on="0"/>
        <pt x="380" y="32" on="1"/>
        <pt x="142" y="121" on="0"/>
      </contour>
    </TTGlyph>
    <TTGlyph name="Dcroat" xMin="6" yMin="-25" xMax="1374" yMax="1536">
      <contour>
        <pt x="60" y="148" on="1"/>
        <pt x="76" y="149" on="0"/>
        <pt x="176" y="170" on="1"/>
        <pt x="217" y="179" on="0"/>
        <pt x="237" y="195" on="1"/>
        <pt x="250" y="205" on="0"/>
        <pt x="250" y="230" on="1"/>
        <pt x="250" y="700" on="1"/>
        <pt x="203" y="700" on="1"/>
        <pt x="195" y="700" on="1"/>
        <pt x="69" y="693" on="0"/>
        <pt x="6" y="624" on="1"/>
        <pt x="185" y="918" on="1"/>
        <pt x="179" y="893" on="0"/>
        <pt x="179" y="867" on="1"/>
        <pt x="179" y="802" on="0"/>
        <pt x="250" y="802" on="1"/>
        <pt x="250" y="1281" on="1"/>
        <pt x="250" y="1304" on="0"/>
        <pt x="234" y="1319" on="1"/>
        <pt x="213" y="1339" on="0"/>
        <pt x="184" y="1344" on="1"/>
        <pt x="80" y="1361" on="0"/>
        <pt x="60" y="1363" on="1"/>
        <pt x="404" y="1494" on="1"/>
        <pt x="525" y="1536" on="0"/>
        <pt x="682" y="1536" on="1"/>
        <pt x="710" y="1536" on="1"/>
        <pt x="825" y="1536" on="0"/>
        <pt x="956" y="1473" on="1"/>
        <pt x="1079" y="1413" on="0"/>
        <pt x="1179" y="1302" on="1"/>
        <pt x="1264" y="1208" on="0"/>
        <pt x="1374" y="908" on="0"/>
        <pt x="1374" y="744" on="1"/>
        <pt x="1374" y="581" on="0"/>
        <pt x="1318" y="438" on="1"/>
        <pt x="1263" y="297" on="0"/>
        <pt x="1179" y="201" on="1"/>
        <pt x="1093" y="103" on="0"/>
        <pt x="959" y="38" on="1"/>
        <pt x="828" y="-25" on="0"/>
        <pt x="688" y="-25" on="1"/>
        <pt x="533" y="-25" on="0"/>
        <pt x="380" y="32" on="1"/>
        <pt x="134" y="124" on="0"/>
      </contour>
      <contour>
        <pt x="549" y="1419" on="1"/>
        <pt x="500" y="1401" on="0"/>
        <pt x="476" y="1373" on="1"/>
        <pt x="450" y="1343" on="0"/>
        <pt x="448" y="1281" on="1"/>
        <pt x="448" y="802" on="1"/>
        <pt x="631" y="802" on="1"/>
        <pt x="639" y="802" on="1"/>
        <pt x="765" y="809" on="0"/>
        <pt x="828" y="878" on="1"/>
        <pt x="649" y="584" on="1"/>
        <pt x="655" y="609" on="0"/>
        <pt x="655" y="635" on="1"/>
        <pt x="655" y="700" on="0"/>
        <pt x="584" y="700" on="1"/>
        <pt x="579" y="700" on="1"/>
        <pt x="575" y="700" on="1"/>
        <pt x="448" y="700" on="1"/>
        <pt x="448" y="230" on="1"/>
        <pt x="448" y="186" on="0"/>
        <pt x="462" y="163" on="1"/>
        <pt x="481" y="132" on="0"/>
        <pt x="510" y="115" on="1"/>
        <pt x="584" y="78" on="0"/>
        <pt x="709" y="78" on="1"/>
        <pt x="716" y="78" on="1"/>
        <pt x="832" y="78" on="0"/>
        <pt x="948" y="184" on="1"/>
        <pt x="1052" y="296" on="0"/>
        <pt x="1104" y="430" on="1"/>
        <pt x="1154" y="559" on="0"/>
        <pt x="1154" y="730" on="1"/>
        <pt x="1154" y="756" on="1"/>
        <pt x="1154" y="946" on="0"/>
        <pt x="1115" y="1067" on="1"/>
        <pt x="1050" y="1243" on="0"/>
        <pt x="942" y="1334" on="1"/>
        <pt x="846" y="1415" on="0"/>
        <pt x="711" y="1431" on="1"/>
        <pt x="685" y="1434" on="0"/>
        <pt x="656" y="1434" on="1"/>
        <pt x="601" y="1433" on="0"/>
      </contour>
    </TTGlyph>
    <TTGlyph name="Delta" xMin="-20" yMin="0" xMax="1440" yMax="1551">
      <contour>
        <pt x="-20" y="0" on="1"/>
        <pt x="103" y="24" on="0"/>
        <pt x="167" y="140" on="1"/>
        <pt x="170" y="148" on="1"/>
        <pt x="705" y="1551" on="1"/>
        <pt x="1250" y="148" on="1"/>
        <pt x="1251" y="145" on="1"/>
        <pt x="1254" y="136" on="1"/>
        <pt x="1318" y="24" on="0"/>
        <pt x="1440" y="0" on="1"/>
      </contour>
      <contour>
        <pt x="282" y="106" on="1"/>
        <pt x="1042" y="106" on="1"/>
        <pt x="663" y="1113" on="1"/>
      </contour>
    </TTGlyph>
    <TTGlyph name="E" xMin="60" yMin="0" xMax="1322" yMax="1511">
      <contour>
        <pt x="60" y="0" on="1"/>
        <pt x="184" y="24" on="0"/>
        <pt x="248" y="140" on="1"/>
        <pt x="250" y="148" on="1"/>
        <pt x="250" y="1363" on="1"/>
        <pt x="248" y="1371" on="1"/>
        <pt x="184" y="1487" on="0"/>
        <pt x="60" y="1511" on="1"/>
        <pt x="1006" y="1511" on="1"/>
        <pt x="1192" y="1189" on="1"/>
        <pt x="986" y="1401" on="0"/>
        <pt x="915" y="1408" on="1"/>
        <pt x="901" y="1409" on="1"/>
        <pt x="448" y="1409" on="1"/>
        <pt x="448" y="642" on="1"/>
        <pt x="761" y="642" on="1"/>
        <pt x="775" y="643" on="1"/>
        <pt x="846" y="650" on="0"/>
        <pt x="1052" y="862" on="1"/>
        <pt x="763" y="361" on="1"/>
        <pt x="772" y="394" on="0"/>
        <pt x="772" y="422" on="1"/>
        <pt x="772" y="496" on="0"/>
        <pt x="712" y="537" on="1"/>
        <pt x="705" y="540" on="1"/>
        <pt x="448" y="540" on="1"/>
        <pt x="448" y="102" on="1"/>
        <pt x="1031" y="102" on="1"/>
        <pt x="1045" y="103" on="1"/>
        <pt x="1116" y="110" on="0"/>
        <pt x="1322" y="322" on="1"/>
        <pt x="1136" y="0" on="1"/>
      </contour>
    </TTGlyph>
    <TTGlyph name="Eacute" xMin="60" yMin="0" xMax="1322" yMax="1950">
      <contour>
        <pt x="673" y="1583" on="1"/>
        <pt x="861" y="1893" on="1"/>
        <pt x="864" y="1898" on="0"/>
        <pt x="875" y="1910" on="1"/>
        <pt x="901" y="1939" on="0"/>
        <pt x="939" y="1947" on="1"/>
        <pt x="954" y="1950" on="0"/>
        <pt x="968" y="1950" on="1"/>
        <pt x="1012" y="1950" on="0"/>
        <pt x="1044" y="1918" on="1"/>
        <pt x="1073" y="1889" on="0"/>
        <pt x="1073" y="1845" on="1"/>
        <pt x="1073" y="1837" on="0"/>
        <pt x="1072" y="1827" on="1"/>
        <pt x="1068" y="1782" on="0"/>
        <pt x="1037" y="1759" on="1"/>
        <pt x="1020" y="1745" on="1"/>
        <pt x="693" y="1562" on="1"/>
      </contour>
      <contour>
        <pt x="60" y="0" on="1"/>
        <pt x="184" y="24" on="0"/>
        <pt x="248" y="140" on="1"/>
        <pt x="250" y="148" on="1"/>
        <pt x="250" y="1363" on="1"/>
        <pt x="248" y="1371" on="1"/>
        <pt x="184" y="1487" on="0"/>
        <pt x="60" y="1511" on="1"/>
        <pt x="1006" y="1511" on="1"/>
        <pt x="1192" y="1189" on="1"/>
        <pt x="986" y="1401" on="0"/>
        <pt x="915" y="1408" on="1"/>
        <pt x="901" y="1409" on="1"/>
        <pt x="448" y="1409" on="1"/>
        <pt x="448" y="642" on="1"/>
        <pt x="761" y="642" on="1"/>
        <pt x="775" y="643" on="1"/>
        <pt x="846" y="650" on="0"/>
        <pt x="1052" y="862" on="1"/>
        <pt x="763" y="361" on="1"/>
        <pt x="772" y="394" on="0"/>
        <pt x="772" y="422" on="1"/>
        <pt x="772" y="496" on="0"/>
        <pt x="712" y="537" on="1"/>
        <pt x="705" y="540" on="1"/>
        <pt x="448" y="540" on="1"/>
        <pt x="448" y="102" on="1"/>
        <pt x="1031" y="102" on="1"/>
        <pt x="1045" y="103" on="1"/>
        <pt x="1116" y="110" on="0"/>
        <pt x="1322" y="322" on="1"/>
        <pt x="1136" y="0" on="1"/>
      </contour>
    </TTGlyph>
    <TTGlyph name="Ebreve" xMin="60" yMin="0" xMax="1322" yMax="1950">
      <contour>
        <pt x="363" y="1833" on="1"/>
        <pt x="477" y="1950" on="1"/>
        <pt x="511" y="1921" on="0"/>
        <pt x="517" y="1915" on="1"/>
        <pt x="596" y="1854" on="0"/>
        <pt x="708" y="1854" on="1"/>
        <pt x="800" y="1854" on="0"/>
        <pt x="867" y="1914" on="1"/>
        <pt x="900" y="1947" on="1"/>
        <pt x="1033" y="1845" on="1"/>
        <pt x="976" y="1785" on="0"/>
        <pt x="906" y="1743" on="1"/>
        <pt x="806" y="1683" on="0"/>
        <pt x="580" y="1683" on="0"/>
        <pt x="476" y="1746" on="1"/>
        <pt x="408" y="1787" on="0"/>
      </contour>
      <contour>
        <pt x="60" y="0" on="1"/>
        <pt x="184" y="24" on="0"/>
        <pt x="248" y="140" on="1"/>
        <pt x="250" y="148" on="1"/>
        <pt x="250" y="1363" on="1"/>
        <pt x="248" y="1371" on="1"/>
        <pt x="184" y="1487" on="0"/>
        <pt x="60" y="1511" on="1"/>
        <pt x="1006" y="1511" on="1"/>
        <pt x="1192" y="1189" on="1"/>
        <pt x="986" y="1401" on="0"/>
        <pt x="915" y="1408" on="1"/>
        <pt x="901" y="1409" on="1"/>
        <pt x="448" y="1409" on="1"/>
        <pt x="448" y="642" on="1"/>
        <pt x="761" y="642" on="1"/>
        <pt x="775" y="643" on="1"/>
        <pt x="846" y="650" on="0"/>
        <pt x="1052" y="862" on="1"/>
        <pt x="763" y="361" on="1"/>
        <pt x="772" y="394" on="0"/>
        <pt x="772" y="422" on="1"/>
        <pt x="772" y="496" on="0"/>
        <pt x="712" y="537" on="1"/>
        <pt x="705" y="540" on="1"/>
        <pt x="448" y="540" on="1"/>
        <pt x="448" y="102" on="1"/>
        <pt x="1031" y="102" on="1"/>
        <pt x="1045" y="103" on="1"/>
        <pt x="1116" y="110" on="0"/>
        <pt x="1322" y="322" on="1"/>
        <pt x="1136" y="0" on="1"/>
      </contour>
    </TTGlyph>
    <TTGlyph name="Ecaron" xMin="60" yMin="0" xMax="1322" yMax="1950">
      <contour>
        <pt x="397" y="1929" on="1"/>
        <pt x="417" y="1950" on="1"/>
        <pt x="692" y="1770" on="1"/>
        <pt x="962" y="1950" on="1"/>
        <pt x="982" y="1929" on="1"/>
        <pt x="794" y="1619" on="1"/>
        <pt x="791" y="1614" on="0"/>
        <pt x="780" y="1602" on="1"/>
        <pt x="757" y="1577" on="0"/>
        <pt x="730" y="1569" on="1"/>
        <pt x="706" y="1562" on="0"/>
        <pt x="692" y="1562" on="1"/>
        <pt x="690" y="1562" on="1"/>
        <pt x="687" y="1562" on="1"/>
        <pt x="671" y="1562" on="0"/>
        <pt x="649" y="1569" on="1"/>
        <pt x="617" y="1579" on="0"/>
        <pt x="599" y="1602" on="1"/>
        <pt x="587" y="1616" on="0"/>
        <pt x="585" y="1619" on="1"/>
      </contour>
      <contour>
        <pt x="60" y="0" on="1"/>
        <pt x="184" y="24" on="0"/>
        <pt x="248" y="140" on="1"/>
        <pt x="250" y="148" on="1"/>
        <pt x="250" y="1363" on="1"/>
        <pt x="248" y="1371" on="1"/>
        <pt x="184" y="1487" on="0"/>
        <pt x="60" y="1511" on="1"/>
        <pt x="1006" y="1511" on="1"/>
        <pt x="1192" y="1189" on="1"/>
        <pt x="986" y="1401" on="0"/>
        <pt x="915" y="1408" on="1"/>
        <pt x="901" y="1409" on="1"/>
        <pt x="448" y="1409" on="1"/>
        <pt x="448" y="642" on="1"/>
        <pt x="761" y="642" on="1"/>
        <pt x="775" y="643" on="1"/>
        <pt x="846" y="650" on="0"/>
        <pt x="1052" y="862" on="1"/>
        <pt x="763" y="361" on="1"/>
        <pt x="772" y="394" on="0"/>
        <pt x="772" y="422" on="1"/>
        <pt x="772" y="496" on="0"/>
        <pt x="712" y="537" on="1"/>
        <pt x="705" y="540" on="1"/>
        <pt x="448" y="540" on="1"/>
        <pt x="448" y="102" on="1"/>
        <pt x="1031" y="102" on="1"/>
        <pt x="1045" y="103" on="1"/>
        <pt x="1116" y="110" on="0"/>
        <pt x="1322" y="322" on="1"/>
        <pt x="1136" y="0" on="1"/>
      </contour>
    </TTGlyph>
    <TTGlyph name="Ecircumflex" xMin="60" yMin="0" xMax="1322" yMax="1950">
      <contour>
        <pt x="407" y="1583" on="1"/>
        <pt x="595" y="1893" on="1"/>
        <pt x="597" y="1896" on="0"/>
        <pt x="609" y="1910" on="1"/>
        <pt x="627" y="1933" on="0"/>
        <pt x="659" y="1943" on="1"/>
        <pt x="681" y="1950" on="0"/>
        <pt x="697" y="1950" on="1"/>
        <pt x="700" y="1950" on="1"/>
        <pt x="702" y="1950" on="1"/>
        <pt x="716" y="1950" on="0"/>
        <pt x="740" y="1943" on="1"/>
        <pt x="767" y="1935" on="0"/>
        <pt x="790" y="1910" on="1"/>
        <pt x="801" y="1898" on="0"/>
        <pt x="804" y="1893" on="1"/>
        <pt x="992" y="1583" on="1"/>
        <pt x="972" y="1562" on="1"/>
        <pt x="702" y="1742" on="1"/>
        <pt x="427" y="1562" on="1"/>
      </contour>
      <contour>
        <pt x="60" y="0" on="1"/>
        <pt x="184" y="24" on="0"/>
        <pt x="248" y="140" on="1"/>
        <pt x="250" y="148" on="1"/>
        <pt x="250" y="1363" on="1"/>
        <pt x="248" y="1371" on="1"/>
        <pt x="184" y="1487" on="0"/>
        <pt x="60" y="1511" on="1"/>
        <pt x="1006" y="1511" on="1"/>
        <pt x="1192" y="1189" on="1"/>
        <pt x="986" y="1401" on="0"/>
        <pt x="915" y="1408" on="1"/>
        <pt x="901" y="1409" on="1"/>
        <pt x="448" y="1409" on="1"/>
        <pt x="448" y="642" on="1"/>
        <pt x="761" y="642" on="1"/>
        <pt x="775" y="643" on="1"/>
        <pt x="846" y="650" on="0"/>
        <pt x="1052" y="862" on="1"/>
        <pt x="763" y="361" on="1"/>
        <pt x="772" y="394" on="0"/>
        <pt x="772" y="422" on="1"/>
        <pt x="772" y="496" on="0"/>
        <pt x="712" y="537" on="1"/>
        <pt x="705" y="540" on="1"/>
        <pt x="448" y="540" on="1"/>
        <pt x="448" y="102" on="1"/>
        <pt x="1031" y="102" on="1"/>
        <pt x="1045" y="103" on="1"/>
        <pt x="1116" y="110" on="0"/>
        <pt x="1322" y="322" on="1"/>
        <pt x="1136" y="0" on="1"/>
      </contour>
    </TTGlyph>
    <TTGlyph name="Edieresis" xMin="60" yMin="0" xMax="1322" yMax="1936">
      <contour>
        <pt x="649" y="1749" on="0"/>
        <pt x="649" y="1859" on="0"/>
        <pt x="725" y="1936" on="0"/>
        <pt x="833" y="1936" on="0"/>
        <pt x="909" y="1859" on="0"/>
        <pt x="909" y="1749" on="0"/>
        <pt x="833" y="1672" on="0"/>
        <pt x="725" y="1672" on="0"/>
      </contour>
      <contour>
        <pt x="312" y="1749" on="0"/>
        <pt x="312" y="1859" on="0"/>
        <pt x="388" y="1936" on="0"/>
        <pt x="496" y="1936" on="0"/>
        <pt x="572" y="1859" on="0"/>
        <pt x="572" y="1749" on="0"/>
        <pt x="496" y="1672" on="0"/>
        <pt x="388" y="1672" on="0"/>
      </contour>
      <contour>
        <pt x="60" y="0" on="1"/>
        <pt x="184" y="24" on="0"/>
        <pt x="248" y="140" on="1"/>
        <pt x="250" y="148" on="1"/>
        <pt x="250" y="1363" on="1"/>
        <pt x="248" y="1371" on="1"/>
        <pt x="184" y="1487" on="0"/>
        <pt x="60" y="1511" on="1"/>
        <pt x="1006" y="1511" on="1"/>
        <pt x="1192" y="1189" on="1"/>
        <pt x="986" y="1401" on="0"/>
        <pt x="915" y="1408" on="1"/>
        <pt x="901" y="1409" on="1"/>
        <pt x="448" y="1409" on="1"/>
        <pt x="448" y="642" on="1"/>
        <pt x="761" y="642" on="1"/>
        <pt x="775" y="643" on="1"/>
        <pt x="846" y="650" on="0"/>
        <pt x="1052" y="862" on="1"/>
        <pt x="763" y="361" on="1"/>
        <pt x="772" y="394" on="0"/>
        <pt x="772" y="422" on="1"/>
        <pt x="772" y="496" on="0"/>
        <pt x="712" y="537" on="1"/>
        <pt x="705" y="540" on="1"/>
        <pt x="448" y="540" on="1"/>
        <pt x="448" y="102" on="1"/>
        <pt x="1031" y="102" on="1"/>
        <pt x="1045" y="103" on="1"/>
        <pt x="1116" y="110" on="0"/>
        <pt x="1322" y="322" on="1"/>
        <pt x="1136" y="0" on="1"/>
      </contour>
    </TTGlyph>
    <TTGlyph name="Edotaccent" xMin="60" yMin="0" xMax="1322" yMax="1936">
      <contour>
        <pt x="560" y="1749" on="0"/>
        <pt x="560" y="1859" on="0"/>
        <pt x="636" y="1936" on="0"/>
        <pt x="744" y="1936" on="0"/>
        <pt x="820" y="1859" on="0"/>
        <pt x="820" y="1749" on="0"/>
        <pt x="744" y="1672" on="0"/>
        <pt x="636" y="1672" on="0"/>
      </contour>
      <contour>
        <pt x="60" y="0" on="1"/>
        <pt x="184" y="24" on="0"/>
        <pt x="248" y="140" on="1"/>
        <pt x="250" y="148" on="1"/>
        <pt x="250" y="1363" on="1"/>
        <pt x="248" y="1371" on="1"/>
        <pt x="184" y="1487" on="0"/>
        <pt x="60" y="1511" on="1"/>
        <pt x="1006" y="1511" on="1"/>
        <pt x="1192" y="1189" on="1"/>
        <pt x="986" y="1401" on="0"/>
        <pt x="915" y="1408" on="1"/>
        <pt x="901" y="1409" on="1"/>
        <pt x="448" y="1409" on="1"/>
        <pt x="448" y="642" on="1"/>
        <pt x="761" y="642" on="1"/>
        <pt x="775" y="643" on="1"/>
        <pt x="846" y="650" on="0"/>
        <pt x="1052" y="862" on="1"/>
        <pt x="763" y="361" on="1"/>
        <pt x="772" y="394" on="0"/>
        <pt x="772" y="422" on="1"/>
        <pt x="772" y="496" on="0"/>
        <pt x="712" y="537" on="1"/>
        <pt x="705" y="540" on="1"/>
        <pt x="448" y="540" on="1"/>
        <pt x="448" y="102" on="1"/>
        <pt x="1031" y="102" on="1"/>
        <pt x="1045" y="103" on="1"/>
        <pt x="1116" y="110" on="0"/>
        <pt x="1322" y="322" on="1"/>
        <pt x="1136" y="0" on="1"/>
      </contour>
    </TTGlyph>
    <TTGlyph name="Egrave" xMin="60" yMin="0" xMax="1322" yMax="1950">
      <contour>
        <pt x="713" y="1583" on="1"/>
        <pt x="693" y="1562" on="1"/>
        <pt x="366" y="1745" on="1"/>
        <pt x="349" y="1759" on="1"/>
        <pt x="318" y="1782" on="0"/>
        <pt x="314" y="1827" on="1"/>
        <pt x="313" y="1837" on="0"/>
        <pt x="313" y="1845" on="1"/>
        <pt x="313" y="1889" on="0"/>
        <pt x="342" y="1918" on="1"/>
        <pt x="374" y="1950" on="0"/>
        <pt x="418" y="1950" on="1"/>
        <pt x="432" y="1950" on="0"/>
        <pt x="447" y="1947" on="1"/>
        <pt x="485" y="1939" on="0"/>
        <pt x="511" y="1910" on="1"/>
        <pt x="522" y="1898" on="0"/>
        <pt x="525" y="1893" on="1"/>
      </contour>
      <contour>
        <pt x="60" y="0" on="1"/>
        <pt x="184" y="24" on="0"/>
        <pt x="248" y="140" on="1"/>
        <pt x="250" y="148" on="1"/>
        <pt x="250" y="1363" on="1"/>
        <pt x="248" y="1371" on="1"/>
        <pt x="184" y="1487" on="0"/>
        <pt x="60" y="1511" on="1"/>
        <pt x="1006" y="1511" on="1"/>
        <pt x="1192" y="1189" on="1"/>
        <pt x="986" y="1401" on="0"/>
        <pt x="915" y="1408" on="1"/>
        <pt x="901" y="1409" on="1"/>
        <pt x="448" y="1409" on="1"/>
        <pt x="448" y="642" on="1"/>
        <pt x="761" y="642" on="1"/>
        <pt x="775" y="643" on="1"/>
        <pt x="846" y="650" on="0"/>
        <pt x="1052" y="862" on="1"/>
        <pt x="763" y="361" on="1"/>
        <pt x="772" y="394" on="0"/>
        <pt x="772" y="422" on="1"/>
        <pt x="772" y="496" on="0"/>
        <pt x="712" y="537" on="1"/>
        <pt x="705" y="540" on="1"/>
        <pt x="448" y="540" on="1"/>
        <pt x="448" y="102" on="1"/>
        <pt x="1031" y="102" on="1"/>
        <pt x="1045" y="103" on="1"/>
        <pt x="1116" y="110" on="0"/>
        <pt x="1322" y="322" on="1"/>
        <pt x="1136" y="0" on="1"/>
      </contour>
    </TTGlyph>
    <TTGlyph name="Emacron" xMin="60" yMin="0" xMax="1322" yMax="1950">
      <contour>
        <pt x="399" y="1950" on="1"/>
        <pt x="982" y="1950" on="1"/>
        <pt x="982" y="1773" on="1"/>
        <pt x="399" y="1773" on="1"/>
      </contour>
      <contour>
        <pt x="60" y="0" on="1"/>
        <pt x="184" y="24" on="0"/>
        <pt x="248" y="140" on="1"/>
        <pt x="250" y="148" on="1"/>
        <pt x="250" y="1363" on="1"/>
        <pt x="248" y="1371" on="1"/>
        <pt x="184" y="1487" on="0"/>
        <pt x="60" y="1511" on="1"/>
        <pt x="1006" y="1511" on="1"/>
        <pt x="1192" y="1189" on="1"/>
        <pt x="986" y="1401" on="0"/>
        <pt x="915" y="1408" on="1"/>
        <pt x="901" y="1409" on="1"/>
        <pt x="448" y="1409" on="1"/>
        <pt x="448" y="642" on="1"/>
        <pt x="761" y="642" on="1"/>
        <pt x="775" y="643" on="1"/>
        <pt x="846" y="650" on="0"/>
        <pt x="1052" y="862" on="1"/>
        <pt x="763" y="361" on="1"/>
        <pt x="772" y="394" on="0"/>
        <pt x="772" y="422" on="1"/>
        <pt x="772" y="496" on="0"/>
        <pt x="712" y="537" on="1"/>
        <pt x="705" y="540" on="1"/>
        <pt x="448" y="540" on="1"/>
        <pt x="448" y="102" on="1"/>
        <pt x="1031" y="102" on="1"/>
        <pt x="1045" y="103" on="1"/>
        <pt x="1116" y="110" on="0"/>
        <pt x="1322" y="322" on="1"/>
        <pt x="1136" y="0" on="1"/>
      </contour>
    </TTGlyph>
    <TTGlyph name="Eng" xMin="0" yMin="-408" xMax="1490" yMax="1551">
      <contour>
        <pt x="0" y="0" on="1"/>
        <pt x="184" y="24" on="0"/>
        <pt x="248" y="140" on="1"/>
        <pt x="250" y="148" on="1"/>
        <pt x="250" y="1551" on="1"/>
        <pt x="1188" y="440" on="1"/>
        <pt x="1188" y="1363" on="1"/>
        <pt x="1186" y="1371" on="1"/>
        <pt x="1122" y="1487" on="0"/>
        <pt x="998" y="1511" on="1"/>
        <pt x="1490" y="1511" on="1"/>
        <pt x="1356" y="1483" on="0"/>
        <pt x="1302" y="1372" on="1"/>
        <pt x="1300" y="1363" on="1"/>
        <pt x="1300" y="0" on="1"/>
        <pt x="1287" y="-200" on="0"/>
        <pt x="1142" y="-333" on="1"/>
        <pt x="1059" y="-408" on="0"/>
        <pt x="946" y="-408" on="1"/>
        <pt x="935" y="-408" on="0"/>
        <pt x="922" y="-407" on="1"/>
        <pt x="763" y="-394" on="0"/>
        <pt x="683" y="-310" on="1"/>
        <pt x="642" y="-267" on="0"/>
        <pt x="642" y="-215" on="1"/>
        <pt x="642" y="-158" on="0"/>
        <pt x="678" y="-122" on="1"/>
        <pt x="716" y="-84" on="0"/>
        <pt x="771" y="-84" on="1"/>
        <pt x="825" y="-84" on="0"/>
        <pt x="903" y="-170" on="0"/>
        <pt x="903" y="-224" on="1"/>
        <pt x="903" y="-268" on="0"/>
        <pt x="869" y="-304" on="1"/>
        <pt x="882" y="-311" on="0"/>
        <pt x="926" y="-316" on="1"/>
        <pt x="960" y="-320" on="0"/>
        <pt x="989" y="-310" on="1"/>
        <pt x="1186" y="-206" on="0"/>
        <pt x="1186" y="-18" on="1"/>
        <pt x="1186" y="-16" on="0"/>
        <pt x="1188" y="129" on="1"/>
        <pt x="362" y="1081" on="1"/>
        <pt x="362" y="148" on="1"/>
        <pt x="364" y="139" on="1"/>
        <pt x="418" y="28" on="0"/>
        <pt x="552" y="0" on="1"/>
      </contour>
    </TTGlyph>
    <TTGlyph name="Eogonek" xMin="60" yMin="-433" xMax="1322" yMax="1511">
      <contour>
        <pt x="60" y="0" on="1"/>
        <pt x="184" y="24" on="0"/>
        <pt x="248" y="140" on="1"/>
        <pt x="250" y="148" on="1"/>
        <pt x="250" y="1363" on="1"/>
        <pt x="248" y="1371" on="1"/>
        <pt x="184" y="1487" on="0"/>
        <pt x="60" y="1511" on="1"/>
        <pt x="1006" y="1511" on="1"/>
        <pt x="1192" y="1189" on="1"/>
        <pt x="986" y="1401" on="0"/>
        <pt x="915" y="1408" on="1"/>
        <pt x="901" y="1409" on="1"/>
        <pt x="448" y="1409" on="1"/>
        <pt x="448" y="642" on="1"/>
        <pt x="761" y="642" on="1"/>
        <pt x="775" y="643" on="1"/>
        <pt x="846" y="650" on="0"/>
        <pt x="1052" y="862" on="1"/>
        <pt x="763" y="361" on="1"/>
        <pt x="772" y="394" on="0"/>
        <pt x="772" y="422" on="1"/>
        <pt x="772" y="496" on="0"/>
        <pt x="712" y="537" on="1"/>
        <pt x="705" y="540" on="1"/>
        <pt x="448" y="540" on="1"/>
        <pt x="448" y="102" on="1"/>
        <pt x="1031" y="102" on="1"/>
        <pt x="1045" y="103" on="1"/>
        <pt x="1116" y="110" on="0"/>
        <pt x="1322" y="322" on="1"/>
        <pt x="1136" y="0" on="1"/>
        <pt x="1045" y="0" on="1"/>
        <pt x="1034" y="-23" on="0"/>
        <pt x="1026" y="-51" on="1"/>
        <pt x="1013" y="-96" on="0"/>
        <pt x="1013" y="-137" on="1"/>
        <pt x="1013" y="-150" on="1"/>
        <pt x="1014" y="-176" on="1"/>
        <pt x="1041" y="-167" on="0"/>
        <pt x="1065" y="-167" on="1"/>
        <pt x="1098" y="-167" on="0"/>
        <pt x="1125" y="-183" on="1"/>
        <pt x="1173" y="-212" on="0"/>
        <pt x="1189" y="-268" on="1"/>
        <pt x="1194" y="-286" on="0"/>
        <pt x="1194" y="-304" on="1"/>
        <pt x="1194" y="-337" on="0"/>
        <pt x="1177" y="-368" on="1"/>
        <pt x="1151" y="-416" on="0"/>
        <pt x="1098" y="-429" on="1"/>
        <pt x="1082" y="-433" on="0"/>
        <pt x="1065" y="-433" on="1"/>
        <pt x="1034" y="-433" on="0"/>
        <pt x="1000" y="-418" on="1"/>
        <pt x="948" y="-395" on="0"/>
        <pt x="923" y="-333" on="1"/>
        <pt x="914" y="-311" on="0"/>
        <pt x="908" y="-290" on="1"/>
        <pt x="897" y="-252" on="0"/>
        <pt x="897" y="-219" on="1"/>
        <pt x="897" y="-166" on="0"/>
        <pt x="905" y="-129" on="1"/>
        <pt x="922" y="-51" on="0"/>
        <pt x="953" y="0" on="1"/>
      </contour>
    </TTGlyph>
    <TTGlyph name="Eth" xMin="6" yMin="-25" xMax="1374" yMax="1536">
      <contour>
        <pt x="60" y="148" on="1"/>
        <pt x="76" y="149" on="0"/>
        <pt x="176" y="170" on="1"/>
        <pt x="217" y="179" on="0"/>
        <pt x="237" y="195" on="1"/>
        <pt x="250" y="205" on="0"/>
        <pt x="250" y="230" on="1"/>
        <pt x="250" y="700" on="1"/>
        <pt x="203" y="700" on="1"/>
        <pt x="195" y="700" on="1"/>
        <pt x="69" y="693" on="0"/>
        <pt x="6" y="624" on="1"/>
        <pt x="185" y="918" on="1"/>
        <pt x="179" y="893" on="0"/>
        <pt x="179" y="867" on="1"/>
        <pt x="179" y="802" on="0"/>
        <pt x="250" y="802" on="1"/>
        <pt x="250" y="1281" on="1"/>
        <pt x="250" y="1304" on="0"/>
        <pt x="234" y="1319" on="1"/>
        <pt x="213" y="1339" on="0"/>
        <pt x="184" y="1344" on="1"/>
        <pt x="80" y="1361" on="0"/>
        <pt x="60" y="1363" on="1"/>
        <pt x="404" y="1494" on="1"/>
        <pt x="525" y="1536" on="0"/>
        <pt x="682" y="1536" on="1"/>
        <pt x="710" y="1536" on="1"/>
        <pt x="825" y="1536" on="0"/>
        <pt x="956" y="1473" on="1"/>
        <pt x="1079" y="1413" on="0"/>
        <pt x="1179" y="1302" on="1"/>
        <pt x="1264" y="1208" on="0"/>
        <pt x="1374" y="908" on="0"/>
        <pt x="1374" y="744" on="1"/>
        <pt x="1374" y="581" on="0"/>
        <pt x="1318" y="438" on="1"/>
        <pt x="1263" y="297" on="0"/>
        <pt x="1179" y="201" on="1"/>
        <pt x="1093" y="103" on="0"/>
        <pt x="959" y="38" on="1"/>
        <pt x="828" y="-25" on="0"/>
        <pt x="688" y="-25" on="1"/>
        <pt x="533" y="-25" on="0"/>
        <pt x="380" y="32" on="1"/>
        <pt x="134" y="124" on="0"/>
      </contour>
      <contour>
        <pt x="549" y="1419" on="1"/>
        <pt x="500" y="1401" on="0"/>
        <pt x="476" y="1373" on="1"/>
        <pt x="450" y="1343" on="0"/>
        <pt x="448" y="1281" on="1"/>
        <pt x="448" y="802" on="1"/>
        <pt x="631" y="802" on="1"/>
        <pt x="639" y="802" on="1"/>
        <pt x="765" y="809" on="0"/>
        <pt x="828" y="878" on="1"/>
        <pt x="649" y="584" on="1"/>
        <pt x="655" y="609" on="0"/>
        <pt x="655" y="635" on="1"/>
        <pt x="655" y="700" on="0"/>
        <pt x="584" y="700" on="1"/>
        <pt x="579" y="700" on="1"/>
        <pt x="575" y="700" on="1"/>
        <pt x="448" y="700" on="1"/>
        <pt x="448" y="230" on="1"/>
        <pt x="448" y="186" on="0"/>
        <pt x="462" y="163" on="1"/>
        <pt x="481" y="132" on="0"/>
        <pt x="510" y="115" on="1"/>
        <pt x="584" y="78" on="0"/>
        <pt x="709" y="78" on="1"/>
        <pt x="716" y="78" on="1"/>
        <pt x="832" y="78" on="0"/>
        <pt x="948" y="184" on="1"/>
        <pt x="1052" y="296" on="0"/>
        <pt x="1104" y="430" on="1"/>
        <pt x="1154" y="559" on="0"/>
        <pt x="1154" y="730" on="1"/>
        <pt x="1154" y="756" on="1"/>
        <pt x="1154" y="946" on="0"/>
        <pt x="1115" y="1067" on="1"/>
        <pt x="1050" y="1243" on="0"/>
        <pt x="942" y="1334" on="1"/>
        <pt x="846" y="1415" on="0"/>
        <pt x="711" y="1431" on="1"/>
        <pt x="685" y="1434" on="0"/>
        <pt x="656" y="1434" on="1"/>
        <pt x="601" y="1433" on="0"/>
      </contour>
    </TTGlyph>
    <TTGlyph name="Euro" xMin="150" yMin="-25" xMax="1405" yMax="1537">
      <contour>
        <pt x="1405" y="354" on="1"/>
        <pt x="1368" y="269" on="0"/>
        <pt x="1317" y="200" on="1"/>
        <pt x="1238" y="96" on="0"/>
        <pt x="1137" y="39" on="1"/>
        <pt x="1024" y="-25" on="0"/>
        <pt x="878" y="-25" on="1"/>
        <pt x="875" y="-25" on="0"/>
        <pt x="873" y="-25" on="1"/>
        <pt x="720" y="-25" on="0"/>
        <pt x="616" y="35" on="1"/>
        <pt x="509" y="96" on="0"/>
        <pt x="433" y="197" on="1"/>
        <pt x="358" y="297" on="0"/>
        <pt x="313" y="440" on="1"/>
        <pt x="150" y="440" on="1"/>
        <pt x="150" y="637" on="1"/>
        <pt x="274" y="637" on="1"/>
        <pt x="269" y="689" on="0"/>
        <pt x="269" y="744" on="1"/>
        <pt x="269" y="766" on="0"/>
        <pt x="270" y="788" on="1"/>
        <pt x="150" y="788" on="1"/>
        <pt x="151" y="985" on="1"/>
        <pt x="294" y="985" on="1"/>
        <pt x="302" y="1023" on="0"/>
        <pt x="313" y="1060" on="1"/>
        <pt x="359" y="1215" on="0"/>
        <pt x="433" y="1314" on="1"/>
        <pt x="511" y="1417" on="0"/>
        <pt x="613" y="1476" on="1"/>
        <pt x="716" y="1536" on="0"/>
        <pt x="821" y="1536" on="1"/>
        <pt x="826" y="1536" on="0"/>
        <pt x="831" y="1536" on="1"/>
        <pt x="947" y="1536" on="0"/>
        <pt x="1046" y="1484" on="1"/>
        <pt x="1114" y="1448" on="0"/>
        <pt x="1154" y="1411" on="1"/>
        <pt x="1162" y="1410" on="1"/>
        <pt x="1262" y="1418" on="0"/>
        <pt x="1294" y="1537" on="1"/>
        <pt x="1294" y="959" on="1"/>
        <pt x="1242" y="1163" on="0"/>
        <pt x="1172" y="1279" on="1"/>
        <pt x="1138" y="1332" on="0"/>
        <pt x="1085" y="1371" on="1"/>
        <pt x="1003" y="1431" on="0"/>
        <pt x="891" y="1431" on="1"/>
        <pt x="762" y="1431" on="0"/>
        <pt x="653" y="1345" on="1"/>
        <pt x="569" y="1248" on="0"/>
        <pt x="526" y="1084" on="1"/>
        <pt x="513" y="1034" on="0"/>
        <pt x="503" y="985" on="1"/>
        <pt x="984" y="985" on="1"/>
        <pt x="984" y="788" on="1"/>
        <pt x="481" y="788" on="1"/>
        <pt x="481" y="767" on="0"/>
        <pt x="481" y="746" on="1"/>
        <pt x="481" y="698" on="0"/>
        <pt x="486" y="637" on="1"/>
        <pt x="983" y="637" on="1"/>
        <pt x="983" y="440" on="1"/>
        <pt x="520" y="440" on="1"/>
        <pt x="592" y="238" on="0"/>
        <pt x="691" y="156" on="1"/>
        <pt x="773" y="86" on="0"/>
        <pt x="909" y="86" on="1"/>
        <pt x="932" y="86" on="0"/>
        <pt x="957" y="88" on="1"/>
        <pt x="1031" y="94" on="0"/>
        <pt x="1123" y="152" on="1"/>
        <pt x="1174" y="183" on="0"/>
        <pt x="1237" y="262" on="1"/>
        <pt x="1277" y="312" on="0"/>
        <pt x="1303" y="394" on="1"/>
      </contour>
    </TTGlyph>
    <TTGlyph name="F" xMin="60" yMin="0" xMax="1192" yMax="1511">
      <contour>
        <pt x="60" y="0" on="1"/>
        <pt x="184" y="24" on="0"/>
        <pt x="248" y="140" on="1"/>
        <pt x="250" y="148" on="1"/>
        <pt x="250" y="1363" on="1"/>
        <pt x="248" y="1371" on="1"/>
        <pt x="184" y="1487" on="0"/>
        <pt x="60" y="1511" on="1"/>
        <pt x="1006" y="1511" on="1"/>
        <pt x="1192" y="1189" on="1"/>
        <pt x="986" y="1401" on="0"/>
        <pt x="915" y="1408" on="1"/>
        <pt x="901" y="1409" on="1"/>
        <pt x="448" y="1409" on="1"/>
        <pt x="448" y="642" on="1"/>
        <pt x="761" y="642" on="1"/>
        <pt x="775" y="643" on="1"/>
        <pt x="846" y="650" on="0"/>
        <pt x="1052" y="862" on="1"/>
        <pt x="763" y="361" on="1"/>
        <pt x="772" y="394" on="0"/>
        <pt x="772" y="422" on="1"/>
        <pt x="772" y="496" on="0"/>
        <pt x="712" y="537" on="1"/>
        <pt x="705" y="540" on="1"/>
        <pt x="448" y="540" on="1"/>
        <pt x="448" y="148" on="1"/>
        <pt x="450" y="139" on="1"/>
        <pt x="504" y="28" on="0"/>
        <pt x="638" y="0" on="1"/>
      </contour>
    </TTGlyph>
    <TTGlyph name="G" xMin="130" yMin="-25" xMax="1250" yMax="1537">
      <contour>
        <pt x="130" y="580" on="0"/>
        <pt x="130" y="908" on="0"/>
        <pt x="174" y="1060" on="1"/>
        <pt x="219" y="1216" on="0"/>
        <pt x="294" y="1314" on="1"/>
        <pt x="372" y="1417" on="0"/>
        <pt x="474" y="1476" on="1"/>
        <pt x="577" y="1536" on="0"/>
        <pt x="682" y="1536" on="1"/>
        <pt x="687" y="1536" on="0"/>
        <pt x="692" y="1536" on="1"/>
        <pt x="808" y="1536" on="0"/>
        <pt x="907" y="1484" on="1"/>
        <pt x="975" y="1448" on="0"/>
        <pt x="1015" y="1411" on="1"/>
        <pt x="1023" y="1410" on="1"/>
        <pt x="1123" y="1418" on="0"/>
        <pt x="1155" y="1537" on="1"/>
        <pt x="1155" y="959" on="1"/>
        <pt x="1103" y="1163" on="0"/>
        <pt x="1033" y="1279" on="1"/>
        <pt x="999" y="1332" on="0"/>
        <pt x="946" y="1371" on="1"/>
        <pt x="864" y="1431" on="0"/>
        <pt x="752" y="1431" on="1"/>
        <pt x="634" y="1431" on="0"/>
        <pt x="524" y="1344" on="1"/>
        <pt x="437" y="1259" on="0"/>
        <pt x="388" y="1084" on="1"/>
        <pt x="342" y="919" on="0"/>
        <pt x="342" y="761" on="1"/>
        <pt x="342" y="755" on="0"/>
        <pt x="342" y="748" on="1"/>
        <pt x="342" y="592" on="0"/>
        <pt x="374" y="464" on="1"/>
        <pt x="432" y="249" on="0"/>
        <pt x="498" y="178" on="1"/>
        <pt x="589" y="80" on="0"/>
        <pt x="700" y="80" on="1"/>
        <pt x="794" y="80" on="0"/>
        <pt x="887" y="165" on="1"/>
        <pt x="988" y="277" on="0"/>
        <pt x="1004" y="370" on="1"/>
        <pt x="1009" y="399" on="0"/>
        <pt x="1009" y="424" on="1"/>
        <pt x="1009" y="476" on="0"/>
        <pt x="990" y="510" on="1"/>
        <pt x="985" y="517" on="1"/>
        <pt x="910" y="622" on="0"/>
        <pt x="730" y="642" on="1"/>
        <pt x="1250" y="642" on="1"/>
        <pt x="1240" y="535" on="0"/>
        <pt x="1210" y="440" on="1"/>
        <pt x="1166" y="298" on="0"/>
        <pt x="1090" y="197" on="1"/>
        <pt x="1015" y="97" on="0"/>
        <pt x="910" y="36" on="1"/>
        <pt x="806" y="-25" on="0"/>
        <pt x="578" y="-25" on="0"/>
        <pt x="370" y="96" on="0"/>
        <pt x="294" y="197" on="1"/>
        <pt x="218" y="299" on="0"/>
      </contour>
    </TTGlyph>
    <TTGlyph name="Gbreve" xMin="130" yMin="-25" xMax="1250" yMax="1950">
      <contour>
        <pt x="363" y="1833" on="1"/>
        <pt x="477" y="1950" on="1"/>
        <pt x="511" y="1921" on="0"/>
        <pt x="517" y="1915" on="1"/>
        <pt x="596" y="1854" on="0"/>
        <pt x="708" y="1854" on="1"/>
        <pt x="800" y="1854" on="0"/>
        <pt x="867" y="1914" on="1"/>
        <pt x="900" y="1947" on="1"/>
        <pt x="1033" y="1845" on="1"/>
        <pt x="976" y="1785" on="0"/>
        <pt x="906" y="1743" on="1"/>
        <pt x="806" y="1683" on="0"/>
        <pt x="580" y="1683" on="0"/>
        <pt x="476" y="1746" on="1"/>
        <pt x="408" y="1787" on="0"/>
      </contour>
      <contour>
        <pt x="130" y="580" on="0"/>
        <pt x="130" y="908" on="0"/>
        <pt x="174" y="1060" on="1"/>
        <pt x="219" y="1216" on="0"/>
        <pt x="294" y="1314" on="1"/>
        <pt x="372" y="1417" on="0"/>
        <pt x="474" y="1476" on="1"/>
        <pt x="577" y="1536" on="0"/>
        <pt x="682" y="1536" on="1"/>
        <pt x="687" y="1536" on="0"/>
        <pt x="692" y="1536" on="1"/>
        <pt x="808" y="1536" on="0"/>
        <pt x="907" y="1484" on="1"/>
        <pt x="975" y="1448" on="0"/>
        <pt x="1015" y="1411" on="1"/>
        <pt x="1023" y="1410" on="1"/>
        <pt x="1123" y="1418" on="0"/>
        <pt x="1155" y="1537" on="1"/>
        <pt x="1155" y="959" on="1"/>
        <pt x="1103" y="1163" on="0"/>
        <pt x="1033" y="1279" on="1"/>
        <pt x="999" y="1332" on="0"/>
        <pt x="946" y="1371" on="1"/>
        <pt x="864" y="1431" on="0"/>
        <pt x="752" y="1431" on="1"/>
        <pt x="634" y="1431" on="0"/>
        <pt x="524" y="1344" on="1"/>
        <pt x="437" y="1259" on="0"/>
        <pt x="388" y="1084" on="1"/>
        <pt x="342" y="919" on="0"/>
        <pt x="342" y="761" on="1"/>
        <pt x="342" y="755" on="0"/>
        <pt x="342" y="748" on="1"/>
        <pt x="342" y="592" on="0"/>
        <pt x="374" y="464" on="1"/>
        <pt x="432" y="249" on="0"/>
        <pt x="498" y="178" on="1"/>
        <pt x="589" y="80" on="0"/>
        <pt x="700" y="80" on="1"/>
        <pt x="794" y="80" on="0"/>
        <pt x="887" y="165" on="1"/>
        <pt x="988" y="277" on="0"/>
        <pt x="1004" y="370" on="1"/>
        <pt x="1009" y="399" on="0"/>
        <pt x="1009" y="424" on="1"/>
        <pt x="1009" y="476" on="0"/>
        <pt x="990" y="510" on="1"/>
        <pt x="985" y="517" on="1"/>
        <pt x="910" y="622" on="0"/>
        <pt x="730" y="642" on="1"/>
        <pt x="1250" y="642" on="1"/>
        <pt x="1240" y="535" on="0"/>
        <pt x="1210" y="440" on="1"/>
        <pt x="1166" y="298" on="0"/>
        <pt x="1090" y="197" on="1"/>
        <pt x="1015" y="97" on="0"/>
        <pt x="910" y="36" on="1"/>
        <pt x="806" y="-25" on="0"/>
        <pt x="578" y="-25" on="0"/>
        <pt x="370" y="96" on="0"/>
        <pt x="294" y="197" on="1"/>
        <pt x="218" y="299" on="0"/>
      </contour>
    </TTGlyph>
    <TTGlyph name="Gcircumflex" xMin="130" yMin="-25" xMax="1250" yMax="1950">
      <contour>
        <pt x="407" y="1583" on="1"/>
        <pt x="595" y="1893" on="1"/>
        <pt x="597" y="1896" on="0"/>
        <pt x="609" y="1910" on="1"/>
        <pt x="627" y="1933" on="0"/>
        <pt x="659" y="1943" on="1"/>
        <pt x="681" y="1950" on="0"/>
        <pt x="697" y="1950" on="1"/>
        <pt x="700" y="1950" on="1"/>
        <pt x="702" y="1950" on="1"/>
        <pt x="716" y="1950" on="0"/>
        <pt x="740" y="1943" on="1"/>
        <pt x="767" y="1935" on="0"/>
        <pt x="790" y="1910" on="1"/>
        <pt x="801" y="1898" on="0"/>
        <pt x="804" y="1893" on="1"/>
        <pt x="992" y="1583" on="1"/>
        <pt x="972" y="1562" on="1"/>
        <pt x="702" y="1742" on="1"/>
        <pt x="427" y="1562" on="1"/>
      </contour>
      <contour>
        <pt x="130" y="580" on="0"/>
        <pt x="130" y="908" on="0"/>
        <pt x="174" y="1060" on="1"/>
        <pt x="219" y="1216" on="0"/>
        <pt x="294" y="1314" on="1"/>
        <pt x="372" y="1417" on="0"/>
        <pt x="474" y="1476" on="1"/>
        <pt x="577" y="1536" on="0"/>
        <pt x="682" y="1536" on="1"/>
        <pt x="687" y="1536" on="0"/>
        <pt x="692" y="1536" on="1"/>
        <pt x="808" y="1536" on="0"/>
        <pt x="907" y="1484" on="1"/>
        <pt x="975" y="1448" on="0"/>
        <pt x="1015" y="1411" on="1"/>
        <pt x="1023" y="1410" on="1"/>
        <pt x="1123" y="1418" on="0"/>
        <pt x="1155" y="1537" on="1"/>
        <pt x="1155" y="959" on="1"/>
        <pt x="1103" y="1163" on="0"/>
        <pt x="1033" y="1279" on="1"/>
        <pt x="999" y="1332" on="0"/>
        <pt x="946" y="1371" on="1"/>
        <pt x="864" y="1431" on="0"/>
        <pt x="752" y="1431" on="1"/>
        <pt x="634" y="1431" on="0"/>
        <pt x="524" y="1344" on="1"/>
        <pt x="437" y="1259" on="0"/>
        <pt x="388" y="1084" on="1"/>
        <pt x="342" y="919" on="0"/>
        <pt x="342" y="761" on="1"/>
        <pt x="342" y="755" on="0"/>
        <pt x="342" y="748" on="1"/>
        <pt x="342" y="592" on="0"/>
        <pt x="374" y="464" on="1"/>
        <pt x="432" y="249" on="0"/>
        <pt x="498" y="178" on="1"/>
        <pt x="589" y="80" on="0"/>
        <pt x="700" y="80" on="1"/>
        <pt x="794" y="80" on="0"/>
        <pt x="887" y="165" on="1"/>
        <pt x="988" y="277" on="0"/>
        <pt x="1004" y="370" on="1"/>
        <pt x="1009" y="399" on="0"/>
        <pt x="1009" y="424" on="1"/>
        <pt x="1009" y="476" on="0"/>
        <pt x="990" y="510" on="1"/>
        <pt x="985" y="517" on="1"/>
        <pt x="910" y="622" on="0"/>
        <pt x="730" y="642" on="1"/>
        <pt x="1250" y="642" on="1"/>
        <pt x="1240" y="535" on="0"/>
        <pt x="1210" y="440" on="1"/>
        <pt x="1166" y="298" on="0"/>
        <pt x="1090" y="197" on="1"/>
        <pt x="1015" y="97" on="0"/>
        <pt x="910" y="36" on="1"/>
        <pt x="806" y="-25" on="0"/>
        <pt x="578" y="-25" on="0"/>
        <pt x="370" y="96" on="0"/>
        <pt x="294" y="197" on="1"/>
        <pt x="218" y="299" on="0"/>
      </contour>
    </TTGlyph>
    <TTGlyph name="Gcommaaccent" xMin="130" yMin="-433" xMax="1250" yMax="1537">
      <contour>
        <pt x="712" y="-66" on="1"/>
        <pt x="524" y="-376" on="1"/>
        <pt x="521" y="-381" on="0"/>
        <pt x="510" y="-393" on="1"/>
        <pt x="484" y="-422" on="0"/>
        <pt x="446" y="-430" on="1"/>
        <pt x="431" y="-433" on="0"/>
        <pt x="417" y="-433" on="1"/>
        <pt x="373" y="-433" on="0"/>
        <pt x="341" y="-401" on="1"/>
        <pt x="312" y="-372" on="0"/>
        <pt x="312" y="-328" on="1"/>
        <pt x="312" y="-320" on="0"/>
        <pt x="313" y="-310" on="1"/>
        <pt x="317" y="-265" on="0"/>
        <pt x="348" y="-242" on="1"/>
        <pt x="365" y="-228" on="1"/>
        <pt x="692" y="-45" on="1"/>
      </contour>
      <contour>
        <pt x="130" y="580" on="0"/>
        <pt x="130" y="908" on="0"/>
        <pt x="174" y="1060" on="1"/>
        <pt x="219" y="1216" on="0"/>
        <pt x="294" y="1314" on="1"/>
        <pt x="372" y="1417" on="0"/>
        <pt x="474" y="1476" on="1"/>
        <pt x="577" y="1536" on="0"/>
        <pt x="682" y="1536" on="1"/>
        <pt x="687" y="1536" on="0"/>
        <pt x="692" y="1536" on="1"/>
        <pt x="808" y="1536" on="0"/>
        <pt x="907" y="1484" on="1"/>
        <pt x="975" y="1448" on="0"/>
        <pt x="1015" y="1411" on="1"/>
        <pt x="1023" y="1410" on="1"/>
        <pt x="1123" y="1418" on="0"/>
        <pt x="1155" y="1537" on="1"/>
        <pt x="1155" y="959" on="1"/>
        <pt x="1103" y="1163" on="0"/>
        <pt x="1033" y="1279" on="1"/>
        <pt x="999" y="1332" on="0"/>
        <pt x="946" y="1371" on="1"/>
        <pt x="864" y="1431" on="0"/>
        <pt x="752" y="1431" on="1"/>
        <pt x="634" y="1431" on="0"/>
        <pt x="524" y="1344" on="1"/>
        <pt x="437" y="1259" on="0"/>
        <pt x="388" y="1084" on="1"/>
        <pt x="342" y="919" on="0"/>
        <pt x="342" y="761" on="1"/>
        <pt x="342" y="755" on="0"/>
        <pt x="342" y="748" on="1"/>
        <pt x="342" y="592" on="0"/>
        <pt x="374" y="464" on="1"/>
        <pt x="432" y="249" on="0"/>
        <pt x="498" y="178" on="1"/>
        <pt x="589" y="80" on="0"/>
        <pt x="700" y="80" on="1"/>
        <pt x="794" y="80" on="0"/>
        <pt x="887" y="165" on="1"/>
        <pt x="988" y="277" on="0"/>
        <pt x="1004" y="370" on="1"/>
        <pt x="1009" y="399" on="0"/>
        <pt x="1009" y="424" on="1"/>
        <pt x="1009" y="476" on="0"/>
        <pt x="990" y="510" on="1"/>
        <pt x="985" y="517" on="1"/>
        <pt x="910" y="622" on="0"/>
        <pt x="730" y="642" on="1"/>
        <pt x="1250" y="642" on="1"/>
        <pt x="1240" y="535" on="0"/>
        <pt x="1210" y="440" on="1"/>
        <pt x="1166" y="298" on="0"/>
        <pt x="1090" y="197" on="1"/>
        <pt x="1015" y="97" on="0"/>
        <pt x="910" y="36" on="1"/>
        <pt x="806" y="-25" on="0"/>
        <pt x="578" y="-25" on="0"/>
        <pt x="370" y="96" on="0"/>
        <pt x="294" y="197" on="1"/>
        <pt x="218" y="299" on="0"/>
      </contour>
    </TTGlyph>
    <TTGlyph name="Gdotaccent" xMin="130" yMin="-25" xMax="1250" yMax="1936">
      <contour>
        <pt x="560" y="1749" on="0"/>
        <pt x="560" y="1859" on="0"/>
        <pt x="636" y="1936" on="0"/>
        <pt x="744" y="1936" on="0"/>
        <pt x="820" y="1859" on="0"/>
        <pt x="820" y="1749" on="0"/>
        <pt x="744" y="1672" on="0"/>
        <pt x="636" y="1672" on="0"/>
      </contour>
      <contour>
        <pt x="130" y="580" on="0"/>
        <pt x="130" y="908" on="0"/>
        <pt x="174" y="1060" on="1"/>
        <pt x="219" y="1216" on="0"/>
        <pt x="294" y="1314" on="1"/>
        <pt x="372" y="1417" on="0"/>
        <pt x="474" y="1476" on="1"/>
        <pt x="577" y="1536" on="0"/>
        <pt x="682" y="1536" on="1"/>
        <pt x="687" y="1536" on="0"/>
        <pt x="692" y="1536" on="1"/>
        <pt x="808" y="1536" on="0"/>
        <pt x="907" y="1484" on="1"/>
        <pt x="975" y="1448" on="0"/>
        <pt x="1015" y="1411" on="1"/>
        <pt x="1023" y="1410" on="1"/>
        <pt x="1123" y="1418" on="0"/>
        <pt x="1155" y="1537" on="1"/>
        <pt x="1155" y="959" on="1"/>
        <pt x="1103" y="1163" on="0"/>
        <pt x="1033" y="1279" on="1"/>
        <pt x="999" y="1332" on="0"/>
        <pt x="946" y="1371" on="1"/>
        <pt x="864" y="1431" on="0"/>
        <pt x="752" y="1431" on="1"/>
        <pt x="634" y="1431" on="0"/>
        <pt x="524" y="1344" on="1"/>
        <pt x="437" y="1259" on="0"/>
        <pt x="388" y="1084" on="1"/>
        <pt x="342" y="919" on="0"/>
        <pt x="342" y="761" on="1"/>
        <pt x="342" y="755" on="0"/>
        <pt x="342" y="748" on="1"/>
        <pt x="342" y="592" on="0"/>
        <pt x="374" y="464" on="1"/>
        <pt x="432" y="249" on="0"/>
        <pt x="498" y="178" on="1"/>
        <pt x="589" y="80" on="0"/>
        <pt x="700" y="80" on="1"/>
        <pt x="794" y="80" on="0"/>
        <pt x="887" y="165" on="1"/>
        <pt x="988" y="277" on="0"/>
        <pt x="1004" y="370" on="1"/>
        <pt x="1009" y="399" on="0"/>
        <pt x="1009" y="424" on="1"/>
        <pt x="1009" y="476" on="0"/>
        <pt x="990" y="510" on="1"/>
        <pt x="985" y="517" on="1"/>
        <pt x="910" y="622" on="0"/>
        <pt x="730" y="642" on="1"/>
        <pt x="1250" y="642" on="1"/>
        <pt x="1240" y="535" on="0"/>
        <pt x="1210" y="440" on="1"/>
        <pt x="1166" y="298" on="0"/>
        <pt x="1090" y="197" on="1"/>
        <pt x="1015" y="97" on="0"/>
        <pt x="910" y="36" on="1"/>
        <pt x="806" y="-25" on="0"/>
        <pt x="578" y="-25" on="0"/>
        <pt x="370" y="96" on="0"/>
        <pt x="294" y="197" on="1"/>
        <pt x="218" y="299" on="0"/>
      </contour>
    </TTGlyph>
    <TTGlyph name="H" xMin="60" yMin="0" xMax="1487" yMax="1511">
      <contour>
        <pt x="60" y="0" on="1"/>
        <pt x="184" y="24" on="0"/>
        <pt x="248" y="140" on="1"/>
        <pt x="250" y="148" on="1"/>
        <pt x="250" y="1363" on="1"/>
        <pt x="248" y="1371" on="1"/>
        <pt x="184" y="1487" on="0"/>
        <pt x="60" y="1511" on="1"/>
        <pt x="638" y="1511" on="1"/>
        <pt x="504" y="1483" on="0"/>
        <pt x="450" y="1372" on="1"/>
        <pt x="448" y="1363" on="1"/>
        <pt x="448" y="642" on="1"/>
        <pt x="1099" y="642" on="1"/>
        <pt x="1099" y="1363" on="1"/>
        <pt x="1097" y="1371" on="1"/>
        <pt x="1033" y="1487" on="0"/>
        <pt x="909" y="1511" on="1"/>
        <pt x="1487" y="1511" on="1"/>
        <pt x="1353" y="1483" on="0"/>
        <pt x="1299" y="1372" on="1"/>
        <pt x="1297" y="1363" on="1"/>
        <pt x="1297" y="148" on="1"/>
        <pt x="1299" y="139" on="1"/>
        <pt x="1353" y="28" on="0"/>
        <pt x="1487" y="0" on="1"/>
        <pt x="909" y="0" on="1"/>
        <pt x="1033" y="24" on="0"/>
        <pt x="1097" y="140" on="1"/>
        <pt x="1099" y="148" on="1"/>
        <pt x="1099" y="540" on="1"/>
        <pt x="448" y="540" on="1"/>
        <pt x="448" y="148" on="1"/>
        <pt x="450" y="139" on="1"/>
        <pt x="504" y="28" on="0"/>
        <pt x="638" y="0" on="1"/>
      </contour>
    </TTGlyph>
    <TTGlyph name="Hbar" xMin="-32" yMin="0" xMax="1581" yMax="1511">
      <contour>
        <pt x="60" y="0" on="1"/>
        <pt x="184" y="24" on="0"/>
        <pt x="248" y="140" on="1"/>
        <pt x="250" y="148" on="1"/>
        <pt x="250" y="984" on="1"/>
        <pt x="165" y="984" on="1"/>
        <pt x="157" y="984" on="1"/>
        <pt x="31" y="977" on="0"/>
        <pt x="-32" y="908" on="1"/>
        <pt x="147" y="1202" on="1"/>
        <pt x="141" y="1177" on="0"/>
        <pt x="141" y="1151" on="1"/>
        <pt x="141" y="1086" on="0"/>
        <pt x="212" y="1086" on="1"/>
        <pt x="217" y="1086" on="1"/>
        <pt x="221" y="1086" on="1"/>
        <pt x="250" y="1086" on="1"/>
        <pt x="250" y="1363" on="1"/>
        <pt x="248" y="1371" on="1"/>
        <pt x="184" y="1487" on="0"/>
        <pt x="60" y="1511" on="1"/>
        <pt x="638" y="1511" on="1"/>
        <pt x="504" y="1483" on="0"/>
        <pt x="450" y="1372" on="1"/>
        <pt x="448" y="1363" on="1"/>
        <pt x="448" y="1086" on="1"/>
        <pt x="1099" y="1086" on="1"/>
        <pt x="1099" y="1363" on="1"/>
        <pt x="1097" y="1371" on="1"/>
        <pt x="1033" y="1487" on="0"/>
        <pt x="909" y="1511" on="1"/>
        <pt x="1487" y="1511" on="1"/>
        <pt x="1353" y="1483" on="0"/>
        <pt x="1299" y="1372" on="1"/>
        <pt x="1297" y="1363" on="1"/>
        <pt x="1297" y="1086" on="1"/>
        <pt x="1384" y="1086" on="1"/>
        <pt x="1392" y="1086" on="1"/>
        <pt x="1518" y="1093" on="0"/>
        <pt x="1581" y="1162" on="1"/>
        <pt x="1402" y="868" on="1"/>
        <pt x="1408" y="893" on="0"/>
        <pt x="1408" y="919" on="1"/>
        <pt x="1408" y="984" on="0"/>
        <pt x="1337" y="984" on="1"/>
        <pt x="1332" y="984" on="1"/>
        <pt x="1328" y="984" on="1"/>
        <pt x="1297" y="984" on="1"/>
        <pt x="1297" y="148" on="1"/>
        <pt x="1299" y="139" on="1"/>
        <pt x="1353" y="28" on="0"/>
        <pt x="1487" y="0" on="1"/>
        <pt x="909" y="0" on="1"/>
        <pt x="1033" y="24" on="0"/>
        <pt x="1097" y="140" on="1"/>
        <pt x="1099" y="148" on="1"/>
        <pt x="1099" y="540" on="1"/>
        <pt x="448" y="540" on="1"/>
        <pt x="448" y="148" on="1"/>
        <pt x="450" y="139" on="1"/>
        <pt x="504" y="28" on="0"/>
        <pt x="638" y="0" on="1"/>
      </contour>
      <contour>
        <pt x="1099" y="984" on="1"/>
        <pt x="448" y="984" on="1"/>
        <pt x="448" y="642" on="1"/>
        <pt x="1099" y="642" on="1"/>
      </contour>
    </TTGlyph>
    <TTGlyph name="Hcircumflex" xMin="60" yMin="0" xMax="1487" yMax="1950">
      <contour>
        <pt x="492" y="1583" on="1"/>
        <pt x="680" y="1893" on="1"/>
        <pt x="682" y="1896" on="0"/>
        <pt x="694" y="1910" on="1"/>
        <pt x="712" y="1933" on="0"/>
        <pt x="744" y="1943" on="1"/>
        <pt x="766" y="1950" on="0"/>
        <pt x="782" y="1950" on="1"/>
        <pt x="785" y="1950" on="1"/>
        <pt x="787" y="1950" on="1"/>
        <pt x="801" y="1950" on="0"/>
        <pt x="825" y="1943" on="1"/>
        <pt x="852" y="1935" on="0"/>
        <pt x="875" y="1910" on="1"/>
        <pt x="886" y="1898" on="0"/>
        <pt x="889" y="1893" on="1"/>
        <pt x="1077" y="1583" on="1"/>
        <pt x="1057" y="1562" on="1"/>
        <pt x="787" y="1742" on="1"/>
        <pt x="512" y="1562" on="1"/>
      </contour>
      <contour>
        <pt x="60" y="0" on="1"/>
        <pt x="184" y="24" on="0"/>
        <pt x="248" y="140" on="1"/>
        <pt x="250" y="148" on="1"/>
        <pt x="250" y="1363" on="1"/>
        <pt x="248" y="1371" on="1"/>
        <pt x="184" y="1487" on="0"/>
        <pt x="60" y="1511" on="1"/>
        <pt x="638" y="1511" on="1"/>
        <pt x="504" y="1483" on="0"/>
        <pt x="450" y="1372" on="1"/>
        <pt x="448" y="1363" on="1"/>
        <pt x="448" y="642" on="1"/>
        <pt x="1099" y="642" on="1"/>
        <pt x="1099" y="1363" on="1"/>
        <pt x="1097" y="1371" on="1"/>
        <pt x="1033" y="1487" on="0"/>
        <pt x="909" y="1511" on="1"/>
        <pt x="1487" y="1511" on="1"/>
        <pt x="1353" y="1483" on="0"/>
        <pt x="1299" y="1372" on="1"/>
        <pt x="1297" y="1363" on="1"/>
        <pt x="1297" y="148" on="1"/>
        <pt x="1299" y="139" on="1"/>
        <pt x="1353" y="28" on="0"/>
        <pt x="1487" y="0" on="1"/>
        <pt x="909" y="0" on="1"/>
        <pt x="1033" y="24" on="0"/>
        <pt x="1097" y="140" on="1"/>
        <pt x="1099" y="148" on="1"/>
        <pt x="1099" y="540" on="1"/>
        <pt x="448" y="540" on="1"/>
        <pt x="448" y="148" on="1"/>
        <pt x="450" y="139" on="1"/>
        <pt x="504" y="28" on="0"/>
        <pt x="638" y="0" on="1"/>
      </contour>
    </TTGlyph>
    <TTGlyph name="I" xMin="60" yMin="0" xMax="638" yMax="1511">
      <contour>
        <pt x="60" y="0" on="1"/>
        <pt x="184" y="24" on="0"/>
        <pt x="248" y="140" on="1"/>
        <pt x="250" y="148" on="1"/>
        <pt x="250" y="1363" on="1"/>
        <pt x="248" y="1371" on="1"/>
        <pt x="184" y="1487" on="0"/>
        <pt x="60" y="1511" on="1"/>
        <pt x="638" y="1511" on="1"/>
        <pt x="504" y="1483" on="0"/>
        <pt x="450" y="1372" on="1"/>
        <pt x="448" y="1363" on="1"/>
        <pt x="448" y="148" on="1"/>
        <pt x="450" y="139" on="1"/>
        <pt x="504" y="28" on="0"/>
        <pt x="638" y="0" on="1"/>
      </contour>
    </TTGlyph>
    <TTGlyph name="IJ" xMin="60" yMin="-312" xMax="1332" yMax="1511">
      <contour>
        <pt x="754" y="-312" on="1"/>
        <pt x="944" y="-109" on="0"/>
        <pt x="944" y="137" on="1"/>
        <pt x="944" y="139" on="0"/>
        <pt x="944" y="140" on="1"/>
        <pt x="944" y="148" on="1"/>
        <pt x="944" y="1363" on="1"/>
        <pt x="942" y="1371" on="1"/>
        <pt x="878" y="1487" on="0"/>
        <pt x="754" y="1511" on="1"/>
        <pt x="1332" y="1511" on="1"/>
        <pt x="1198" y="1483" on="0"/>
        <pt x="1144" y="1372" on="1"/>
        <pt x="1142" y="1363" on="1"/>
        <pt x="1142" y="148" on="1"/>
        <pt x="1142" y="140" on="1"/>
        <pt x="1142" y="-195" on="0"/>
        <pt x="761" y="-311" on="1"/>
      </contour>
      <contour>
        <pt x="60" y="0" on="1"/>
        <pt x="184" y="24" on="0"/>
        <pt x="248" y="140" on="1"/>
        <pt x="250" y="148" on="1"/>
        <pt x="250" y="1363" on="1"/>
        <pt x="248" y="1371" on="1"/>
        <pt x="184" y="1487" on="0"/>
        <pt x="60" y="1511" on="1"/>
        <pt x="638" y="1511" on="1"/>
        <pt x="504" y="1483" on="0"/>
        <pt x="450" y="1372" on="1"/>
        <pt x="448" y="1363" on="1"/>
        <pt x="448" y="148" on="1"/>
        <pt x="450" y="139" on="1"/>
        <pt x="504" y="28" on="0"/>
        <pt x="638" y="0" on="1"/>
      </contour>
    </TTGlyph>
    <TTGlyph name="Iacute" xMin="60" yMin="0" xMax="729" yMax="1950">
      <contour>
        <pt x="329" y="1583" on="1"/>
        <pt x="517" y="1893" on="1"/>
        <pt x="520" y="1898" on="0"/>
        <pt x="531" y="1910" on="1"/>
        <pt x="557" y="1939" on="0"/>
        <pt x="595" y="1947" on="1"/>
        <pt x="610" y="1950" on="0"/>
        <pt x="624" y="1950" on="1"/>
        <pt x="668" y="1950" on="0"/>
        <pt x="700" y="1918" on="1"/>
        <pt x="729" y="1889" on="0"/>
        <pt x="729" y="1845" on="1"/>
        <pt x="729" y="1837" on="0"/>
        <pt x="728" y="1827" on="1"/>
        <pt x="724" y="1782" on="0"/>
        <pt x="693" y="1759" on="1"/>
        <pt x="676" y="1745" on="1"/>
        <pt x="349" y="1562" on="1"/>
      </contour>
      <contour>
        <pt x="60" y="0" on="1"/>
        <pt x="184" y="24" on="0"/>
        <pt x="248" y="140" on="1"/>
        <pt x="250" y="148" on="1"/>
        <pt x="250" y="1363" on="1"/>
        <pt x="248" y="1371" on="1"/>
        <pt x="184" y="1487" on="0"/>
        <pt x="60" y="1511" on="1"/>
        <pt x="638" y="1511" on="1"/>
        <pt x="504" y="1483" on="0"/>
        <pt x="450" y="1372" on="1"/>
        <pt x="448" y="1363" on="1"/>
        <pt x="448" y="148" on="1"/>
        <pt x="450" y="139" on="1"/>
        <pt x="504" y="28" on="0"/>
        <pt x="638" y="0" on="1"/>
      </contour>
    </TTGlyph>
    <TTGlyph name="Ibreve" xMin="14" yMin="0" xMax="684" yMax="1950">
      <contour>
        <pt x="14" y="1833" on="1"/>
        <pt x="128" y="1950" on="1"/>
        <pt x="162" y="1921" on="0"/>
        <pt x="168" y="1915" on="1"/>
        <pt x="247" y="1854" on="0"/>
        <pt x="359" y="1854" on="1"/>
        <pt x="451" y="1854" on="0"/>
        <pt x="518" y="1914" on="1"/>
        <pt x="551" y="1947" on="1"/>
        <pt x="684" y="1845" on="1"/>
        <pt x="627" y="1785" on="0"/>
        <pt x="557" y="1743" on="1"/>
        <pt x="457" y="1683" on="0"/>
        <pt x="231" y="1683" on="0"/>
        <pt x="127" y="1746" on="1"/>
        <pt x="59" y="1787" on="0"/>
      </contour>
      <contour>
        <pt x="60" y="0" on="1"/>
        <pt x="184" y="24" on="0"/>
        <pt x="248" y="140" on="1"/>
        <pt x="250" y="148" on="1"/>
        <pt x="250" y="1363" on="1"/>
        <pt x="248" y="1371" on="1"/>
        <pt x="184" y="1487" on="0"/>
        <pt x="60" y="1511" on="1"/>
        <pt x="638" y="1511" on="1"/>
        <pt x="504" y="1483" on="0"/>
        <pt x="450" y="1372" on="1"/>
        <pt x="448" y="1363" on="1"/>
        <pt x="448" y="148" on="1"/>
        <pt x="450" y="139" on="1"/>
        <pt x="504" y="28" on="0"/>
        <pt x="638" y="0" on="1"/>
      </contour>
    </TTGlyph>
    <TTGlyph name="Icircumflex" xMin="56" yMin="0" xMax="642" yMax="1950">
      <contour>
        <pt x="60" y="0" on="1"/>
        <pt x="184" y="24" on="0"/>
        <pt x="248" y="140" on="1"/>
        <pt x="250" y="148" on="1"/>
        <pt x="250" y="1363" on="1"/>
        <pt x="248" y="1371" on="1"/>
        <pt x="184" y="1487" on="0"/>
        <pt x="60" y="1511" on="1"/>
        <pt x="638" y="1511" on="1"/>
        <pt x="504" y="1483" on="0"/>
        <pt x="450" y="1372" on="1"/>
        <pt x="448" y="1363" on="1"/>
        <pt x="448" y="148" on="1"/>
        <pt x="450" y="139" on="1"/>
        <pt x="504" y="28" on="0"/>
        <pt x="638" y="0" on="1"/>
      </contour>
      <contour>
        <pt x="56" y="1583" on="1"/>
        <pt x="244" y="1893" on="1"/>
        <pt x="248" y="1899" on="0"/>
        <pt x="258" y="1910" on="1"/>
        <pt x="281" y="1935" on="0"/>
        <pt x="308" y="1943" on="1"/>
        <pt x="331" y="1950" on="0"/>
        <pt x="346" y="1950" on="1"/>
        <pt x="350" y="1950" on="1"/>
        <pt x="352" y="1950" on="1"/>
        <pt x="366" y="1950" on="0"/>
        <pt x="390" y="1943" on="1"/>
        <pt x="419" y="1934" on="0"/>
        <pt x="440" y="1910" on="1"/>
        <pt x="451" y="1897" on="0"/>
        <pt x="454" y="1893" on="1"/>
        <pt x="642" y="1583" on="1"/>
        <pt x="622" y="1562" on="1"/>
        <pt x="352" y="1742" on="1"/>
        <pt x="76" y="1562" on="1"/>
      </contour>
    </TTGlyph>
    <TTGlyph name="Idieresis" xMin="50" yMin="0" xMax="648" yMax="1936">
      <contour>
        <pt x="60" y="0" on="1"/>
        <pt x="184" y="24" on="0"/>
        <pt x="248" y="140" on="1"/>
        <pt x="250" y="148" on="1"/>
        <pt x="250" y="1363" on="1"/>
        <pt x="248" y="1371" on="1"/>
        <pt x="184" y="1487" on="0"/>
        <pt x="60" y="1511" on="1"/>
        <pt x="638" y="1511" on="1"/>
        <pt x="504" y="1483" on="0"/>
        <pt x="450" y="1372" on="1"/>
        <pt x="448" y="1363" on="1"/>
        <pt x="448" y="148" on="1"/>
        <pt x="450" y="139" on="1"/>
        <pt x="504" y="28" on="0"/>
        <pt x="638" y="0" on="1"/>
      </contour>
      <contour>
        <pt x="388" y="1804" on="1"/>
        <pt x="388" y="1860" on="0"/>
        <pt x="464" y="1936" on="0"/>
        <pt x="518" y="1936" on="1"/>
        <pt x="573" y="1936" on="0"/>
        <pt x="610" y="1898" on="1"/>
        <pt x="648" y="1859" on="0"/>
        <pt x="648" y="1804" on="1"/>
        <pt x="648" y="1748" on="0"/>
        <pt x="572" y="1672" on="0"/>
        <pt x="464" y="1672" on="0"/>
        <pt x="388" y="1749" on="0"/>
      </contour>
      <contour>
        <pt x="50" y="1804" on="1"/>
        <pt x="50" y="1860" on="0"/>
        <pt x="126" y="1936" on="0"/>
        <pt x="180" y="1936" on="1"/>
        <pt x="235" y="1936" on="0"/>
        <pt x="272" y="1898" on="1"/>
        <pt x="310" y="1859" on="0"/>
        <pt x="310" y="1804" on="1"/>
        <pt x="310" y="1748" on="0"/>
        <pt x="234" y="1672" on="0"/>
        <pt x="126" y="1672" on="0"/>
        <pt x="50" y="1749" on="0"/>
      </contour>
    </TTGlyph>
    <TTGlyph name="Idotaccent" xMin="60" yMin="0" xMax="638" yMax="1936">
      <contour>
        <pt x="232" y="1749" on="0"/>
        <pt x="232" y="1859" on="0"/>
        <pt x="308" y="1936" on="0"/>
        <pt x="416" y="1936" on="0"/>
        <pt x="492" y="1859" on="0"/>
        <pt x="492" y="1749" on="0"/>
        <pt x="416" y="1672" on="0"/>
        <pt x="308" y="1672" on="0"/>
      </contour>
      <contour>
        <pt x="60" y="0" on="1"/>
        <pt x="184" y="24" on="0"/>
        <pt x="248" y="140" on="1"/>
        <pt x="250" y="148" on="1"/>
        <pt x="250" y="1363" on="1"/>
        <pt x="248" y="1371" on="1"/>
        <pt x="184" y="1487" on="0"/>
        <pt x="60" y="1511" on="1"/>
        <pt x="638" y="1511" on="1"/>
        <pt x="504" y="1483" on="0"/>
        <pt x="450" y="1372" on="1"/>
        <pt x="448" y="1363" on="1"/>
        <pt x="448" y="148" on="1"/>
        <pt x="450" y="139" on="1"/>
        <pt x="504" y="28" on="0"/>
        <pt x="638" y="0" on="1"/>
      </contour>
    </TTGlyph>
    <TTGlyph name="Igrave" xMin="-31" yMin="0" xMax="638" yMax="1950">
      <contour>
        <pt x="369" y="1583" on="1"/>
        <pt x="349" y="1562" on="1"/>
        <pt x="22" y="1745" on="1"/>
        <pt x="5" y="1759" on="1"/>
        <pt x="-26" y="1782" on="0"/>
        <pt x="-30" y="1827" on="1"/>
        <pt x="-31" y="1837" on="0"/>
        <pt x="-31" y="1845" on="1"/>
        <pt x="-31" y="1889" on="0"/>
        <pt x="-2" y="1918" on="1"/>
        <pt x="30" y="1950" on="0"/>
        <pt x="74" y="1950" on="1"/>
        <pt x="88" y="1950" on="0"/>
        <pt x="103" y="1947" on="1"/>
        <pt x="141" y="1939" on="0"/>
        <pt x="167" y="1910" on="1"/>
        <pt x="178" y="1898" on="0"/>
        <pt x="181" y="1893" on="1"/>
      </contour>
      <contour>
        <pt x="60" y="0" on="1"/>
        <pt x="184" y="24" on="0"/>
        <pt x="248" y="140" on="1"/>
        <pt x="250" y="148" on="1"/>
        <pt x="250" y="1363" on="1"/>
        <pt x="248" y="1371" on="1"/>
        <pt x="184" y="1487" on="0"/>
        <pt x="60" y="1511" on="1"/>
        <pt x="638" y="1511" on="1"/>
        <pt x="504" y="1483" on="0"/>
        <pt x="450" y="1372" on="1"/>
        <pt x="448" y="1363" on="1"/>
        <pt x="448" y="148" on="1"/>
        <pt x="450" y="139" on="1"/>
        <pt x="504" y="28" on="0"/>
        <pt x="638" y="0" on="1"/>
      </contour>
    </TTGlyph>
    <TTGlyph name="Imacron" xMin="58" yMin="0" xMax="640" yMax="1950">
      <contour>
        <pt x="60" y="0" on="1"/>
        <pt x="184" y="24" on="0"/>
        <pt x="248" y="140" on="1"/>
        <pt x="250" y="148" on="1"/>
        <pt x="250" y="1363" on="1"/>
        <pt x="248" y="1371" on="1"/>
        <pt x="184" y="1487" on="0"/>
        <pt x="60" y="1511" on="1"/>
        <pt x="638" y="1511" on="1"/>
        <pt x="504" y="1483" on="0"/>
        <pt x="450" y="1372" on="1"/>
        <pt x="448" y="1363" on="1"/>
        <pt x="448" y="148" on="1"/>
        <pt x="450" y="139" on="1"/>
        <pt x="504" y="28" on="0"/>
        <pt x="638" y="0" on="1"/>
      </contour>
      <contour>
        <pt x="58" y="1950" on="1"/>
        <pt x="640" y="1950" on="1"/>
        <pt x="640" y="1773" on="1"/>
        <pt x="58" y="1773" on="1"/>
      </contour>
    </TTGlyph>
    <TTGlyph name="Iogonek" xMin="60" yMin="-433" xMax="638" yMax="1511">
      <contour>
        <pt x="60" y="0" on="1"/>
        <pt x="184" y="24" on="0"/>
        <pt x="248" y="140" on="1"/>
        <pt x="250" y="148" on="1"/>
        <pt x="250" y="1363" on="1"/>
        <pt x="248" y="1371" on="1"/>
        <pt x="184" y="1487" on="0"/>
        <pt x="60" y="1511" on="1"/>
        <pt x="638" y="1511" on="1"/>
        <pt x="504" y="1483" on="0"/>
        <pt x="450" y="1372" on="1"/>
        <pt x="448" y="1363" on="1"/>
        <pt x="448" y="148" on="1"/>
        <pt x="450" y="139" on="1"/>
        <pt x="504" y="28" on="0"/>
        <pt x="638" y="0" on="1"/>
        <pt x="348" y="0" on="1"/>
        <pt x="337" y="-23" on="0"/>
        <pt x="329" y="-51" on="1"/>
        <pt x="316" y="-96" on="0"/>
        <pt x="316" y="-137" on="1"/>
        <pt x="316" y="-150" on="1"/>
        <pt x="317" y="-176" on="1"/>
        <pt x="344" y="-167" on="0"/>
        <pt x="368" y="-167" on="1"/>
        <pt x="401" y="-167" on="0"/>
        <pt x="428" y="-183" on="1"/>
        <pt x="476" y="-212" on="0"/>
        <pt x="492" y="-268" on="1"/>
        <pt x="497" y="-286" on="0"/>
        <pt x="497" y="-304" on="1"/>
        <pt x="497" y="-337" on="0"/>
        <pt x="480" y="-368" on="1"/>
        <pt x="454" y="-416" on="0"/>
        <pt x="401" y="-429" on="1"/>
        <pt x="385" y="-433" on="0"/>
        <pt x="368" y="-433" on="1"/>
        <pt x="337" y="-433" on="0"/>
        <pt x="303" y="-418" on="1"/>
        <pt x="251" y="-395" on="0"/>
        <pt x="226" y="-333" on="1"/>
        <pt x="217" y="-311" on="0"/>
        <pt x="211" y="-290" on="1"/>
        <pt x="200" y="-252" on="0"/>
        <pt x="200" y="-219" on="1"/>
        <pt x="200" y="-166" on="0"/>
        <pt x="208" y="-129" on="1"/>
        <pt x="225" y="-51" on="0"/>
        <pt x="256" y="0" on="1"/>
      </contour>
    </TTGlyph>
    <TTGlyph name="Itilde" xMin="30" yMin="0" xMax="668" yMax="1950">
      <contour>
        <pt x="60" y="0" on="1"/>
        <pt x="184" y="24" on="0"/>
        <pt x="248" y="140" on="1"/>
        <pt x="250" y="148" on="1"/>
        <pt x="250" y="1363" on="1"/>
        <pt x="248" y="1371" on="1"/>
        <pt x="184" y="1487" on="0"/>
        <pt x="60" y="1511" on="1"/>
        <pt x="638" y="1511" on="1"/>
        <pt x="504" y="1483" on="0"/>
        <pt x="450" y="1372" on="1"/>
        <pt x="448" y="1363" on="1"/>
        <pt x="448" y="148" on="1"/>
        <pt x="450" y="139" on="1"/>
        <pt x="504" y="28" on="0"/>
        <pt x="638" y="0" on="1"/>
      </contour>
      <contour>
        <pt x="30" y="1700" on="1"/>
        <pt x="89" y="1950" on="0"/>
        <pt x="215" y="1950" on="1"/>
        <pt x="228" y="1950" on="0"/>
        <pt x="245" y="1946" on="1"/>
        <pt x="283" y="1937" on="0"/>
        <pt x="375" y="1875" on="1"/>
        <pt x="462" y="1814" on="1"/>
        <pt x="488" y="1792" on="0"/>
        <pt x="520" y="1792" on="1"/>
        <pt x="522" y="1792" on="0"/>
        <pt x="523" y="1792" on="1"/>
        <pt x="584" y="1792" on="0"/>
        <pt x="668" y="1902" on="1"/>
        <pt x="614" y="1645" on="0"/>
        <pt x="486" y="1633" on="1"/>
        <pt x="474" y="1632" on="0"/>
        <pt x="462" y="1635" on="1"/>
        <pt x="422" y="1645" on="0"/>
        <pt x="331" y="1709" on="1"/>
        <pt x="245" y="1767" on="1"/>
        <pt x="217" y="1787" on="0"/>
        <pt x="183" y="1788" on="1"/>
        <pt x="182" y="1788" on="1"/>
        <pt x="118" y="1788" on="0"/>
      </contour>
    </TTGlyph>
    <TTGlyph name="J" xMin="60" yMin="-312" xMax="638" yMax="1511">
      <contour>
        <pt x="60" y="-312" on="1"/>
        <pt x="250" y="-109" on="0"/>
        <pt x="250" y="137" on="1"/>
        <pt x="250" y="139" on="0"/>
        <pt x="250" y="140" on="1"/>
        <pt x="250" y="148" on="1"/>
        <pt x="250" y="1363" on="1"/>
        <pt x="248" y="1371" on="1"/>
        <pt x="184" y="1487" on="0"/>
        <pt x="60" y="1511" on="1"/>
        <pt x="638" y="1511" on="1"/>
        <pt x="504" y="1483" on="0"/>
        <pt x="450" y="1372" on="1"/>
        <pt x="448" y="1363" on="1"/>
        <pt x="448" y="148" on="1"/>
        <pt x="448" y="140" on="1"/>
        <pt x="448" y="-195" on="0"/>
        <pt x="67" y="-311" on="1"/>
      </contour>
    </TTGlyph>
    <TTGlyph name="Jcircumflex" xMin="56" yMin="-312" xMax="642" yMax="1950">
      <contour>
        <pt x="56" y="1583" on="1"/>
        <pt x="244" y="1893" on="1"/>
        <pt x="248" y="1899" on="0"/>
        <pt x="258" y="1910" on="1"/>
        <pt x="281" y="1935" on="0"/>
        <pt x="308" y="1943" on="1"/>
        <pt x="331" y="1950" on="0"/>
        <pt x="346" y="1950" on="1"/>
        <pt x="350" y="1950" on="1"/>
        <pt x="352" y="1950" on="1"/>
        <pt x="366" y="1950" on="0"/>
        <pt x="390" y="1943" on="1"/>
        <pt x="419" y="1934" on="0"/>
        <pt x="440" y="1910" on="1"/>
        <pt x="451" y="1897" on="0"/>
        <pt x="454" y="1893" on="1"/>
        <pt x="642" y="1583" on="1"/>
        <pt x="622" y="1562" on="1"/>
        <pt x="352" y="1742" on="1"/>
        <pt x="76" y="1562" on="1"/>
      </contour>
      <contour>
        <pt x="60" y="-312" on="1"/>
        <pt x="250" y="-109" on="0"/>
        <pt x="250" y="137" on="1"/>
        <pt x="250" y="139" on="0"/>
        <pt x="250" y="140" on="1"/>
        <pt x="250" y="148" on="1"/>
        <pt x="250" y="1363" on="1"/>
        <pt x="248" y="1371" on="1"/>
        <pt x="184" y="1487" on="0"/>
        <pt x="60" y="1511" on="1"/>
        <pt x="638" y="1511" on="1"/>
        <pt x="504" y="1483" on="0"/>
        <pt x="450" y="1372" on="1"/>
        <pt x="448" y="1363" on="1"/>
        <pt x="448" y="148" on="1"/>
        <pt x="448" y="140" on="1"/>
        <pt x="448" y="-195" on="0"/>
        <pt x="67" y="-311" on="1"/>
      </contour>
    </TTGlyph>
    <TTGlyph name="K" xMin="60" yMin="-123" xMax="1496" yMax="1511">
      <contour>
        <pt x="60" y="0" on="1"/>
        <pt x="184" y="24" on="0"/>
        <pt x="248" y="140" on="1"/>
        <pt x="250" y="148" on="1"/>
        <pt x="250" y="1363" on="1"/>
        <pt x="248" y="1371" on="1"/>
        <pt x="184" y="1487" on="0"/>
        <pt x="60" y="1511" on="1"/>
        <pt x="638" y="1511" on="1"/>
        <pt x="504" y="1483" on="0"/>
        <pt x="450" y="1372" on="1"/>
        <pt x="448" y="1363" on="1"/>
        <pt x="448" y="588" on="1"/>
        <pt x="1093" y="1393" on="1"/>
        <pt x="1101" y="1404" on="1"/>
        <pt x="1105" y="1411" on="0"/>
        <pt x="1105" y="1421" on="1"/>
        <pt x="1105" y="1460" on="0"/>
        <pt x="932" y="1511" on="1"/>
        <pt x="1403" y="1511" on="1"/>
        <pt x="1332" y="1490" on="0"/>
        <pt x="1220" y="1372" on="1"/>
        <pt x="1213" y="1363" on="1"/>
        <pt x="628" y="640" on="1"/>
        <pt x="683" y="661" on="0"/>
        <pt x="728" y="661" on="1"/>
        <pt x="730" y="661" on="0"/>
        <pt x="732" y="661" on="1"/>
        <pt x="905" y="661" on="0"/>
        <pt x="1010" y="535" on="1"/>
        <pt x="1062" y="473" on="0"/>
        <pt x="1190" y="183" on="1"/>
        <pt x="1211" y="139" on="1"/>
        <pt x="1253" y="56" on="0"/>
        <pt x="1316" y="56" on="1"/>
        <pt x="1317" y="56" on="0"/>
        <pt x="1319" y="56" on="1"/>
        <pt x="1374" y="56" on="0"/>
        <pt x="1419" y="94" on="1"/>
        <pt x="1469" y="138" on="0"/>
        <pt x="1496" y="158" on="1"/>
        <pt x="1483" y="32" on="0"/>
        <pt x="1412" y="-42" on="1"/>
        <pt x="1334" y="-123" on="0"/>
        <pt x="1249" y="-123" on="1"/>
        <pt x="1248" y="-123" on="0"/>
        <pt x="1247" y="-123" on="1"/>
        <pt x="1156" y="-123" on="0"/>
        <pt x="1082" y="-29" on="1"/>
        <pt x="1067" y="-10" on="0"/>
        <pt x="1022" y="75" on="1"/>
        <pt x="879" y="378" on="1"/>
        <pt x="811" y="511" on="0"/>
        <pt x="736" y="539" on="1"/>
        <pt x="646" y="573" on="0"/>
        <pt x="575" y="575" on="1"/>
        <pt x="571" y="570" on="1"/>
        <pt x="448" y="417" on="1"/>
        <pt x="448" y="148" on="1"/>
        <pt x="450" y="139" on="1"/>
        <pt x="504" y="28" on="0"/>
        <pt x="638" y="0" on="1"/>
      </contour>
    </TTGlyph>
    <TTGlyph name="Kcommaaccent" xMin="60" yMin="-433" xMax="1496" yMax="1511">
      <contour>
        <pt x="865" y="-66" on="1"/>
        <pt x="677" y="-376" on="1"/>
        <pt x="674" y="-381" on="0"/>
        <pt x="663" y="-393" on="1"/>
        <pt x="637" y="-422" on="0"/>
        <pt x="599" y="-430" on="1"/>
        <pt x="584" y="-433" on="0"/>
        <pt x="570" y="-433" on="1"/>
        <pt x="526" y="-433" on="0"/>
        <pt x="494" y="-401" on="1"/>
        <pt x="465" y="-372" on="0"/>
        <pt x="465" y="-328" on="1"/>
        <pt x="465" y="-320" on="0"/>
        <pt x="466" y="-310" on="1"/>
        <pt x="470" y="-265" on="0"/>
        <pt x="501" y="-242" on="1"/>
        <pt x="518" y="-228" on="1"/>
        <pt x="845" y="-45" on="1"/>
      </contour>
      <contour>
        <pt x="60" y="0" on="1"/>
        <pt x="184" y="24" on="0"/>
        <pt x="248" y="140" on="1"/>
        <pt x="250" y="148" on="1"/>
        <pt x="250" y="1363" on="1"/>
        <pt x="248" y="1371" on="1"/>
        <pt x="184" y="1487" on="0"/>
        <pt x="60" y="1511" on="1"/>
        <pt x="638" y="1511" on="1"/>
        <pt x="504" y="1483" on="0"/>
        <pt x="450" y="1372" on="1"/>
        <pt x="448" y="1363" on="1"/>
        <pt x="448" y="588" on="1"/>
        <pt x="1093" y="1393" on="1"/>
        <pt x="1101" y="1404" on="1"/>
        <pt x="1105" y="1411" on="0"/>
        <pt x="1105" y="1421" on="1"/>
        <pt x="1105" y="1460" on="0"/>
        <pt x="932" y="1511" on="1"/>
        <pt x="1403" y="1511" on="1"/>
        <pt x="1332" y="1490" on="0"/>
        <pt x="1220" y="1372" on="1"/>
        <pt x="1213" y="1363" on="1"/>
        <pt x="628" y="640" on="1"/>
        <pt x="683" y="661" on="0"/>
        <pt x="728" y="661" on="1"/>
        <pt x="730" y="661" on="0"/>
        <pt x="732" y="661" on="1"/>
        <pt x="905" y="661" on="0"/>
        <pt x="1010" y="535" on="1"/>
        <pt x="1062" y="473" on="0"/>
        <pt x="1190" y="183" on="1"/>
        <pt x="1211" y="139" on="1"/>
        <pt x="1253" y="56" on="0"/>
        <pt x="1316" y="56" on="1"/>
        <pt x="1317" y="56" on="0"/>
        <pt x="1319" y="56" on="1"/>
        <pt x="1374" y="56" on="0"/>
        <pt x="1419" y="94" on="1"/>
        <pt x="1469" y="138" on="0"/>
        <pt x="1496" y="158" on="1"/>
        <pt x="1483" y="32" on="0"/>
        <pt x="1412" y="-42" on="1"/>
        <pt x="1334" y="-123" on="0"/>
        <pt x="1249" y="-123" on="1"/>
        <pt x="1248" y="-123" on="0"/>
        <pt x="1247" y="-123" on="1"/>
        <pt x="1156" y="-123" on="0"/>
        <pt x="1082" y="-29" on="1"/>
        <pt x="1067" y="-10" on="0"/>
        <pt x="1022" y="75" on="1"/>
        <pt x="879" y="378" on="1"/>
        <pt x="811" y="511" on="0"/>
        <pt x="736" y="539" on="1"/>
        <pt x="646" y="573" on="0"/>
        <pt x="575" y="575" on="1"/>
        <pt x="571" y="570" on="1"/>
        <pt x="448" y="417" on="1"/>
        <pt x="448" y="148" on="1"/>
        <pt x="450" y="139" on="1"/>
        <pt x="504" y="28" on="0"/>
        <pt x="638" y="0" on="1"/>
      </contour>
    </TTGlyph>
    <TTGlyph name="L" xMin="60" yMin="0" xMax="1241" yMax="1511">
      <contour>
        <pt x="60" y="0" on="1"/>
        <pt x="184" y="24" on="0"/>
        <pt x="248" y="140" on="1"/>
        <pt x="250" y="148" on="1"/>
        <pt x="250" y="1363" on="1"/>
        <pt x="248" y="1371" on="1"/>
        <pt x="184" y="1487" on="0"/>
        <pt x="60" y="1511" on="1"/>
        <pt x="638" y="1511" on="1"/>
        <pt x="504" y="1483" on="0"/>
        <pt x="450" y="1372" on="1"/>
        <pt x="448" y="1363" on="1"/>
        <pt x="448" y="102" on="1"/>
        <pt x="950" y="102" on="1"/>
        <pt x="964" y="103" on="1"/>
        <pt x="1035" y="110" on="0"/>
        <pt x="1241" y="322" on="1"/>
        <pt x="1055" y="0" on="1"/>
      </contour>
    </TTGlyph>
    <TTGlyph name="Lacute" xMin="60" yMin="0" xMax="1241" yMax="1950">
      <contour>
        <pt x="329" y="1583" on="1"/>
        <pt x="517" y="1893" on="1"/>
        <pt x="520" y="1898" on="0"/>
        <pt x="531" y="1910" on="1"/>
        <pt x="557" y="1939" on="0"/>
        <pt x="595" y="1947" on="1"/>
        <pt x="610" y="1950" on="0"/>
        <pt x="624" y="1950" on="1"/>
        <pt x="668" y="1950" on="0"/>
        <pt x="700" y="1918" on="1"/>
        <pt x="729" y="1889" on="0"/>
        <pt x="729" y="1845" on="1"/>
        <pt x="729" y="1837" on="0"/>
        <pt x="728" y="1827" on="1"/>
        <pt x="724" y="1782" on="0"/>
        <pt x="693" y="1759" on="1"/>
        <pt x="676" y="1745" on="1"/>
        <pt x="349" y="1562" on="1"/>
      </contour>
      <contour>
        <pt x="60" y="0" on="1"/>
        <pt x="184" y="24" on="0"/>
        <pt x="248" y="140" on="1"/>
        <pt x="250" y="148" on="1"/>
        <pt x="250" y="1363" on="1"/>
        <pt x="248" y="1371" on="1"/>
        <pt x="184" y="1487" on="0"/>
        <pt x="60" y="1511" on="1"/>
        <pt x="638" y="1511" on="1"/>
        <pt x="504" y="1483" on="0"/>
        <pt x="450" y="1372" on="1"/>
        <pt x="448" y="1363" on="1"/>
        <pt x="448" y="102" on="1"/>
        <pt x="950" y="102" on="1"/>
        <pt x="964" y="103" on="1"/>
        <pt x="1035" y="110" on="0"/>
        <pt x="1241" y="322" on="1"/>
        <pt x="1055" y="0" on="1"/>
      </contour>
    </TTGlyph>
    <TTGlyph name="Lcaron" xMin="60" yMin="0" xMax="1241" yMax="1536">
      <contour>
        <pt x="538" y="1169" on="1"/>
        <pt x="726" y="1479" on="1"/>
        <pt x="729" y="1484" on="0"/>
        <pt x="740" y="1496" on="1"/>
        <pt x="766" y="1525" on="0"/>
        <pt x="804" y="1533" on="1"/>
        <pt x="819" y="1536" on="0"/>
        <pt x="833" y="1536" on="1"/>
        <pt x="877" y="1536" on="0"/>
        <pt x="909" y="1504" on="1"/>
        <pt x="938" y="1475" on="0"/>
        <pt x="938" y="1431" on="1"/>
        <pt x="938" y="1423" on="0"/>
        <pt x="937" y="1413" on="1"/>
        <pt x="933" y="1368" on="0"/>
        <pt x="902" y="1345" on="1"/>
        <pt x="885" y="1331" on="1"/>
        <pt x="558" y="1148" on="1"/>
      </contour>
      <contour>
        <pt x="60" y="0" on="1"/>
        <pt x="184" y="24" on="0"/>
        <pt x="248" y="140" on="1"/>
        <pt x="250" y="148" on="1"/>
        <pt x="250" y="1363" on="1"/>
        <pt x="248" y="1371" on="1"/>
        <pt x="184" y="1487" on="0"/>
        <pt x="60" y="1511" on="1"/>
        <pt x="638" y="1511" on="1"/>
        <pt x="504" y="1483" on="0"/>
        <pt x="450" y="1372" on="1"/>
        <pt x="448" y="1363" on="1"/>
        <pt x="448" y="102" on="1"/>
        <pt x="950" y="102" on="1"/>
        <pt x="964" y="103" on="1"/>
        <pt x="1035" y="110" on="0"/>
        <pt x="1241" y="322" on="1"/>
        <pt x="1055" y="0" on="1"/>
      </contour>
    </TTGlyph>
    <TTGlyph name="Lcommaaccent" xMin="60" yMin="-433" xMax="1241" yMax="1511">
      <contour>
        <pt x="712" y="-66" on="1"/>
        <pt x="524" y="-376" on="1"/>
        <pt x="521" y="-381" on="0"/>
        <pt x="510" y="-393" on="1"/>
        <pt x="484" y="-422" on="0"/>
        <pt x="446" y="-430" on="1"/>
        <pt x="431" y="-433" on="0"/>
        <pt x="417" y="-433" on="1"/>
        <pt x="373" y="-433" on="0"/>
        <pt x="341" y="-401" on="1"/>
        <pt x="312" y="-372" on="0"/>
        <pt x="312" y="-328" on="1"/>
        <pt x="312" y="-320" on="0"/>
        <pt x="313" y="-310" on="1"/>
        <pt x="317" y="-265" on="0"/>
        <pt x="348" y="-242" on="1"/>
        <pt x="365" y="-228" on="1"/>
        <pt x="692" y="-45" on="1"/>
      </contour>
      <contour>
        <pt x="60" y="0" on="1"/>
        <pt x="184" y="24" on="0"/>
        <pt x="248" y="140" on="1"/>
        <pt x="250" y="148" on="1"/>
        <pt x="250" y="1363" on="1"/>
        <pt x="248" y="1371" on="1"/>
        <pt x="184" y="1487" on="0"/>
        <pt x="60" y="1511" on="1"/>
        <pt x="638" y="1511" on="1"/>
        <pt x="504" y="1483" on="0"/>
        <pt x="450" y="1372" on="1"/>
        <pt x="448" y="1363" on="1"/>
        <pt x="448" y="102" on="1"/>
        <pt x="950" y="102" on="1"/>
        <pt x="964" y="103" on="1"/>
        <pt x="1035" y="110" on="0"/>
        <pt x="1241" y="322" on="1"/>
        <pt x="1055" y="0" on="1"/>
      </contour>
    </TTGlyph>
    <TTGlyph name="Ldot" xMin="60" yMin="0" xMax="1241" yMax="1511">
      <contour>
        <pt x="586" y="915" on="0"/>
        <pt x="586" y="1025" on="0"/>
        <pt x="662" y="1102" on="0"/>
        <pt x="770" y="1102" on="0"/>
        <pt x="846" y="1025" on="0"/>
        <pt x="846" y="915" on="0"/>
        <pt x="770" y="838" on="0"/>
        <pt x="662" y="838" on="0"/>
      </contour>
      <contour>
        <pt x="60" y="0" on="1"/>
        <pt x="184" y="24" on="0"/>
        <pt x="248" y="140" on="1"/>
        <pt x="250" y="148" on="1"/>
        <pt x="250" y="1363" on="1"/>
        <pt x="248" y="1371" on="1"/>
        <pt x="184" y="1487" on="0"/>
        <pt x="60" y="1511" on="1"/>
        <pt x="638" y="1511" on="1"/>
        <pt x="504" y="1483" on="0"/>
        <pt x="450" y="1372" on="1"/>
        <pt x="448" y="1363" on="1"/>
        <pt x="448" y="102" on="1"/>
        <pt x="950" y="102" on="1"/>
        <pt x="964" y="103" on="1"/>
        <pt x="1035" y="110" on="0"/>
        <pt x="1241" y="322" on="1"/>
        <pt x="1055" y="0" on="1"/>
      </contour>
    </TTGlyph>
    <TTGlyph name="Lslash" xMin="60" yMin="0" xMax="1241" yMax="1511">
      <contour>
        <pt x="60" y="0" on="1"/>
        <pt x="184" y="24" on="0"/>
        <pt x="248" y="140" on="1"/>
        <pt x="250" y="148" on="1"/>
        <pt x="250" y="546" on="1"/>
        <pt x="238" y="534" on="1"/>
        <pt x="233" y="529" on="1"/>
        <pt x="153" y="439" on="0"/>
        <pt x="153" y="350" on="1"/>
        <pt x="153" y="345" on="0"/>
        <pt x="153" y="341" on="1"/>
        <pt x="72" y="676" on="1"/>
        <pt x="83" y="657" on="0"/>
        <pt x="103" y="636" on="1"/>
        <pt x="125" y="613" on="0"/>
        <pt x="148" y="613" on="1"/>
        <pt x="173" y="614" on="0"/>
        <pt x="199" y="640" on="1"/>
        <pt x="203" y="643" on="1"/>
        <pt x="206" y="646" on="1"/>
        <pt x="250" y="690" on="1"/>
        <pt x="250" y="1363" on="1"/>
        <pt x="248" y="1371" on="1"/>
        <pt x="184" y="1487" on="0"/>
        <pt x="60" y="1511" on="1"/>
        <pt x="638" y="1511" on="1"/>
        <pt x="504" y="1483" on="0"/>
        <pt x="450" y="1372" on="1"/>
        <pt x="448" y="1363" on="1"/>
        <pt x="448" y="888" on="1"/>
        <pt x="469" y="909" on="1"/>
        <pt x="475" y="915" on="1"/>
        <pt x="554" y="1004" on="0"/>
        <pt x="554" y="1092" on="1"/>
        <pt x="554" y="1096" on="0"/>
        <pt x="554" y="1102" on="1"/>
        <pt x="636" y="768" on="1"/>
        <pt x="622" y="790" on="0"/>
        <pt x="604" y="808" on="1"/>
        <pt x="582" y="830" on="0"/>
        <pt x="559" y="830" on="1"/>
        <pt x="534" y="830" on="0"/>
        <pt x="508" y="804" on="1"/>
        <pt x="504" y="800" on="1"/>
        <pt x="501" y="797" on="1"/>
        <pt x="448" y="744" on="1"/>
        <pt x="448" y="102" on="1"/>
        <pt x="950" y="102" on="1"/>
        <pt x="964" y="103" on="1"/>
        <pt x="1035" y="110" on="0"/>
        <pt x="1241" y="322" on="1"/>
        <pt x="1055" y="0" on="1"/>
      </contour>
    </TTGlyph>
    <TTGlyph name="M" xMin="-20" yMin="-40" xMax="1834" yMax="1551">
      <contour>
        <pt x="-20" y="0" on="1"/>
        <pt x="114" y="28" on="0"/>
        <pt x="168" y="139" on="1"/>
        <pt x="170" y="148" on="1"/>
        <pt x="380" y="1551" on="1"/>
        <pt x="919" y="337" on="1"/>
        <pt x="1435" y="1551" on="1"/>
        <pt x="1644" y="148" on="1"/>
        <pt x="1646" y="139" on="1"/>
        <pt x="1700" y="28" on="0"/>
        <pt x="1834" y="0" on="1"/>
        <pt x="1256" y="0" on="1"/>
        <pt x="1447" y="71" on="0"/>
        <pt x="1447" y="135" on="1"/>
        <pt x="1447" y="137" on="0"/>
        <pt x="1447" y="140" on="1"/>
        <pt x="1446" y="148" on="1"/>
        <pt x="1315" y="1011" on="1"/>
        <pt x="860" y="-40" on="1"/>
        <pt x="400" y="1020" on="1"/>
        <pt x="282" y="148" on="1"/>
        <pt x="281" y="136" on="1"/>
        <pt x="283" y="76" on="0"/>
        <pt x="472" y="0" on="1"/>
      </contour>
    </TTGlyph>
    <TTGlyph name="N" xMin="60" yMin="-40" xMax="1490" yMax="1551">
      <contour>
        <pt x="60" y="0" on="1"/>
        <pt x="184" y="24" on="0"/>
        <pt x="248" y="140" on="1"/>
        <pt x="250" y="148" on="1"/>
        <pt x="250" y="1551" on="1"/>
        <pt x="1188" y="440" on="1"/>
        <pt x="1188" y="1363" on="1"/>
        <pt x="1186" y="1371" on="1"/>
        <pt x="1122" y="1487" on="0"/>
        <pt x="998" y="1511" on="1"/>
        <pt x="1490" y="1511" on="1"/>
        <pt x="1356" y="1483" on="0"/>
        <pt x="1302" y="1372" on="1"/>
        <pt x="1300" y="1363" on="1"/>
        <pt x="1300" y="-40" on="1"/>
        <pt x="362" y="1081" on="1"/>
        <pt x="362" y="148" on="1"/>
        <pt x="364" y="139" on="1"/>
        <pt x="418" y="28" on="0"/>
        <pt x="552" y="0" on="1"/>
      </contour>
    </TTGlyph>
    <TTGlyph name="Nacute" xMin="60" yMin="-40" xMax="1490" yMax="1950">
      <contour>
        <pt x="673" y="1583" on="1"/>
        <pt x="861" y="1893" on="1"/>
        <pt x="864" y="1898" on="0"/>
        <pt x="875" y="1910" on="1"/>
        <pt x="901" y="1939" on="0"/>
        <pt x="939" y="1947" on="1"/>
        <pt x="954" y="1950" on="0"/>
        <pt x="968" y="1950" on="1"/>
        <pt x="1012" y="1950" on="0"/>
        <pt x="1044" y="1918" on="1"/>
        <pt x="1073" y="1889" on="0"/>
        <pt x="1073" y="1845" on="1"/>
        <pt x="1073" y="1837" on="0"/>
        <pt x="1072" y="1827" on="1"/>
        <pt x="1068" y="1782" on="0"/>
        <pt x="1037" y="1759" on="1"/>
        <pt x="1020" y="1745" on="1"/>
        <pt x="693" y="1562" on="1"/>
      </contour>
      <contour>
        <pt x="60" y="0" on="1"/>
        <pt x="184" y="24" on="0"/>
        <pt x="248" y="140" on="1"/>
        <pt x="250" y="148" on="1"/>
        <pt x="250" y="1551" on="1"/>
        <pt x="1188" y="440" on="1"/>
        <pt x="1188" y="1363" on="1"/>
        <pt x="1186" y="1371" on="1"/>
        <pt x="1122" y="1487" on="0"/>
        <pt x="998" y="1511" on="1"/>
        <pt x="1490" y="1511" on="1"/>
        <pt x="1356" y="1483" on="0"/>
        <pt x="1302" y="1372" on="1"/>
        <pt x="1300" y="1363" on="1"/>
        <pt x="1300" y="-40" on="1"/>
        <pt x="362" y="1081" on="1"/>
        <pt x="362" y="148" on="1"/>
        <pt x="364" y="139" on="1"/>
        <pt x="418" y="28" on="0"/>
        <pt x="552" y="0" on="1"/>
      </contour>
    </TTGlyph>
    <TTGlyph name="Ncaron" xMin="60" yMin="-40" xMax="1490" yMax="1950">
      <contour>
        <pt x="478" y="1929" on="1"/>
        <pt x="498" y="1950" on="1"/>
        <pt x="773" y="1770" on="1"/>
        <pt x="1043" y="1950" on="1"/>
        <pt x="1063" y="1929" on="1"/>
        <pt x="875" y="1619" on="1"/>
        <pt x="872" y="1614" on="0"/>
        <pt x="861" y="1602" on="1"/>
        <pt x="838" y="1577" on="0"/>
        <pt x="811" y="1569" on="1"/>
        <pt x="787" y="1562" on="0"/>
        <pt x="773" y="1562" on="1"/>
        <pt x="771" y="1562" on="1"/>
        <pt x="768" y="1562" on="1"/>
        <pt x="752" y="1562" on="0"/>
        <pt x="730" y="1569" on="1"/>
        <pt x="698" y="1579" on="0"/>
        <pt x="680" y="1602" on="1"/>
        <pt x="668" y="1616" on="0"/>
        <pt x="666" y="1619" on="1"/>
      </contour>
      <contour>
        <pt x="60" y="0" on="1"/>
        <pt x="184" y="24" on="0"/>
        <pt x="248" y="140" on="1"/>
        <pt x="250" y="148" on="1"/>
        <pt x="250" y="1551" on="1"/>
        <pt x="1188" y="440" on="1"/>
        <pt x="1188" y="1363" on="1"/>
        <pt x="1186" y="1371" on="1"/>
        <pt x="1122" y="1487" on="0"/>
        <pt x="998" y="1511" on="1"/>
        <pt x="1490" y="1511" on="1"/>
        <pt x="1356" y="1483" on="0"/>
        <pt x="1302" y="1372" on="1"/>
        <pt x="1300" y="1363" on="1"/>
        <pt x="1300" y="-40" on="1"/>
        <pt x="362" y="1081" on="1"/>
        <pt x="362" y="148" on="1"/>
        <pt x="364" y="139" on="1"/>
        <pt x="418" y="28" on="0"/>
        <pt x="552" y="0" on="1"/>
      </contour>
    </TTGlyph>
    <TTGlyph name="Ncommaaccent" xMin="60" yMin="-433" xMax="1490" yMax="1551">
      <contour>
        <pt x="880" y="-66" on="1"/>
        <pt x="692" y="-376" on="1"/>
        <pt x="689" y="-381" on="0"/>
        <pt x="678" y="-393" on="1"/>
        <pt x="652" y="-422" on="0"/>
        <pt x="614" y="-430" on="1"/>
        <pt x="599" y="-433" on="0"/>
        <pt x="585" y="-433" on="1"/>
        <pt x="541" y="-433" on="0"/>
        <pt x="509" y="-401" on="1"/>
        <pt x="480" y="-372" on="0"/>
        <pt x="480" y="-328" on="1"/>
        <pt x="480" y="-320" on="0"/>
        <pt x="481" y="-310" on="1"/>
        <pt x="485" y="-265" on="0"/>
        <pt x="516" y="-242" on="1"/>
        <pt x="533" y="-228" on="1"/>
        <pt x="860" y="-45" on="1"/>
      </contour>
      <contour>
        <pt x="60" y="0" on="1"/>
        <pt x="184" y="24" on="0"/>
        <pt x="248" y="140" on="1"/>
        <pt x="250" y="148" on="1"/>
        <pt x="250" y="1551" on="1"/>
        <pt x="1188" y="440" on="1"/>
        <pt x="1188" y="1363" on="1"/>
        <pt x="1186" y="1371" on="1"/>
        <pt x="1122" y="1487" on="0"/>
        <pt x="998" y="1511" on="1"/>
        <pt x="1490" y="1511" on="1"/>
        <pt x="1356" y="1483" on="0"/>
        <pt x="1302" y="1372" on="1"/>
        <pt x="1300" y="1363" on="1"/>
        <pt x="1300" y="-40" on="1"/>
        <pt x="362" y="1081" on="1"/>
        <pt x="362" y="148" on="1"/>
        <pt x="364" y="139" on="1"/>
        <pt x="418" y="28" on="0"/>
        <pt x="552" y="0" on="1"/>
      </contour>
    </TTGlyph>
    <TTGlyph name="Ntilde" xMin="60" yMin="-40" xMax="1490" yMax="1950">
      <contour>
        <pt x="473" y="1700" on="1"/>
        <pt x="532" y="1950" on="0"/>
        <pt x="658" y="1950" on="1"/>
        <pt x="671" y="1950" on="0"/>
        <pt x="688" y="1946" on="1"/>
        <pt x="726" y="1937" on="0"/>
        <pt x="818" y="1875" on="1"/>
        <pt x="905" y="1814" on="1"/>
        <pt x="931" y="1792" on="0"/>
        <pt x="963" y="1792" on="1"/>
        <pt x="965" y="1792" on="0"/>
        <pt x="966" y="1792" on="1"/>
        <pt x="1027" y="1792" on="0"/>
        <pt x="1111" y="1902" on="1"/>
        <pt x="1057" y="1645" on="0"/>
        <pt x="929" y="1633" on="1"/>
        <pt x="917" y="1632" on="0"/>
        <pt x="905" y="1635" on="1"/>
        <pt x="865" y="1645" on="0"/>
        <pt x="774" y="1709" on="1"/>
        <pt x="688" y="1767" on="1"/>
        <pt x="660" y="1787" on="0"/>
        <pt x="626" y="1788" on="1"/>
        <pt x="625" y="1788" on="1"/>
        <pt x="561" y="1788" on="0"/>
      </contour>
      <contour>
        <pt x="60" y="0" on="1"/>
        <pt x="184" y="24" on="0"/>
        <pt x="248" y="140" on="1"/>
        <pt x="250" y="148" on="1"/>
        <pt x="250" y="1363" on="1"/>
        <pt x="248" y="1371" on="1"/>
        <pt x="184" y="1487" on="0"/>
        <pt x="60" y="1511" on="1"/>
        <pt x="391" y="1511" on="1"/>
        <pt x="1188" y="440" on="1"/>
        <pt x="1188" y="1363" on="1"/>
        <pt x="1186" y="1371" on="1"/>
        <pt x="1122" y="1487" on="0"/>
        <pt x="998" y="1511" on="1"/>
        <pt x="1490" y="1511" on="1"/>
        <pt x="1356" y="1483" on="0"/>
        <pt x="1302" y="1372" on="1"/>
        <pt x="1300" y="1363" on="1"/>
        <pt x="1300" y="-40" on="1"/>
        <pt x="362" y="1203" on="1"/>
        <pt x="362" y="148" on="1"/>
        <pt x="364" y="139" on="1"/>
        <pt x="418" y="28" on="0"/>
        <pt x="552" y="0" on="1"/>
      </contour>
    </TTGlyph>
    <TTGlyph name="O" xMin="130" yMin="-25" xMax="1254" yMax="1536">
      <contour>
        <pt x="338" y="727" on="1"/>
        <pt x="338" y="570" on="0"/>
        <pt x="370" y="462" on="1"/>
        <pt x="419" y="268" on="0"/>
        <pt x="502" y="178" on="1"/>
        <pt x="593" y="80" on="0"/>
        <pt x="692" y="80" on="1"/>
        <pt x="694" y="80" on="0"/>
        <pt x="695" y="80" on="1"/>
        <pt x="697" y="80" on="0"/>
        <pt x="698" y="80" on="1"/>
        <pt x="781" y="80" on="0"/>
        <pt x="890" y="180" on="1"/>
        <pt x="966" y="274" on="0"/>
        <pt x="1005" y="417" on="1"/>
        <pt x="1044" y="559" on="0"/>
        <pt x="1044" y="727" on="1"/>
        <pt x="1044" y="741" on="0"/>
        <pt x="1044" y="758" on="1"/>
        <pt x="1044" y="945" on="0"/>
        <pt x="1005" y="1069" on="1"/>
        <pt x="956" y="1253" on="0"/>
        <pt x="870" y="1346" on="1"/>
        <pt x="791" y="1431" on="0"/>
        <pt x="693" y="1431" on="1"/>
        <pt x="691" y="1431" on="1"/>
        <pt x="594" y="1431" on="0"/>
        <pt x="520" y="1364" on="1"/>
        <pt x="431" y="1292" on="0"/>
        <pt x="382" y="1096" on="1"/>
        <pt x="338" y="918" on="0"/>
      </contour>
      <contour>
        <pt x="130" y="580" on="0"/>
        <pt x="130" y="908" on="0"/>
        <pt x="218" y="1212" on="0"/>
        <pt x="294" y="1314" on="1"/>
        <pt x="370" y="1415" on="0"/>
        <pt x="578" y="1536" on="0"/>
        <pt x="806" y="1536" on="0"/>
        <pt x="1014" y="1415" on="0"/>
        <pt x="1090" y="1314" on="1"/>
        <pt x="1166" y="1212" on="0"/>
        <pt x="1254" y="908" on="0"/>
        <pt x="1254" y="580" on="0"/>
        <pt x="1166" y="299" on="0"/>
        <pt x="1090" y="197" on="1"/>
        <pt x="1014" y="96" on="0"/>
        <pt x="806" y="-25" on="0"/>
        <pt x="578" y="-25" on="0"/>
        <pt x="370" y="96" on="0"/>
        <pt x="294" y="197" on="1"/>
        <pt x="218" y="299" on="0"/>
      </contour>
    </TTGlyph>
    <TTGlyph name="OE" xMin="130" yMin="-25" xMax="2130" yMax="1536">
      <contour>
        <pt x="130" y="580" on="0"/>
        <pt x="130" y="908" on="0"/>
        <pt x="218" y="1212" on="0"/>
        <pt x="294" y="1314" on="1"/>
        <pt x="370" y="1415" on="0"/>
        <pt x="578" y="1536" on="0"/>
        <pt x="692" y="1536" on="1"/>
        <pt x="765" y="1536" on="0"/>
        <pt x="834" y="1511" on="1"/>
        <pt x="1814" y="1511" on="1"/>
        <pt x="2000" y="1189" on="1"/>
        <pt x="1794" y="1401" on="0"/>
        <pt x="1723" y="1408" on="1"/>
        <pt x="1709" y="1409" on="1"/>
        <pt x="1256" y="1409" on="1"/>
        <pt x="1256" y="642" on="1"/>
        <pt x="1569" y="642" on="1"/>
        <pt x="1583" y="643" on="1"/>
        <pt x="1654" y="650" on="0"/>
        <pt x="1860" y="862" on="1"/>
        <pt x="1571" y="361" on="1"/>
        <pt x="1580" y="394" on="0"/>
        <pt x="1580" y="422" on="1"/>
        <pt x="1580" y="496" on="0"/>
        <pt x="1520" y="537" on="1"/>
        <pt x="1513" y="540" on="1"/>
        <pt x="1256" y="540" on="1"/>
        <pt x="1256" y="102" on="1"/>
        <pt x="1839" y="102" on="1"/>
        <pt x="1853" y="103" on="1"/>
        <pt x="1924" y="110" on="0"/>
        <pt x="2130" y="322" on="1"/>
        <pt x="1944" y="0" on="1"/>
        <pt x="834" y="0" on="1"/>
        <pt x="765" y="-25" on="0"/>
        <pt x="692" y="-25" on="1"/>
        <pt x="578" y="-25" on="0"/>
        <pt x="370" y="96" on="0"/>
        <pt x="294" y="197" on="1"/>
        <pt x="218" y="299" on="0"/>
      </contour>
      <contour>
        <pt x="338" y="727" on="1"/>
        <pt x="338" y="570" on="0"/>
        <pt x="370" y="462" on="1"/>
        <pt x="419" y="268" on="0"/>
        <pt x="502" y="178" on="1"/>
        <pt x="593" y="80" on="0"/>
        <pt x="692" y="80" on="1"/>
        <pt x="695" y="80" on="1"/>
        <pt x="698" y="80" on="1"/>
        <pt x="781" y="80" on="0"/>
        <pt x="890" y="180" on="1"/>
        <pt x="966" y="274" on="0"/>
        <pt x="1005" y="417" on="1"/>
        <pt x="1044" y="559" on="0"/>
        <pt x="1044" y="727" on="1"/>
        <pt x="1044" y="758" on="1"/>
        <pt x="1044" y="945" on="0"/>
        <pt x="1005" y="1069" on="1"/>
        <pt x="956" y="1253" on="0"/>
        <pt x="870" y="1346" on="1"/>
        <pt x="791" y="1431" on="0"/>
        <pt x="693" y="1431" on="1"/>
        <pt x="691" y="1431" on="1"/>
        <pt x="594" y="1431" on="0"/>
        <pt x="520" y="1364" on="1"/>
        <pt x="431" y="1292" on="0"/>
        <pt x="382" y="1096" on="1"/>
        <pt x="338" y="918" on="0"/>
      </contour>
    </TTGlyph>
    <TTGlyph name="Oacute" xMin="130" yMin="-25" xMax="1254" yMax="1950">
      <contour>
        <pt x="673" y="1583" on="1"/>
        <pt x="861" y="1893" on="1"/>
        <pt x="864" y="1898" on="0"/>
        <pt x="875" y="1910" on="1"/>
        <pt x="901" y="1939" on="0"/>
        <pt x="939" y="1947" on="1"/>
        <pt x="954" y="1950" on="0"/>
        <pt x="968" y="1950" on="1"/>
        <pt x="1012" y="1950" on="0"/>
        <pt x="1044" y="1918" on="1"/>
        <pt x="1073" y="1889" on="0"/>
        <pt x="1073" y="1845" on="1"/>
        <pt x="1073" y="1837" on="0"/>
        <pt x="1072" y="1827" on="1"/>
        <pt x="1068" y="1782" on="0"/>
        <pt x="1037" y="1759" on="1"/>
        <pt x="1020" y="1745" on="1"/>
        <pt x="693" y="1562" on="1"/>
      </contour>
      <contour>
        <pt x="338" y="727" on="1"/>
        <pt x="338" y="570" on="0"/>
        <pt x="370" y="462" on="1"/>
        <pt x="419" y="268" on="0"/>
        <pt x="502" y="178" on="1"/>
        <pt x="593" y="80" on="0"/>
        <pt x="692" y="80" on="1"/>
        <pt x="694" y="80" on="0"/>
        <pt x="695" y="80" on="1"/>
        <pt x="697" y="80" on="0"/>
        <pt x="698" y="80" on="1"/>
        <pt x="781" y="80" on="0"/>
        <pt x="890" y="180" on="1"/>
        <pt x="966" y="274" on="0"/>
        <pt x="1005" y="417" on="1"/>
        <pt x="1044" y="559" on="0"/>
        <pt x="1044" y="727" on="1"/>
        <pt x="1044" y="741" on="0"/>
        <pt x="1044" y="758" on="1"/>
        <pt x="1044" y="945" on="0"/>
        <pt x="1005" y="1069" on="1"/>
        <pt x="956" y="1253" on="0"/>
        <pt x="870" y="1346" on="1"/>
        <pt x="791" y="1431" on="0"/>
        <pt x="693" y="1431" on="1"/>
        <pt x="691" y="1431" on="1"/>
        <pt x="594" y="1431" on="0"/>
        <pt x="520" y="1364" on="1"/>
        <pt x="431" y="1292" on="0"/>
        <pt x="382" y="1096" on="1"/>
        <pt x="338" y="918" on="0"/>
      </contour>
      <contour>
        <pt x="130" y="580" on="0"/>
        <pt x="130" y="908" on="0"/>
        <pt x="218" y="1212" on="0"/>
        <pt x="294" y="1314" on="1"/>
        <pt x="370" y="1415" on="0"/>
        <pt x="578" y="1536" on="0"/>
        <pt x="806" y="1536" on="0"/>
        <pt x="1014" y="1415" on="0"/>
        <pt x="1090" y="1314" on="1"/>
        <pt x="1166" y="1212" on="0"/>
        <pt x="1254" y="908" on="0"/>
        <pt x="1254" y="580" on="0"/>
        <pt x="1166" y="299" on="0"/>
        <pt x="1090" y="197" on="1"/>
        <pt x="1014" y="96" on="0"/>
        <pt x="806" y="-25" on="0"/>
        <pt x="578" y="-25" on="0"/>
        <pt x="370" y="96" on="0"/>
        <pt x="294" y="197" on="1"/>
        <pt x="218" y="299" on="0"/>
      </contour>
    </TTGlyph>
    <TTGlyph name="Obreve" xMin="130" yMin="-25" xMax="1254" yMax="1950">
      <contour>
        <pt x="363" y="1833" on="1"/>
        <pt x="477" y="1950" on="1"/>
        <pt x="511" y="1921" on="0"/>
        <pt x="517" y="1915" on="1"/>
        <pt x="596" y="1854" on="0"/>
        <pt x="708" y="1854" on="1"/>
        <pt x="800" y="1854" on="0"/>
        <pt x="867" y="1914" on="1"/>
        <pt x="900" y="1947" on="1"/>
        <pt x="1033" y="1845" on="1"/>
        <pt x="976" y="1785" on="0"/>
        <pt x="906" y="1743" on="1"/>
        <pt x="806" y="1683" on="0"/>
        <pt x="580" y="1683" on="0"/>
        <pt x="476" y="1746" on="1"/>
        <pt x="408" y="1787" on="0"/>
      </contour>
      <contour>
        <pt x="338" y="727" on="1"/>
        <pt x="338" y="570" on="0"/>
        <pt x="370" y="462" on="1"/>
        <pt x="419" y="268" on="0"/>
        <pt x="502" y="178" on="1"/>
        <pt x="593" y="80" on="0"/>
        <pt x="692" y="80" on="1"/>
        <pt x="694" y="80" on="0"/>
        <pt x="695" y="80" on="1"/>
        <pt x="697" y="80" on="0"/>
        <pt x="698" y="80" on="1"/>
        <pt x="781" y="80" on="0"/>
        <pt x="890" y="180" on="1"/>
        <pt x="966" y="274" on="0"/>
        <pt x="1005" y="417" on="1"/>
        <pt x="1044" y="559" on="0"/>
        <pt x="1044" y="727" on="1"/>
        <pt x="1044" y="741" on="0"/>
        <pt x="1044" y="758" on="1"/>
        <pt x="1044" y="945" on="0"/>
        <pt x="1005" y="1069" on="1"/>
        <pt x="956" y="1253" on="0"/>
        <pt x="870" y="1346" on="1"/>
        <pt x="791" y="1431" on="0"/>
        <pt x="693" y="1431" on="1"/>
        <pt x="691" y="1431" on="1"/>
        <pt x="594" y="1431" on="0"/>
        <pt x="520" y="1364" on="1"/>
        <pt x="431" y="1292" on="0"/>
        <pt x="382" y="1096" on="1"/>
        <pt x="338" y="918" on="0"/>
      </contour>
      <contour>
        <pt x="130" y="580" on="0"/>
        <pt x="130" y="908" on="0"/>
        <pt x="218" y="1212" on="0"/>
        <pt x="294" y="1314" on="1"/>
        <pt x="370" y="1415" on="0"/>
        <pt x="578" y="1536" on="0"/>
        <pt x="806" y="1536" on="0"/>
        <pt x="1014" y="1415" on="0"/>
        <pt x="1090" y="1314" on="1"/>
        <pt x="1166" y="1212" on="0"/>
        <pt x="1254" y="908" on="0"/>
        <pt x="1254" y="580" on="0"/>
        <pt x="1166" y="299" on="0"/>
        <pt x="1090" y="197" on="1"/>
        <pt x="1014" y="96" on="0"/>
        <pt x="806" y="-25" on="0"/>
        <pt x="578" y="-25" on="0"/>
        <pt x="370" y="96" on="0"/>
        <pt x="294" y="197" on="1"/>
        <pt x="218" y="299" on="0"/>
      </contour>
    </TTGlyph>
    <TTGlyph name="Ocircumflex" xMin="130" yMin="-25" xMax="1254" yMax="1950">
      <contour>
        <pt x="130" y="580" on="0"/>
        <pt x="130" y="908" on="0"/>
        <pt x="174" y="1060" on="1"/>
        <pt x="218" y="1213" on="0"/>
        <pt x="294" y="1314" on="1"/>
        <pt x="369" y="1414" on="0"/>
        <pt x="474" y="1476" on="1"/>
        <pt x="578" y="1536" on="0"/>
        <pt x="806" y="1536" on="0"/>
        <pt x="1014" y="1415" on="0"/>
        <pt x="1090" y="1314" on="1"/>
        <pt x="1166" y="1212" on="0"/>
        <pt x="1254" y="908" on="0"/>
        <pt x="1254" y="580" on="0"/>
        <pt x="1166" y="299" on="0"/>
        <pt x="1090" y="197" on="1"/>
        <pt x="1014" y="96" on="0"/>
        <pt x="806" y="-25" on="0"/>
        <pt x="578" y="-25" on="0"/>
        <pt x="474" y="36" on="1"/>
        <pt x="370" y="96" on="0"/>
        <pt x="294" y="197" on="1"/>
        <pt x="219" y="297" on="0"/>
        <pt x="174" y="440" on="1"/>
      </contour>
      <contour>
        <pt x="338" y="727" on="1"/>
        <pt x="338" y="570" on="0"/>
        <pt x="370" y="462" on="1"/>
        <pt x="419" y="268" on="0"/>
        <pt x="502" y="178" on="1"/>
        <pt x="593" y="80" on="0"/>
        <pt x="692" y="80" on="1"/>
        <pt x="695" y="80" on="1"/>
        <pt x="698" y="80" on="1"/>
        <pt x="781" y="80" on="0"/>
        <pt x="890" y="180" on="1"/>
        <pt x="966" y="274" on="0"/>
        <pt x="1005" y="417" on="1"/>
        <pt x="1044" y="559" on="0"/>
        <pt x="1044" y="727" on="1"/>
        <pt x="1044" y="758" on="1"/>
        <pt x="1044" y="945" on="0"/>
        <pt x="1005" y="1069" on="1"/>
        <pt x="956" y="1253" on="0"/>
        <pt x="870" y="1346" on="1"/>
        <pt x="791" y="1431" on="0"/>
        <pt x="693" y="1431" on="1"/>
        <pt x="691" y="1431" on="1"/>
        <pt x="594" y="1431" on="0"/>
        <pt x="520" y="1364" on="1"/>
        <pt x="431" y="1292" on="0"/>
        <pt x="382" y="1096" on="1"/>
        <pt x="338" y="918" on="0"/>
      </contour>
      <contour>
        <pt x="407" y="1583" on="1"/>
        <pt x="595" y="1893" on="1"/>
        <pt x="597" y="1896" on="0"/>
        <pt x="609" y="1910" on="1"/>
        <pt x="627" y="1933" on="0"/>
        <pt x="659" y="1943" on="1"/>
        <pt x="681" y="1950" on="0"/>
        <pt x="697" y="1950" on="1"/>
        <pt x="700" y="1950" on="1"/>
        <pt x="702" y="1950" on="1"/>
        <pt x="716" y="1950" on="0"/>
        <pt x="740" y="1943" on="1"/>
        <pt x="767" y="1935" on="0"/>
        <pt x="790" y="1910" on="1"/>
        <pt x="801" y="1898" on="0"/>
        <pt x="804" y="1893" on="1"/>
        <pt x="992" y="1583" on="1"/>
        <pt x="972" y="1562" on="1"/>
        <pt x="702" y="1742" on="1"/>
        <pt x="427" y="1562" on="1"/>
      </contour>
    </TTGlyph>
    <TTGlyph name="Odieresis" xMin="130" yMin="-25" xMax="1254" yMax="1936">
      <contour>
        <pt x="733" y="1749" on="0"/>
        <pt x="733" y="1859" on="0"/>
        <pt x="809" y="1936" on="0"/>
        <pt x="917" y="1936" on="0"/>
        <pt x="993" y="1859" on="0"/>
        <pt x="993" y="1749" on="0"/>
        <pt x="917" y="1672" on="0"/>
        <pt x="809" y="1672" on="0"/>
      </contour>
      <contour>
        <pt x="396" y="1749" on="0"/>
        <pt x="396" y="1859" on="0"/>
        <pt x="472" y="1936" on="0"/>
        <pt x="580" y="1936" on="0"/>
        <pt x="656" y="1859" on="0"/>
        <pt x="656" y="1749" on="0"/>
        <pt x="580" y="1672" on="0"/>
        <pt x="472" y="1672" on="0"/>
      </contour>
      <contour>
        <pt x="338" y="727" on="1"/>
        <pt x="338" y="570" on="0"/>
        <pt x="370" y="462" on="1"/>
        <pt x="419" y="268" on="0"/>
        <pt x="502" y="178" on="1"/>
        <pt x="593" y="80" on="0"/>
        <pt x="692" y="80" on="1"/>
        <pt x="694" y="80" on="0"/>
        <pt x="695" y="80" on="1"/>
        <pt x="697" y="80" on="0"/>
        <pt x="698" y="80" on="1"/>
        <pt x="781" y="80" on="0"/>
        <pt x="890" y="180" on="1"/>
        <pt x="966" y="274" on="0"/>
        <pt x="1005" y="417" on="1"/>
        <pt x="1044" y="559" on="0"/>
        <pt x="1044" y="727" on="1"/>
        <pt x="1044" y="741" on="0"/>
        <pt x="1044" y="758" on="1"/>
        <pt x="1044" y="945" on="0"/>
        <pt x="1005" y="1069" on="1"/>
        <pt x="956" y="1253" on="0"/>
        <pt x="870" y="1346" on="1"/>
        <pt x="791" y="1431" on="0"/>
        <pt x="693" y="1431" on="1"/>
        <pt x="691" y="1431" on="1"/>
        <pt x="594" y="1431" on="0"/>
        <pt x="520" y="1364" on="1"/>
        <pt x="431" y="1292" on="0"/>
        <pt x="382" y="1096" on="1"/>
        <pt x="338" y="918" on="0"/>
      </contour>
      <contour>
        <pt x="130" y="580" on="0"/>
        <pt x="130" y="908" on="0"/>
        <pt x="218" y="1212" on="0"/>
        <pt x="294" y="1314" on="1"/>
        <pt x="370" y="1415" on="0"/>
        <pt x="578" y="1536" on="0"/>
        <pt x="806" y="1536" on="0"/>
        <pt x="1014" y="1415" on="0"/>
        <pt x="1090" y="1314" on="1"/>
        <pt x="1166" y="1212" on="0"/>
        <pt x="1254" y="908" on="0"/>
        <pt x="1254" y="580" on="0"/>
        <pt x="1166" y="299" on="0"/>
        <pt x="1090" y="197" on="1"/>
        <pt x="1014" y="96" on="0"/>
        <pt x="806" y="-25" on="0"/>
        <pt x="578" y="-25" on="0"/>
        <pt x="370" y="96" on="0"/>
        <pt x="294" y="197" on="1"/>
        <pt x="218" y="299" on="0"/>
      </contour>
    </TTGlyph>
    <TTGlyph name="Ograve" xMin="130" yMin="-25" xMax="1254" yMax="1950">
      <contour>
        <pt x="713" y="1583" on="1"/>
        <pt x="693" y="1562" on="1"/>
        <pt x="366" y="1745" on="1"/>
        <pt x="349" y="1759" on="1"/>
        <pt x="318" y="1782" on="0"/>
        <pt x="314" y="1827" on="1"/>
        <pt x="313" y="1837" on="0"/>
        <pt x="313" y="1845" on="1"/>
        <pt x="313" y="1889" on="0"/>
        <pt x="342" y="1918" on="1"/>
        <pt x="374" y="1950" on="0"/>
        <pt x="418" y="1950" on="1"/>
        <pt x="432" y="1950" on="0"/>
        <pt x="447" y="1947" on="1"/>
        <pt x="485" y="1939" on="0"/>
        <pt x="511" y="1910" on="1"/>
        <pt x="522" y="1898" on="0"/>
        <pt x="525" y="1893" on="1"/>
      </contour>
      <contour>
        <pt x="338" y="727" on="1"/>
        <pt x="338" y="570" on="0"/>
        <pt x="370" y="462" on="1"/>
        <pt x="419" y="268" on="0"/>
        <pt x="502" y="178" on="1"/>
        <pt x="593" y="80" on="0"/>
        <pt x="692" y="80" on="1"/>
        <pt x="694" y="80" on="0"/>
        <pt x="695" y="80" on="1"/>
        <pt x="697" y="80" on="0"/>
        <pt x="698" y="80" on="1"/>
        <pt x="781" y="80" on="0"/>
        <pt x="890" y="180" on="1"/>
        <pt x="966" y="274" on="0"/>
        <pt x="1005" y="417" on="1"/>
        <pt x="1044" y="559" on="0"/>
        <pt x="1044" y="727" on="1"/>
        <pt x="1044" y="741" on="0"/>
        <pt x="1044" y="758" on="1"/>
        <pt x="1044" y="945" on="0"/>
        <pt x="1005" y="1069" on="1"/>
        <pt x="956" y="1253" on="0"/>
        <pt x="870" y="1346" on="1"/>
        <pt x="791" y="1431" on="0"/>
        <pt x="693" y="1431" on="1"/>
        <pt x="691" y="1431" on="1"/>
        <pt x="594" y="1431" on="0"/>
        <pt x="520" y="1364" on="1"/>
        <pt x="431" y="1292" on="0"/>
        <pt x="382" y="1096" on="1"/>
        <pt x="338" y="918" on="0"/>
      </contour>
      <contour>
        <pt x="130" y="580" on="0"/>
        <pt x="130" y="908" on="0"/>
        <pt x="218" y="1212" on="0"/>
        <pt x="294" y="1314" on="1"/>
        <pt x="370" y="1415" on="0"/>
        <pt x="578" y="1536" on="0"/>
        <pt x="806" y="1536" on="0"/>
        <pt x="1014" y="1415" on="0"/>
        <pt x="1090" y="1314" on="1"/>
        <pt x="1166" y="1212" on="0"/>
        <pt x="1254" y="908" on="0"/>
        <pt x="1254" y="580" on="0"/>
        <pt x="1166" y="299" on="0"/>
        <pt x="1090" y="197" on="1"/>
        <pt x="1014" y="96" on="0"/>
        <pt x="806" y="-25" on="0"/>
        <pt x="578" y="-25" on="0"/>
        <pt x="370" y="96" on="0"/>
        <pt x="294" y="197" on="1"/>
        <pt x="218" y="299" on="0"/>
      </contour>
    </TTGlyph>
    <TTGlyph name="Ohungarumlaut" xMin="130" yMin="-25" xMax="1254" yMax="1950">
      <contour>
        <pt x="514" y="1583" on="1"/>
        <pt x="702" y="1893" on="1"/>
        <pt x="705" y="1898" on="0"/>
        <pt x="716" y="1910" on="1"/>
        <pt x="742" y="1939" on="0"/>
        <pt x="780" y="1947" on="1"/>
        <pt x="795" y="1950" on="0"/>
        <pt x="809" y="1950" on="1"/>
        <pt x="853" y="1950" on="0"/>
        <pt x="885" y="1918" on="1"/>
        <pt x="914" y="1889" on="0"/>
        <pt x="914" y="1845" on="1"/>
        <pt x="914" y="1837" on="0"/>
        <pt x="913" y="1827" on="1"/>
        <pt x="909" y="1782" on="0"/>
        <pt x="878" y="1759" on="1"/>
        <pt x="861" y="1745" on="1"/>
        <pt x="534" y="1562" on="1"/>
      </contour>
      <contour>
        <pt x="830" y="1583" on="1"/>
        <pt x="1018" y="1893" on="1"/>
        <pt x="1021" y="1898" on="0"/>
        <pt x="1032" y="1910" on="1"/>
        <pt x="1058" y="1939" on="0"/>
        <pt x="1096" y="1947" on="1"/>
        <pt x="1111" y="1950" on="0"/>
        <pt x="1125" y="1950" on="1"/>
        <pt x="1169" y="1950" on="0"/>
        <pt x="1201" y="1918" on="1"/>
        <pt x="1230" y="1889" on="0"/>
        <pt x="1230" y="1845" on="1"/>
        <pt x="1230" y="1837" on="0"/>
        <pt x="1229" y="1827" on="1"/>
        <pt x="1225" y="1782" on="0"/>
        <pt x="1194" y="1759" on="1"/>
        <pt x="1177" y="1745" on="1"/>
        <pt x="850" y="1562" on="1"/>
      </contour>
      <contour>
        <pt x="338" y="727" on="1"/>
        <pt x="338" y="570" on="0"/>
        <pt x="370" y="462" on="1"/>
        <pt x="419" y="268" on="0"/>
        <pt x="502" y="178" on="1"/>
        <pt x="593" y="80" on="0"/>
        <pt x="692" y="80" on="1"/>
        <pt x="694" y="80" on="0"/>
        <pt x="695" y="80" on="1"/>
        <pt x="697" y="80" on="0"/>
        <pt x="698" y="80" on="1"/>
        <pt x="781" y="80" on="0"/>
        <pt x="890" y="180" on="1"/>
        <pt x="966" y="274" on="0"/>
        <pt x="1005" y="417" on="1"/>
        <pt x="1044" y="559" on="0"/>
        <pt x="1044" y="727" on="1"/>
        <pt x="1044" y="741" on="0"/>
        <pt x="1044" y="758" on="1"/>
        <pt x="1044" y="945" on="0"/>
        <pt x="1005" y="1069" on="1"/>
        <pt x="956" y="1253" on="0"/>
        <pt x="870" y="1346" on="1"/>
        <pt x="791" y="1431" on="0"/>
        <pt x="693" y="1431" on="1"/>
        <pt x="691" y="1431" on="1"/>
        <pt x="594" y="1431" on="0"/>
        <pt x="520" y="1364" on="1"/>
        <pt x="431" y="1292" on="0"/>
        <pt x="382" y="1096" on="1"/>
        <pt x="338" y="918" on="0"/>
      </contour>
      <contour>
        <pt x="130" y="580" on="0"/>
        <pt x="130" y="908" on="0"/>
        <pt x="218" y="1212" on="0"/>
        <pt x="294" y="1314" on="1"/>
        <pt x="370" y="1415" on="0"/>
        <pt x="578" y="1536" on="0"/>
        <pt x="806" y="1536" on="0"/>
        <pt x="1014" y="1415" on="0"/>
        <pt x="1090" y="1314" on="1"/>
        <pt x="1166" y="1212" on="0"/>
        <pt x="1254" y="908" on="0"/>
        <pt x="1254" y="580" on="0"/>
        <pt x="1166" y="299" on="0"/>
        <pt x="1090" y="197" on="1"/>
        <pt x="1014" y="96" on="0"/>
        <pt x="806" y="-25" on="0"/>
        <pt x="578" y="-25" on="0"/>
        <pt x="370" y="96" on="0"/>
        <pt x="294" y="197" on="1"/>
        <pt x="218" y="299" on="0"/>
      </contour>
    </TTGlyph>
    <TTGlyph name="Omacron" xMin="130" yMin="-25" xMax="1254" yMax="1950">
      <contour>
        <pt x="399" y="1950" on="1"/>
        <pt x="982" y="1950" on="1"/>
        <pt x="982" y="1773" on="1"/>
        <pt x="399" y="1773" on="1"/>
      </contour>
      <contour>
        <pt x="338" y="727" on="1"/>
        <pt x="338" y="570" on="0"/>
        <pt x="370" y="462" on="1"/>
        <pt x="419" y="268" on="0"/>
        <pt x="502" y="178" on="1"/>
        <pt x="593" y="80" on="0"/>
        <pt x="692" y="80" on="1"/>
        <pt x="694" y="80" on="0"/>
        <pt x="695" y="80" on="1"/>
        <pt x="697" y="80" on="0"/>
        <pt x="698" y="80" on="1"/>
        <pt x="781" y="80" on="0"/>
        <pt x="890" y="180" on="1"/>
        <pt x="966" y="274" on="0"/>
        <pt x="1005" y="417" on="1"/>
        <pt x="1044" y="559" on="0"/>
        <pt x="1044" y="727" on="1"/>
        <pt x="1044" y="741" on="0"/>
        <pt x="1044" y="758" on="1"/>
        <pt x="1044" y="945" on="0"/>
        <pt x="1005" y="1069" on="1"/>
        <pt x="956" y="1253" on="0"/>
        <pt x="870" y="1346" on="1"/>
        <pt x="791" y="1431" on="0"/>
        <pt x="693" y="1431" on="1"/>
        <pt x="691" y="1431" on="1"/>
        <pt x="594" y="1431" on="0"/>
        <pt x="520" y="1364" on="1"/>
        <pt x="431" y="1292" on="0"/>
        <pt x="382" y="1096" on="1"/>
        <pt x="338" y="918" on="0"/>
      </contour>
      <contour>
        <pt x="130" y="580" on="0"/>
        <pt x="130" y="908" on="0"/>
        <pt x="218" y="1212" on="0"/>
        <pt x="294" y="1314" on="1"/>
        <pt x="370" y="1415" on="0"/>
        <pt x="578" y="1536" on="0"/>
        <pt x="806" y="1536" on="0"/>
        <pt x="1014" y="1415" on="0"/>
        <pt x="1090" y="1314" on="1"/>
        <pt x="1166" y="1212" on="0"/>
        <pt x="1254" y="908" on="0"/>
        <pt x="1254" y="580" on="0"/>
        <pt x="1166" y="299" on="0"/>
        <pt x="1090" y="197" on="1"/>
        <pt x="1014" y="96" on="0"/>
        <pt x="806" y="-25" on="0"/>
        <pt x="578" y="-25" on="0"/>
        <pt x="370" y="96" on="0"/>
        <pt x="294" y="197" on="1"/>
        <pt x="218" y="299" on="0"/>
      </contour>
    </TTGlyph>
    <TTGlyph name="Omega" xMin="0" yMin="-1" xMax="1516" yMax="1536">
      <contour>
        <pt x="0" y="414" on="1"/>
        <pt x="206" y="202" on="0"/>
        <pt x="277" y="195" on="1"/>
        <pt x="291" y="194" on="1"/>
        <pt x="512" y="194" on="1"/>
        <pt x="512" y="271" on="1"/>
        <pt x="504" y="275" on="0"/>
        <pt x="503" y="275" on="1"/>
        <pt x="463" y="304" on="0"/>
        <pt x="367" y="413" on="1"/>
        <pt x="277" y="516" on="0"/>
        <pt x="241" y="620" on="1"/>
        <pt x="198" y="744" on="0"/>
        <pt x="198" y="851" on="1"/>
        <pt x="198" y="855" on="0"/>
        <pt x="198" y="860" on="1"/>
        <pt x="198" y="985" on="0"/>
        <pt x="241" y="1108" on="1"/>
        <pt x="275" y="1205" on="0"/>
        <pt x="375" y="1329" on="1"/>
        <pt x="451" y="1423" on="0"/>
        <pt x="542" y="1476" on="1"/>
        <pt x="645" y="1536" on="0"/>
        <pt x="760" y="1536" on="1"/>
        <pt x="868" y="1536" on="0"/>
        <pt x="978" y="1476" on="1"/>
        <pt x="1070" y="1426" on="0"/>
        <pt x="1155" y="1326" on="1"/>
        <pt x="1225" y="1243" on="0"/>
        <pt x="1278" y="1107" on="1"/>
        <pt x="1322" y="994" on="0"/>
        <pt x="1322" y="866" on="1"/>
        <pt x="1322" y="863" on="0"/>
        <pt x="1322" y="860" on="1"/>
        <pt x="1322" y="717" on="0"/>
        <pt x="1277" y="620" on="1"/>
        <pt x="1226" y="510" on="0"/>
        <pt x="1160" y="431" on="1"/>
        <pt x="1069" y="322" on="0"/>
        <pt x="1010" y="276" on="1"/>
        <pt x="1001" y="271" on="1"/>
        <pt x="1001" y="193" on="1"/>
        <pt x="1225" y="193" on="1"/>
        <pt x="1239" y="194" on="1"/>
        <pt x="1310" y="201" on="0"/>
        <pt x="1516" y="413" on="1"/>
        <pt x="1330" y="-1" on="1"/>
        <pt x="900" y="-1" on="1"/>
        <pt x="900" y="374" on="1"/>
        <pt x="929" y="394" on="0"/>
        <pt x="957" y="421" on="1"/>
        <pt x="1045" y="516" on="0"/>
        <pt x="1072" y="598" on="1"/>
        <pt x="1112" y="720" on="0"/>
        <pt x="1112" y="846" on="1"/>
        <pt x="1113" y="859" on="0"/>
        <pt x="1112" y="874" on="1"/>
        <pt x="1101" y="1041" on="0"/>
        <pt x="1076" y="1128" on="1"/>
        <pt x="1036" y="1243" on="0"/>
        <pt x="938" y="1346" on="1"/>
        <pt x="857" y="1431" on="0"/>
        <pt x="761" y="1431" on="1"/>
        <pt x="759" y="1431" on="1"/>
        <pt x="661" y="1430" on="0"/>
        <pt x="588" y="1364" on="1"/>
        <pt x="512" y="1295" on="0"/>
        <pt x="449" y="1142" on="1"/>
        <pt x="406" y="1037" on="0"/>
        <pt x="406" y="862" on="1"/>
        <pt x="406" y="730" on="0"/>
        <pt x="437" y="642" on="1"/>
        <pt x="479" y="522" on="0"/>
        <pt x="569" y="418" on="1"/>
        <pt x="588" y="396" on="0"/>
        <pt x="616" y="375" on="1"/>
        <pt x="616" y="0" on="1"/>
        <pt x="186" y="0" on="1"/>
      </contour>
    </TTGlyph>
    <TTGlyph name="Oslash" xMin="130" yMin="-118" xMax="1254" yMax="1632">
      <contour>
        <pt x="130" y="580" on="0"/>
        <pt x="130" y="908" on="0"/>
        <pt x="218" y="1212" on="0"/>
        <pt x="294" y="1314" on="1"/>
        <pt x="370" y="1415" on="0"/>
        <pt x="578" y="1536" on="0"/>
        <pt x="806" y="1536" on="0"/>
        <pt x="910" y="1476" on="1"/>
        <pt x="919" y="1470" on="1"/>
        <pt x="991" y="1632" on="1"/>
        <pt x="1128" y="1568" on="1"/>
        <pt x="1041" y="1372" on="1"/>
        <pt x="1067" y="1345" on="0"/>
        <pt x="1090" y="1314" on="1"/>
        <pt x="1166" y="1212" on="0"/>
        <pt x="1254" y="908" on="0"/>
        <pt x="1254" y="580" on="0"/>
        <pt x="1166" y="299" on="0"/>
        <pt x="1090" y="197" on="1"/>
        <pt x="1014" y="96" on="0"/>
        <pt x="806" y="-25" on="0"/>
        <pt x="578" y="-25" on="0"/>
        <pt x="474" y="36" on="1"/>
        <pt x="462" y="42" on="0"/>
        <pt x="451" y="50" on="1"/>
        <pt x="376" y="-118" on="1"/>
        <pt x="242" y="-48" on="1"/>
        <pt x="331" y="152" on="1"/>
        <pt x="312" y="173" on="0"/>
        <pt x="294" y="197" on="1"/>
        <pt x="218" y="299" on="0"/>
      </contour>
      <contour>
        <pt x="338" y="727" on="1"/>
        <pt x="338" y="570" on="0"/>
        <pt x="370" y="462" on="1"/>
        <pt x="388" y="390" on="0"/>
        <pt x="411" y="332" on="1"/>
        <pt x="866" y="1351" on="1"/>
        <pt x="788" y="1431" on="0"/>
        <pt x="693" y="1431" on="1"/>
        <pt x="691" y="1431" on="1"/>
        <pt x="594" y="1431" on="0"/>
        <pt x="520" y="1364" on="1"/>
        <pt x="431" y="1292" on="0"/>
        <pt x="382" y="1096" on="1"/>
        <pt x="338" y="918" on="0"/>
      </contour>
      <contour>
        <pt x="962" y="1196" on="1"/>
        <pt x="506" y="174" on="1"/>
        <pt x="595" y="80" on="0"/>
        <pt x="692" y="80" on="1"/>
        <pt x="695" y="80" on="1"/>
        <pt x="698" y="80" on="1"/>
        <pt x="781" y="80" on="0"/>
        <pt x="890" y="180" on="1"/>
        <pt x="966" y="274" on="0"/>
        <pt x="1005" y="417" on="1"/>
        <pt x="1044" y="559" on="0"/>
        <pt x="1044" y="727" on="1"/>
        <pt x="1044" y="758" on="1"/>
        <pt x="1044" y="945" on="0"/>
        <pt x="1005" y="1069" on="1"/>
        <pt x="986" y="1139" on="0"/>
      </contour>
    </TTGlyph>
    <TTGlyph name="Otilde" xMin="130" yMin="-25" xMax="1254" yMax="1950">
      <contour>
        <pt x="391" y="1700" on="1"/>
        <pt x="450" y="1950" on="0"/>
        <pt x="576" y="1950" on="1"/>
        <pt x="589" y="1950" on="0"/>
        <pt x="606" y="1946" on="1"/>
        <pt x="644" y="1937" on="0"/>
        <pt x="736" y="1875" on="1"/>
        <pt x="823" y="1814" on="1"/>
        <pt x="849" y="1792" on="0"/>
        <pt x="881" y="1792" on="1"/>
        <pt x="883" y="1792" on="0"/>
        <pt x="884" y="1792" on="1"/>
        <pt x="945" y="1792" on="0"/>
        <pt x="1029" y="1902" on="1"/>
        <pt x="975" y="1645" on="0"/>
        <pt x="847" y="1633" on="1"/>
        <pt x="835" y="1632" on="0"/>
        <pt x="823" y="1635" on="1"/>
        <pt x="783" y="1645" on="0"/>
        <pt x="692" y="1709" on="1"/>
        <pt x="606" y="1767" on="1"/>
        <pt x="578" y="1787" on="0"/>
        <pt x="544" y="1788" on="1"/>
        <pt x="543" y="1788" on="1"/>
        <pt x="479" y="1788" on="0"/>
      </contour>
      <contour>
        <pt x="338" y="727" on="1"/>
        <pt x="338" y="570" on="0"/>
        <pt x="370" y="462" on="1"/>
        <pt x="419" y="268" on="0"/>
        <pt x="502" y="178" on="1"/>
        <pt x="593" y="80" on="0"/>
        <pt x="692" y="80" on="1"/>
        <pt x="694" y="80" on="0"/>
        <pt x="695" y="80" on="1"/>
        <pt x="697" y="80" on="0"/>
        <pt x="698" y="80" on="1"/>
        <pt x="781" y="80" on="0"/>
        <pt x="890" y="180" on="1"/>
        <pt x="966" y="274" on="0"/>
        <pt x="1005" y="417" on="1"/>
        <pt x="1044" y="559" on="0"/>
        <pt x="1044" y="727" on="1"/>
        <pt x="1044" y="741" on="0"/>
        <pt x="1044" y="758" on="1"/>
        <pt x="1044" y="945" on="0"/>
        <pt x="1005" y="1069" on="1"/>
        <pt x="956" y="1253" on="0"/>
        <pt x="870" y="1346" on="1"/>
        <pt x="791" y="1431" on="0"/>
        <pt x="693" y="1431" on="1"/>
        <pt x="691" y="1431" on="1"/>
        <pt x="594" y="1431" on="0"/>
        <pt x="520" y="1364" on="1"/>
        <pt x="431" y="1292" on="0"/>
        <pt x="382" y="1096" on="1"/>
        <pt x="338" y="918" on="0"/>
      </contour>
      <contour>
        <pt x="130" y="580" on="0"/>
        <pt x="130" y="908" on="0"/>
        <pt x="218" y="1212" on="0"/>
        <pt x="294" y="1314" on="1"/>
        <pt x="370" y="1415" on="0"/>
        <pt x="578" y="1536" on="0"/>
        <pt x="806" y="1536" on="0"/>
        <pt x="1014" y="1415" on="0"/>
        <pt x="1090" y="1314" on="1"/>
        <pt x="1166" y="1212" on="0"/>
        <pt x="1254" y="908" on="0"/>
        <pt x="1254" y="580" on="0"/>
        <pt x="1166" y="299" on="0"/>
        <pt x="1090" y="197" on="1"/>
        <pt x="1014" y="96" on="0"/>
        <pt x="806" y="-25" on="0"/>
        <pt x="578" y="-25" on="0"/>
        <pt x="370" y="96" on="0"/>
        <pt x="294" y="197" on="1"/>
        <pt x="218" y="299" on="0"/>
      </contour>
    </TTGlyph>
    <TTGlyph name="P" xMin="50" yMin="0" xMax="1238" yMax="1535">
      <contour>
        <pt x="50" y="0" on="1"/>
        <pt x="174" y="24" on="0"/>
        <pt x="238" y="140" on="1"/>
        <pt x="240" y="148" on="1"/>
        <pt x="240" y="1280" on="1"/>
        <pt x="240" y="1304" on="0"/>
        <pt x="227" y="1315" on="1"/>
        <pt x="209" y="1330" on="0"/>
        <pt x="166" y="1340" on="1"/>
        <pt x="78" y="1360" on="0"/>
        <pt x="50" y="1362" on="1"/>
        <pt x="119" y="1393" on="0"/>
        <pt x="356" y="1476" on="1"/>
        <pt x="524" y="1535" on="0"/>
        <pt x="646" y="1535" on="1"/>
        <pt x="650" y="1535" on="0"/>
        <pt x="654" y="1535" on="1"/>
        <pt x="803" y="1535" on="0"/>
        <pt x="904" y="1494" on="1"/>
        <pt x="1006" y="1454" on="0"/>
        <pt x="1074" y="1392" on="1"/>
        <pt x="1167" y="1307" on="0"/>
        <pt x="1206" y="1212" on="1"/>
        <pt x="1232" y="1158" on="0"/>
        <pt x="1238" y="1032" on="1"/>
        <pt x="1233" y="835" on="0"/>
        <pt x="1124" y="720" on="1"/>
        <pt x="1026" y="617" on="0"/>
        <pt x="904" y="572" on="1"/>
        <pt x="820" y="541" on="0"/>
        <pt x="715" y="541" on="1"/>
        <pt x="695" y="541" on="0"/>
        <pt x="674" y="542" on="1"/>
        <pt x="529" y="549" on="0"/>
        <pt x="438" y="626" on="1"/>
        <pt x="438" y="148" on="1"/>
        <pt x="440" y="139" on="1"/>
        <pt x="494" y="28" on="0"/>
        <pt x="628" y="0" on="1"/>
      </contour>
      <contour>
        <pt x="653" y="1432" on="1"/>
        <pt x="575" y="1432" on="0"/>
        <pt x="500" y="1395" on="1"/>
        <pt x="470" y="1377" on="0"/>
        <pt x="452" y="1347" on="1"/>
        <pt x="438" y="1323" on="0"/>
        <pt x="438" y="1280" on="1"/>
        <pt x="438" y="782" on="1"/>
        <pt x="488" y="689" on="0"/>
        <pt x="600" y="654" on="1"/>
        <pt x="648" y="640" on="0"/>
        <pt x="693" y="640" on="1"/>
        <pt x="698" y="640" on="0"/>
        <pt x="704" y="640" on="1"/>
        <pt x="708" y="640" on="0"/>
        <pt x="744" y="642" on="1"/>
        <pt x="839" y="652" on="0"/>
        <pt x="904" y="704" on="1"/>
        <pt x="1022" y="799" on="0"/>
        <pt x="1022" y="1032" on="1"/>
        <pt x="1022" y="1152" on="0"/>
        <pt x="974" y="1248" on="1"/>
        <pt x="932" y="1332" on="0"/>
        <pt x="846" y="1386" on="1"/>
        <pt x="772" y="1432" on="0"/>
      </contour>
    </TTGlyph>
    <TTGlyph name="Pi" xMin="60" yMin="0" xMax="1428" yMax="1511">
      <contour>
        <pt x="60" y="0" on="1"/>
        <pt x="184" y="24" on="0"/>
        <pt x="248" y="140" on="1"/>
        <pt x="250" y="148" on="1"/>
        <pt x="250" y="1363" on="1"/>
        <pt x="248" y="1371" on="1"/>
        <pt x="184" y="1487" on="0"/>
        <pt x="60" y="1511" on="1"/>
        <pt x="1428" y="1511" on="1"/>
        <pt x="1294" y="1483" on="0"/>
        <pt x="1240" y="1372" on="1"/>
        <pt x="1238" y="1363" on="1"/>
        <pt x="1238" y="148" on="1"/>
        <pt x="1240" y="139" on="1"/>
        <pt x="1294" y="28" on="0"/>
        <pt x="1428" y="0" on="1"/>
        <pt x="850" y="0" on="1"/>
        <pt x="974" y="24" on="0"/>
        <pt x="1038" y="140" on="1"/>
        <pt x="1040" y="148" on="1"/>
        <pt x="1040" y="1391" on="1"/>
        <pt x="448" y="1391" on="1"/>
        <pt x="448" y="148" on="1"/>
        <pt x="450" y="139" on="1"/>
        <pt x="504" y="28" on="0"/>
        <pt x="638" y="0" on="1"/>
      </contour>
    </TTGlyph>
    <TTGlyph name="Q" xMin="130" yMin="-267" xMax="1254" yMax="1536">
      <contour>
        <pt x="130" y="580" on="0"/>
        <pt x="130" y="908" on="0"/>
        <pt x="218" y="1212" on="0"/>
        <pt x="294" y="1314" on="1"/>
        <pt x="370" y="1415" on="0"/>
        <pt x="578" y="1536" on="0"/>
        <pt x="806" y="1536" on="0"/>
        <pt x="1014" y="1415" on="0"/>
        <pt x="1090" y="1314" on="1"/>
        <pt x="1166" y="1212" on="0"/>
        <pt x="1254" y="908" on="0"/>
        <pt x="1254" y="580" on="0"/>
        <pt x="1210" y="440" on="1"/>
        <pt x="1165" y="295" on="0"/>
        <pt x="1090" y="197" on="1"/>
        <pt x="1077" y="180" on="0"/>
        <pt x="1063" y="163" on="1"/>
        <pt x="1065" y="137" on="0"/>
        <pt x="1062" y="114" on="1"/>
        <pt x="1046" y="-8" on="1"/>
        <pt x="1041" y="-68" on="1"/>
        <pt x="1041" y="-81" on="1"/>
        <pt x="1041" y="-138" on="0"/>
        <pt x="1187" y="-138" on="1"/>
        <pt x="1202" y="-138" on="0"/>
        <pt x="1216" y="-137" on="1"/>
        <pt x="1176" y="-215" on="1"/>
        <pt x="1050" y="-267" on="0"/>
        <pt x="974" y="-267" on="1"/>
        <pt x="861" y="-267" on="0"/>
        <pt x="861" y="-151" on="1"/>
        <pt x="861" y="-146" on="0"/>
        <pt x="861" y="-140" on="1"/>
        <pt x="861" y="-100" on="0"/>
        <pt x="869" y="-8" on="1"/>
        <pt x="871" y="15" on="1"/>
        <pt x="785" y="-25" on="0"/>
        <pt x="692" y="-25" on="1"/>
        <pt x="578" y="-25" on="0"/>
        <pt x="370" y="96" on="0"/>
        <pt x="294" y="197" on="1"/>
        <pt x="218" y="299" on="0"/>
      </contour>
      <contour>
        <pt x="336" y="695" on="1"/>
        <pt x="336" y="590" on="0"/>
        <pt x="370" y="460" on="1"/>
        <pt x="424" y="257" on="0"/>
        <pt x="498" y="176" on="1"/>
        <pt x="586" y="80" on="0"/>
        <pt x="702" y="80" on="1"/>
        <pt x="749" y="80" on="0"/>
        <pt x="803" y="109" on="1"/>
        <pt x="773" y="115" on="0"/>
        <pt x="731" y="115" on="1"/>
        <pt x="714" y="115" on="0"/>
        <pt x="698" y="114" on="1"/>
        <pt x="738" y="192" on="1"/>
        <pt x="877" y="258" on="0"/>
        <pt x="957" y="259" on="1"/>
        <pt x="976" y="297" on="0"/>
        <pt x="1009" y="417" on="1"/>
        <pt x="1048" y="559" on="0"/>
        <pt x="1048" y="727" on="1"/>
        <pt x="1048" y="741" on="0"/>
        <pt x="1048" y="758" on="1"/>
        <pt x="1048" y="946" on="0"/>
        <pt x="1009" y="1069" on="1"/>
        <pt x="973" y="1217" on="0"/>
        <pt x="874" y="1336" on="1"/>
        <pt x="795" y="1431" on="0"/>
        <pt x="691" y="1431" on="1"/>
        <pt x="599" y="1431" on="0"/>
        <pt x="520" y="1360" on="1"/>
        <pt x="425" y="1281" on="0"/>
        <pt x="382" y="1094" on="1"/>
        <pt x="336" y="895" on="0"/>
      </contour>
    </TTGlyph>
    <TTGlyph name="R" xMin="60" yMin="-123" xMax="1496" yMax="1535">
      <contour>
        <pt x="663" y="1432" on="1"/>
        <pt x="585" y="1432" on="0"/>
        <pt x="510" y="1395" on="1"/>
        <pt x="480" y="1377" on="0"/>
        <pt x="462" y="1347" on="1"/>
        <pt x="448" y="1323" on="0"/>
        <pt x="448" y="1280" on="1"/>
        <pt x="448" y="782" on="1"/>
        <pt x="498" y="689" on="0"/>
        <pt x="610" y="654" on="1"/>
        <pt x="658" y="640" on="0"/>
        <pt x="703" y="640" on="1"/>
        <pt x="708" y="640" on="0"/>
        <pt x="714" y="640" on="1"/>
        <pt x="718" y="640" on="0"/>
        <pt x="754" y="642" on="1"/>
        <pt x="849" y="652" on="0"/>
        <pt x="914" y="704" on="1"/>
        <pt x="1032" y="799" on="0"/>
        <pt x="1032" y="1032" on="1"/>
        <pt x="1032" y="1152" on="0"/>
        <pt x="984" y="1248" on="1"/>
        <pt x="942" y="1332" on="0"/>
        <pt x="856" y="1386" on="1"/>
        <pt x="782" y="1432" on="0"/>
      </contour>
      <contour>
        <pt x="60" y="0" on="1"/>
        <pt x="184" y="24" on="0"/>
        <pt x="248" y="140" on="1"/>
        <pt x="250" y="148" on="1"/>
        <pt x="250" y="1280" on="1"/>
        <pt x="250" y="1304" on="0"/>
        <pt x="237" y="1315" on="1"/>
        <pt x="219" y="1330" on="0"/>
        <pt x="176" y="1340" on="1"/>
        <pt x="88" y="1360" on="0"/>
        <pt x="60" y="1362" on="1"/>
        <pt x="129" y="1393" on="0"/>
        <pt x="366" y="1476" on="1"/>
        <pt x="534" y="1535" on="0"/>
        <pt x="656" y="1535" on="1"/>
        <pt x="660" y="1535" on="0"/>
        <pt x="664" y="1535" on="1"/>
        <pt x="813" y="1535" on="0"/>
        <pt x="914" y="1494" on="1"/>
        <pt x="1016" y="1454" on="0"/>
        <pt x="1084" y="1392" on="1"/>
        <pt x="1177" y="1307" on="0"/>
        <pt x="1216" y="1212" on="1"/>
        <pt x="1242" y="1158" on="0"/>
        <pt x="1248" y="1032" on="1"/>
        <pt x="1243" y="836" on="0"/>
        <pt x="1134" y="720" on="1"/>
        <pt x="1051" y="632" on="0"/>
        <pt x="948" y="586" on="1"/>
        <pt x="985" y="565" on="0"/>
        <pt x="1010" y="535" on="1"/>
        <pt x="1061" y="473" on="0"/>
        <pt x="1190" y="183" on="1"/>
        <pt x="1211" y="139" on="1"/>
        <pt x="1254" y="56" on="0"/>
        <pt x="1315" y="56" on="1"/>
        <pt x="1317" y="56" on="0"/>
        <pt x="1319" y="56" on="1"/>
        <pt x="1373" y="56" on="0"/>
        <pt x="1419" y="94" on="1"/>
        <pt x="1469" y="138" on="0"/>
        <pt x="1496" y="158" on="1"/>
        <pt x="1483" y="32" on="0"/>
        <pt x="1412" y="-42" on="1"/>
        <pt x="1334" y="-123" on="0"/>
        <pt x="1251" y="-123" on="1"/>
        <pt x="1249" y="-123" on="0"/>
        <pt x="1247" y="-123" on="1"/>
        <pt x="1152" y="-123" on="0"/>
        <pt x="1082" y="-29" on="1"/>
        <pt x="1067" y="-9" on="0"/>
        <pt x="1022" y="75" on="1"/>
        <pt x="879" y="378" on="1"/>
        <pt x="812" y="508" on="0"/>
        <pt x="736" y="539" on="1"/>
        <pt x="730" y="541" on="1"/>
        <pt x="708" y="541" on="0"/>
        <pt x="684" y="542" on="1"/>
        <pt x="540" y="548" on="0"/>
        <pt x="448" y="626" on="1"/>
        <pt x="448" y="148" on="1"/>
        <pt x="450" y="139" on="1"/>
        <pt x="504" y="28" on="0"/>
        <pt x="638" y="0" on="1"/>
      </contour>
    </TTGlyph>
    <TTGlyph name="Racute" xMin="60" yMin="-123" xMax="1496" yMax="1950">
      <contour>
        <pt x="641" y="1583" on="1"/>
        <pt x="829" y="1893" on="1"/>
        <pt x="832" y="1898" on="0"/>
        <pt x="843" y="1910" on="1"/>
        <pt x="869" y="1939" on="0"/>
        <pt x="907" y="1947" on="1"/>
        <pt x="922" y="1950" on="0"/>
        <pt x="936" y="1950" on="1"/>
        <pt x="980" y="1950" on="0"/>
        <pt x="1012" y="1918" on="1"/>
        <pt x="1041" y="1889" on="0"/>
        <pt x="1041" y="1845" on="1"/>
        <pt x="1041" y="1837" on="0"/>
        <pt x="1040" y="1827" on="1"/>
        <pt x="1036" y="1782" on="0"/>
        <pt x="1005" y="1759" on="1"/>
        <pt x="988" y="1745" on="1"/>
        <pt x="661" y="1562" on="1"/>
      </contour>
      <contour>
        <pt x="663" y="1432" on="1"/>
        <pt x="585" y="1432" on="0"/>
        <pt x="510" y="1395" on="1"/>
        <pt x="480" y="1377" on="0"/>
        <pt x="462" y="1347" on="1"/>
        <pt x="448" y="1323" on="0"/>
        <pt x="448" y="1280" on="1"/>
        <pt x="448" y="782" on="1"/>
        <pt x="498" y="689" on="0"/>
        <pt x="610" y="654" on="1"/>
        <pt x="658" y="640" on="0"/>
        <pt x="703" y="640" on="1"/>
        <pt x="708" y="640" on="0"/>
        <pt x="714" y="640" on="1"/>
        <pt x="718" y="640" on="0"/>
        <pt x="754" y="642" on="1"/>
        <pt x="849" y="652" on="0"/>
        <pt x="914" y="704" on="1"/>
        <pt x="1032" y="799" on="0"/>
        <pt x="1032" y="1032" on="1"/>
        <pt x="1032" y="1152" on="0"/>
        <pt x="984" y="1248" on="1"/>
        <pt x="942" y="1332" on="0"/>
        <pt x="856" y="1386" on="1"/>
        <pt x="782" y="1432" on="0"/>
      </contour>
      <contour>
        <pt x="60" y="0" on="1"/>
        <pt x="184" y="24" on="0"/>
        <pt x="248" y="140" on="1"/>
        <pt x="250" y="148" on="1"/>
        <pt x="250" y="1280" on="1"/>
        <pt x="250" y="1304" on="0"/>
        <pt x="237" y="1315" on="1"/>
        <pt x="219" y="1330" on="0"/>
        <pt x="176" y="1340" on="1"/>
        <pt x="88" y="1360" on="0"/>
        <pt x="60" y="1362" on="1"/>
        <pt x="129" y="1393" on="0"/>
        <pt x="366" y="1476" on="1"/>
        <pt x="534" y="1535" on="0"/>
        <pt x="656" y="1535" on="1"/>
        <pt x="660" y="1535" on="0"/>
        <pt x="664" y="1535" on="1"/>
        <pt x="813" y="1535" on="0"/>
        <pt x="914" y="1494" on="1"/>
        <pt x="1016" y="1454" on="0"/>
        <pt x="1084" y="1392" on="1"/>
        <pt x="1177" y="1307" on="0"/>
        <pt x="1216" y="1212" on="1"/>
        <pt x="1242" y="1158" on="0"/>
        <pt x="1248" y="1032" on="1"/>
        <pt x="1243" y="836" on="0"/>
        <pt x="1134" y="720" on="1"/>
        <pt x="1051" y="632" on="0"/>
        <pt x="948" y="586" on="1"/>
        <pt x="985" y="565" on="0"/>
        <pt x="1010" y="535" on="1"/>
        <pt x="1061" y="473" on="0"/>
        <pt x="1190" y="183" on="1"/>
        <pt x="1211" y="139" on="1"/>
        <pt x="1254" y="56" on="0"/>
        <pt x="1315" y="56" on="1"/>
        <pt x="1317" y="56" on="0"/>
        <pt x="1319" y="56" on="1"/>
        <pt x="1373" y="56" on="0"/>
        <pt x="1419" y="94" on="1"/>
        <pt x="1469" y="138" on="0"/>
        <pt x="1496" y="158" on="1"/>
        <pt x="1483" y="32" on="0"/>
        <pt x="1412" y="-42" on="1"/>
        <pt x="1334" y="-123" on="0"/>
        <pt x="1251" y="-123" on="1"/>
        <pt x="1249" y="-123" on="0"/>
        <pt x="1247" y="-123" on="1"/>
        <pt x="1152" y="-123" on="0"/>
        <pt x="1082" y="-29" on="1"/>
        <pt x="1067" y="-9" on="0"/>
        <pt x="1022" y="75" on="1"/>
        <pt x="879" y="378" on="1"/>
        <pt x="812" y="508" on="0"/>
        <pt x="736" y="539" on="1"/>
        <pt x="730" y="541" on="1"/>
        <pt x="708" y="541" on="0"/>
        <pt x="684" y="542" on="1"/>
        <pt x="540" y="548" on="0"/>
        <pt x="448" y="626" on="1"/>
        <pt x="448" y="148" on="1"/>
        <pt x="450" y="139" on="1"/>
        <pt x="504" y="28" on="0"/>
        <pt x="638" y="0" on="1"/>
      </contour>
    </TTGlyph>
    <TTGlyph name="Rcaron" xMin="60" yMin="-123" xMax="1496" yMax="1950">
      <contour>
        <pt x="397" y="1929" on="1"/>
        <pt x="417" y="1950" on="1"/>
        <pt x="692" y="1770" on="1"/>
        <pt x="962" y="1950" on="1"/>
        <pt x="982" y="1929" on="1"/>
        <pt x="794" y="1619" on="1"/>
        <pt x="791" y="1614" on="0"/>
        <pt x="780" y="1602" on="1"/>
        <pt x="757" y="1577" on="0"/>
        <pt x="730" y="1569" on="1"/>
        <pt x="706" y="1562" on="0"/>
        <pt x="692" y="1562" on="1"/>
        <pt x="690" y="1562" on="1"/>
        <pt x="687" y="1562" on="1"/>
        <pt x="671" y="1562" on="0"/>
        <pt x="649" y="1569" on="1"/>
        <pt x="617" y="1579" on="0"/>
        <pt x="599" y="1602" on="1"/>
        <pt x="587" y="1616" on="0"/>
        <pt x="585" y="1619" on="1"/>
      </contour>
      <contour>
        <pt x="663" y="1432" on="1"/>
        <pt x="585" y="1432" on="0"/>
        <pt x="510" y="1395" on="1"/>
        <pt x="480" y="1377" on="0"/>
        <pt x="462" y="1347" on="1"/>
        <pt x="448" y="1323" on="0"/>
        <pt x="448" y="1280" on="1"/>
        <pt x="448" y="782" on="1"/>
        <pt x="498" y="689" on="0"/>
        <pt x="610" y="654" on="1"/>
        <pt x="658" y="640" on="0"/>
        <pt x="703" y="640" on="1"/>
        <pt x="708" y="640" on="0"/>
        <pt x="714" y="640" on="1"/>
        <pt x="718" y="640" on="0"/>
        <pt x="754" y="642" on="1"/>
        <pt x="849" y="652" on="0"/>
        <pt x="914" y="704" on="1"/>
        <pt x="1032" y="799" on="0"/>
        <pt x="1032" y="1032" on="1"/>
        <pt x="1032" y="1152" on="0"/>
        <pt x="984" y="1248" on="1"/>
        <pt x="942" y="1332" on="0"/>
        <pt x="856" y="1386" on="1"/>
        <pt x="782" y="1432" on="0"/>
      </contour>
      <contour>
        <pt x="60" y="0" on="1"/>
        <pt x="184" y="24" on="0"/>
        <pt x="248" y="140" on="1"/>
        <pt x="250" y="148" on="1"/>
        <pt x="250" y="1280" on="1"/>
        <pt x="250" y="1304" on="0"/>
        <pt x="237" y="1315" on="1"/>
        <pt x="219" y="1330" on="0"/>
        <pt x="176" y="1340" on="1"/>
        <pt x="88" y="1360" on="0"/>
        <pt x="60" y="1362" on="1"/>
        <pt x="129" y="1393" on="0"/>
        <pt x="366" y="1476" on="1"/>
        <pt x="534" y="1535" on="0"/>
        <pt x="656" y="1535" on="1"/>
        <pt x="660" y="1535" on="0"/>
        <pt x="664" y="1535" on="1"/>
        <pt x="813" y="1535" on="0"/>
        <pt x="914" y="1494" on="1"/>
        <pt x="1016" y="1454" on="0"/>
        <pt x="1084" y="1392" on="1"/>
        <pt x="1177" y="1307" on="0"/>
        <pt x="1216" y="1212" on="1"/>
        <pt x="1242" y="1158" on="0"/>
        <pt x="1248" y="1032" on="1"/>
        <pt x="1243" y="836" on="0"/>
        <pt x="1134" y="720" on="1"/>
        <pt x="1051" y="632" on="0"/>
        <pt x="948" y="586" on="1"/>
        <pt x="985" y="565" on="0"/>
        <pt x="1010" y="535" on="1"/>
        <pt x="1061" y="473" on="0"/>
        <pt x="1190" y="183" on="1"/>
        <pt x="1211" y="139" on="1"/>
        <pt x="1254" y="56" on="0"/>
        <pt x="1315" y="56" on="1"/>
        <pt x="1317" y="56" on="0"/>
        <pt x="1319" y="56" on="1"/>
        <pt x="1373" y="56" on="0"/>
        <pt x="1419" y="94" on="1"/>
        <pt x="1469" y="138" on="0"/>
        <pt x="1496" y="158" on="1"/>
        <pt x="1483" y="32" on="0"/>
        <pt x="1412" y="-42" on="1"/>
        <pt x="1334" y="-123" on="0"/>
        <pt x="1251" y="-123" on="1"/>
        <pt x="1249" y="-123" on="0"/>
        <pt x="1247" y="-123" on="1"/>
        <pt x="1152" y="-123" on="0"/>
        <pt x="1082" y="-29" on="1"/>
        <pt x="1067" y="-9" on="0"/>
        <pt x="1022" y="75" on="1"/>
        <pt x="879" y="378" on="1"/>
        <pt x="812" y="508" on="0"/>
        <pt x="736" y="539" on="1"/>
        <pt x="730" y="541" on="1"/>
        <pt x="708" y="541" on="0"/>
        <pt x="684" y="542" on="1"/>
        <pt x="540" y="548" on="0"/>
        <pt x="448" y="626" on="1"/>
        <pt x="448" y="148" on="1"/>
        <pt x="450" y="139" on="1"/>
        <pt x="504" y="28" on="0"/>
        <pt x="638" y="0" on="1"/>
      </contour>
    </TTGlyph>
</ttFont>
